<?xml version="1.0" standalone="no"?>
<!DOCTYPE svg PUBLIC "-//W3C//DTD SVG 1.1//EN" "http://www.w3.org/Graphics/SVG/1.1/DTD/svg11.dtd" >
<svg xmlns="http://www.w3.org/2000/svg" xmlns:xlink="http://www.w3.org/1999/xlink" version="1.1">
<metadata>
Created by FontForge 20160405 at Tue Jul 11 10:50:20 2017
 By www-data
Copyright \(c\) 2016 by Fontfabric LLC. All rights reserved.
</metadata>
<defs>
<font id="Phenomena-Thin" horiz-adv-x="0" >
  <font-face 
    font-family="Phenomena Thin"
    font-weight="250"
    font-stretch="normal"
    units-per-em="1000"
    panose-1="0 0 3 0 0 0 0 0 0 0"
    ascent="800"
    descent="-200"
    x-height="500"
    cap-height="700"
    bbox="-330 -210 816 903"
    underline-thickness="50"
    underline-position="-100"
    stemh="19"
    stemv="20"
    unicode-range="U+0020-25CA"
  />
<missing-glyph horiz-adv-x="500" 
d="M410 800v-1000h-317v1000h317zM333 733h-165v-33h65v-37h-66v-33h166v33h-66v37h66v33zM267 604h-100v-104h166v34h-66v70zM233 570v-36h-33v36h33zM333 473h-166v-33h66v-37h-66v-33h100v70h66v33zM333 413h-33v-66h-133v-34h166v100zM333 291h-100v-56h34v23h33v-47
h-100v80h-33v-113h166v113zM333 118h-166v-113h166v113zM300 85v-47h-100v47h100zM333 -18h-166v-33h70l-70 -47v-33h166v33h-102l70 47h32v33z" />
    <glyph glyph-name=".notdef" horiz-adv-x="500" 
d="M410 800v-1000h-317v1000h317zM333 733h-165v-33h65v-37h-66v-33h166v33h-66v37h66v33zM267 604h-100v-104h166v34h-66v70zM233 570v-36h-33v36h33zM333 473h-166v-33h66v-37h-66v-33h100v70h66v33zM333 413h-33v-66h-133v-34h166v100zM333 291h-100v-56h34v23h33v-47
h-100v80h-33v-113h166v113zM333 118h-166v-113h166v113zM300 85v-47h-100v47h100zM333 -18h-166v-33h70l-70 -47v-33h166v33h-102l70 47h32v33z" />
    <glyph glyph-name="A" unicode="A" horiz-adv-x="453" 
d="M77 0c-3 0 -5 2 -5 5v527c0 105 62 175 154 175s154 -70 155 -175v-527c1 -3 -1 -5 -4 -5h-10c-3 0 -5 2 -6 5v272h-269v-272c0 -3 -2 -5 -5 -5h-10zM92 296h269v236c0 95 -52 156 -135 156c-80 0 -134 -61 -134 -156v-236z" />
    <glyph glyph-name="Aacute" unicode="&#xc1;" horiz-adv-x="453" 
d="M207 769c-4 0 -5 3 -3 6l72 90c1 2 4 3 6 3h13c4 0 6 -2 3 -6l-79 -90c-1 -2 -4 -3 -6 -3h-6zM77 0c-3 0 -5 2 -5 5v527c0 105 62 175 154 175s154 -70 155 -175v-527c1 -3 -1 -5 -4 -5h-10c-3 0 -5 2 -6 5v272h-269v-272c0 -3 -2 -5 -5 -5h-10zM92 296h269v236
c0 95 -52 156 -135 156c-80 0 -134 -61 -134 -156v-236z" />
    <glyph glyph-name="Abreve" unicode="&#x102;" horiz-adv-x="453" 
d="M226 769c-59 0 -99 38 -101 94c0 3 2 5 5 5h9c3 0 5 -2 5 -5c2 -49 32 -77 82 -77s80 28 82 77c0 3 2 5 5 5h9c3 0 5 -2 5 -5c-2 -56 -42 -94 -101 -94zM77 0c-3 0 -5 2 -5 5v527c0 105 62 175 154 175s154 -70 155 -175v-527c1 -3 -1 -5 -4 -5h-10c-3 0 -5 2 -6 5v272
h-269v-272c0 -3 -2 -5 -5 -5h-10zM92 296h269v236c0 95 -52 156 -135 156c-80 0 -134 -61 -134 -156v-236z" />
    <glyph glyph-name="Acircumflex" unicode="&#xc2;" horiz-adv-x="453" 
d="M314 775c2 -3 1 -6 -3 -6h-7c-2 0 -5 1 -6 3l-72 84l-72 -84c-1 -2 -4 -3 -6 -3h-7c-4 0 -5 3 -3 6l73 90c1 2 4 3 6 3h18c2 0 5 -1 6 -3zM77 0c-3 0 -5 2 -5 5v527c0 105 62 175 154 175s154 -70 155 -175v-527c1 -3 -1 -5 -4 -5h-10c-3 0 -5 2 -6 5v272h-269v-272
c0 -3 -2 -5 -5 -5h-10zM92 296h269v236c0 95 -52 156 -135 156c-80 0 -134 -61 -134 -156v-236z" />
    <glyph glyph-name="Adieresis" unicode="&#xc4;" horiz-adv-x="453" 
d="M178 805c-13 0 -22 9 -22 22s9 22 22 22s22 -9 22 -22s-9 -22 -22 -22zM274 805c-13 0 -22 9 -22 22s9 22 22 22s22 -9 22 -22s-9 -22 -22 -22zM77 0c-3 0 -5 2 -5 5v527c0 105 62 175 154 175s154 -70 155 -175v-527c1 -3 -1 -5 -4 -5h-10c-3 0 -5 2 -6 5v272h-269v-272
c0 -3 -2 -5 -5 -5h-10zM92 296h269v236c0 95 -52 156 -135 156c-80 0 -134 -61 -134 -156v-236z" />
    <glyph glyph-name="Agrave" unicode="&#xc0;" horiz-adv-x="453" 
d="M246 769h-6c-2 0 -5 1 -6 3l-79 90c-3 4 -1 6 3 6h13c2 0 5 -1 6 -3l72 -90c2 -3 1 -6 -3 -6zM77 0c-3 0 -5 2 -5 5v527c0 105 62 175 154 175s154 -70 155 -175v-527c1 -3 -1 -5 -4 -5h-10c-3 0 -5 2 -6 5v272h-269v-272c0 -3 -2 -5 -5 -5h-10zM92 296h269v236
c0 95 -52 156 -135 156c-80 0 -134 -61 -134 -156v-236z" />
    <glyph glyph-name="Amacron" unicode="&#x100;" horiz-adv-x="453" 
d="M151 814c0 3 2 5 5 5h140c3 0 5 -2 5 -5v-8c0 -3 -2 -5 -5 -5h-140c-3 0 -5 2 -5 5v8zM77 0c-3 0 -5 2 -5 5v527c0 105 62 175 154 175s154 -70 155 -175v-527c1 -3 -1 -5 -4 -5h-10c-3 0 -5 2 -6 5v272h-269v-272c0 -3 -2 -5 -5 -5h-10zM92 296h269v236
c0 95 -52 156 -135 156c-80 0 -134 -61 -134 -156v-236z" />
    <glyph glyph-name="Aogonek" unicode="&#x104;" horiz-adv-x="460" 
d="M359 -193c-47 0 -75 30 -75 68c0 40 33 85 76 125v277h-268v-272c0 -3 -2 -5 -5 -5h-10c-3 0 -5 2 -5 5v527c0 105 62 175 154 175s154 -70 154 -175v-528c0 -2 -1 -5 -4 -8c-43 -40 -73 -82 -73 -118c0 -33 24 -52 61 -52c6 0 13 1 19 1c3 0 5 -1 5 -4v-9
c0 -3 -1 -4 -4 -5c-8 -1 -18 -2 -25 -2zM92 296h268v236c0 95 -52 156 -134 156c-80 0 -134 -61 -134 -156v-236z" />
    <glyph glyph-name="Aring" unicode="&#xc5;" horiz-adv-x="453" 
d="M163 821c0 36 25 60 63 60s63 -24 63 -60c0 -37 -25 -62 -63 -62s-63 25 -63 62zM182 820c0 -28 16 -44 44 -44s44 16 44 44s-16 44 -44 44s-44 -16 -44 -44zM77 0c-3 0 -5 2 -5 5v527c0 105 62 175 154 175s154 -70 155 -175v-527c1 -3 -1 -5 -4 -5h-10c-3 0 -5 2 -6 5
v272h-269v-272c0 -3 -2 -5 -5 -5h-10zM92 296h269v236c0 95 -52 156 -135 156c-80 0 -134 -61 -134 -156v-236z" />
    <glyph glyph-name="Atilde" unicode="&#xc3;" horiz-adv-x="453" 
d="M182 824c-20 0 -34 -17 -35 -47c0 -3 -2 -5 -5 -5h-9c-3 0 -5 2 -5 5c2 39 25 65 55 65c43 0 52 -53 86 -53c20 0 34 17 35 47c0 3 2 5 5 5h9c3 0 5 -2 5 -5c-2 -40 -26 -65 -55 -65c-41 0 -51 53 -86 53zM77 0c-3 0 -5 2 -5 5v527c0 105 62 175 154 175
s154 -70 155 -175v-527c1 -3 -1 -5 -4 -5h-10c-3 0 -5 2 -6 5v272h-269v-272c0 -3 -2 -5 -5 -5h-10zM92 296h269v236c0 95 -52 156 -135 156c-80 0 -134 -61 -134 -156v-236z" />
    <glyph glyph-name="AE" unicode="&#xc6;" horiz-adv-x="617" 
d="M77 0c-3 0 -5 2 -5 5v522c0 110 49 180 144 180c66 0 115 -41 135 -107c21 60 72 100 144 100h70c3 0 5 -2 5 -5v-9c0 -3 -2 -5 -5 -5h-70c-84 0 -135 -60 -135 -146v-189h185c3 0 5 -2 5 -5v-9c0 -3 -2 -5 -5 -5h-185v-162c0 -86 51 -146 135 -146h70c3 0 5 -2 5 -5v-9
c0 -3 -2 -5 -5 -5h-70c-96 0 -155 70 -155 165v162h-248v-322c0 -3 -2 -5 -5 -5h-10zM92 346h248v186c0 95 -48 156 -124 156c-83 0 -124 -61 -124 -161v-181z" />
    <glyph glyph-name="B" unicode="B" horiz-adv-x="430" 
d="M282 362c61 -20 98 -73 98 -145v-64c0 -93 -61 -155 -153 -155h-145c-6 0 -10 4 -10 10v539c0 96 58 160 145 160s145 -64 145 -160v-40c0 -71 -31 -123 -80 -145zM92 547v-177h135c69 0 115 55 115 137v40c0 85 -50 141 -125 141s-125 -56 -125 -141zM360 153v64
c0 80 -53 134 -133 134h-135v-334h135c80 0 133 54 133 136z" />
    <glyph glyph-name="C" unicode="C" horiz-adv-x="420" 
d="M220 -7c-91 0 -158 72 -158 165v384c0 92 67 165 158 165c89 0 151 -71 153 -160c0 -3 -2 -5 -5 -5h-10c-3 0 -5 2 -5 5c-2 80 -53 141 -133 141c-79 0 -138 -63 -138 -146v-384c0 -84 59 -146 138 -146c83 0 136 60 138 141c0 3 2 5 5 5h10c3 0 5 -2 5 -6
c-3 -90 -66 -159 -158 -159z" />
    <glyph glyph-name="Cacute" unicode="&#x106;" horiz-adv-x="420" 
d="M194 769c-4 0 -5 3 -3 6l72 90c1 2 4 3 6 3h13c4 0 6 -2 3 -6l-79 -90c-1 -2 -4 -3 -6 -3h-6zM220 -7c-91 0 -158 72 -158 165v384c0 92 67 165 158 165c89 0 151 -71 153 -160c0 -3 -2 -5 -5 -5h-10c-3 0 -5 2 -5 5c-2 80 -53 141 -133 141c-79 0 -138 -63 -138 -146
v-384c0 -84 59 -146 138 -146c83 0 136 60 138 141c0 3 2 5 5 5h10c3 0 5 -2 5 -6c-3 -90 -66 -159 -158 -159z" />
    <glyph glyph-name="Ccaron" unicode="&#x10c;" horiz-adv-x="420" 
d="M301 862l-73 -90c-1 -2 -4 -3 -6 -3h-18c-2 0 -5 1 -6 3l-73 90c-2 3 -1 6 3 6h7c2 0 5 -1 6 -3l72 -84l72 84c1 2 4 3 6 3h7c4 0 5 -3 3 -6zM220 -7c-91 0 -158 72 -158 165v384c0 92 67 165 158 165c89 0 151 -71 153 -160c0 -3 -2 -5 -5 -5h-10c-3 0 -5 2 -5 5
c-2 80 -53 141 -133 141c-79 0 -138 -63 -138 -146v-384c0 -84 59 -146 138 -146c83 0 136 60 138 141c0 3 2 5 5 5h10c3 0 5 -2 5 -6c-3 -90 -66 -159 -158 -159z" />
    <glyph glyph-name="Ccedilla" unicode="&#xc7;" horiz-adv-x="420" 
d="M378 152c-3 -88 -64 -157 -153 -159l-10 -54c7 2 18 3 26 3c42 0 69 -28 69 -67c0 -42 -32 -68 -79 -68c-46 0 -77 26 -80 66c0 3 2 5 5 5h8c3 0 5 -2 5 -5c3 -28 27 -47 62 -47s60 18 60 49c0 30 -22 51 -49 51c-12 0 -26 -3 -39 -7c-2 -1 -3 -1 -5 1l-1 1
c-2 2 -2 3 -2 5l13 67c-85 7 -146 76 -146 165v384c0 92 67 165 158 165c89 0 151 -71 153 -160c0 -3 -2 -5 -5 -5h-10c-3 0 -5 2 -5 5c-2 80 -53 141 -133 141c-79 0 -138 -63 -138 -146v-384c0 -84 59 -146 138 -146c83 0 136 60 138 141c0 3 2 5 5 5h10c3 0 5 -2 5 -6z
" />
    <glyph glyph-name="Cdotaccent" unicode="&#x10a;" horiz-adv-x="420" 
d="M213 785c-13 0 -22 9 -22 22s9 22 22 22s22 -9 22 -22s-9 -22 -22 -22zM220 -7c-91 0 -158 72 -158 165v384c0 92 67 165 158 165c89 0 151 -71 153 -160c0 -3 -2 -5 -5 -5h-10c-3 0 -5 2 -5 5c-2 80 -53 141 -133 141c-79 0 -138 -63 -138 -146v-384
c0 -84 59 -146 138 -146c83 0 136 60 138 141c0 3 2 5 5 5h10c3 0 5 -2 5 -6c-3 -90 -66 -159 -158 -159z" />
    <glyph glyph-name="D" unicode="D" horiz-adv-x="443" 
d="M92 -2c-6 0 -10 4 -10 10v684c0 6 4 10 10 10h131c93 0 158 -65 158 -151v-388c0 -90 -65 -165 -158 -165h-131zM102 17h121c82 0 138 66 138 146v388c0 76 -56 132 -138 132h-121v-666z" />
    <glyph glyph-name="Eth" unicode="&#xd0;" horiz-adv-x="488" 
d="M268 702c93 0 158 -65 158 -151v-388c0 -90 -65 -165 -158 -165h-131c-6 0 -10 4 -10 10v339h-65c-3 0 -5 2 -5 5v9c0 3 2 5 5 5h65v326c0 6 4 10 10 10h131zM406 163v388c0 76 -56 132 -138 132h-121v-317h95c3 0 5 -2 5 -5v-9c0 -3 -2 -5 -5 -5h-95v-330h121
c82 0 138 66 138 146z" />
    <glyph glyph-name="Dcaron" unicode="&#x10e;" horiz-adv-x="443" 
d="M308 862l-73 -90c-1 -2 -4 -3 -6 -3h-18c-2 0 -5 1 -6 3l-73 90c-2 3 -1 6 3 6h7c2 0 5 -1 6 -3l72 -84l72 84c1 2 4 3 6 3h7c4 0 5 -3 3 -6zM92 -2c-6 0 -10 4 -10 10v684c0 6 4 10 10 10h131c93 0 158 -65 158 -151v-388c0 -90 -65 -165 -158 -165h-131zM102 17h121
c82 0 138 66 138 146v388c0 76 -56 132 -138 132h-121v-666z" />
    <glyph glyph-name="Dcroat" unicode="&#x110;" horiz-adv-x="488" 
d="M268 702c93 0 158 -65 158 -151v-388c0 -90 -65 -165 -158 -165h-131c-6 0 -10 4 -10 10v339h-65c-3 0 -5 2 -5 5v9c0 3 2 5 5 5h65v326c0 6 4 10 10 10h131zM406 163v388c0 76 -56 132 -138 132h-121v-317h95c3 0 5 -2 5 -5v-9c0 -3 -2 -5 -5 -5h-95v-330h121
c82 0 138 66 138 146z" />
    <glyph glyph-name="E" unicode="E" horiz-adv-x="359" 
d="M217 -2c-96 0 -155 70 -155 165v374c0 95 59 165 155 165h90c3 0 5 -2 5 -5v-9c0 -3 -2 -5 -5 -5h-90c-84 0 -135 -60 -135 -146v-171h205c3 0 5 -2 5 -5v-9c0 -3 -2 -5 -5 -5h-205v-184c0 -86 51 -146 135 -146h90c3 0 5 -2 5 -5v-9c0 -3 -2 -5 -5 -5h-90z" />
    <glyph glyph-name="Eacute" unicode="&#xc9;" horiz-adv-x="359" 
d="M190 769c-4 0 -5 3 -3 6l72 90c1 2 4 3 6 3h13c4 0 6 -2 3 -6l-79 -90c-1 -2 -4 -3 -6 -3h-6zM217 -2c-96 0 -155 70 -155 165v374c0 95 59 165 155 165h90c3 0 5 -2 5 -5v-9c0 -3 -2 -5 -5 -5h-90c-84 0 -135 -60 -135 -146v-171h205c3 0 5 -2 5 -5v-9c0 -3 -2 -5 -5 -5
h-205v-184c0 -86 51 -146 135 -146h90c3 0 5 -2 5 -5v-9c0 -3 -2 -5 -5 -5h-90z" />
    <glyph glyph-name="Ecaron" unicode="&#x11a;" horiz-adv-x="359" 
d="M297 862l-73 -90c-1 -2 -4 -3 -6 -3h-18c-2 0 -5 1 -6 3l-73 90c-2 3 -1 6 3 6h7c2 0 5 -1 6 -3l72 -84l72 84c1 2 4 3 6 3h7c4 0 5 -3 3 -6zM217 -2c-96 0 -155 70 -155 165v374c0 95 59 165 155 165h90c3 0 5 -2 5 -5v-9c0 -3 -2 -5 -5 -5h-90
c-84 0 -135 -60 -135 -146v-171h205c3 0 5 -2 5 -5v-9c0 -3 -2 -5 -5 -5h-205v-184c0 -86 51 -146 135 -146h90c3 0 5 -2 5 -5v-9c0 -3 -2 -5 -5 -5h-90z" />
    <glyph glyph-name="Ecircumflex" unicode="&#xca;" horiz-adv-x="359" 
d="M297 775c2 -3 1 -6 -3 -6h-7c-2 0 -5 1 -6 3l-72 84l-72 -84c-1 -2 -4 -3 -6 -3h-7c-4 0 -5 3 -3 6l73 90c1 2 4 3 6 3h18c2 0 5 -1 6 -3zM217 -2c-96 0 -155 70 -155 165v374c0 95 59 165 155 165h90c3 0 5 -2 5 -5v-9c0 -3 -2 -5 -5 -5h-90c-84 0 -135 -60 -135 -146
v-171h205c3 0 5 -2 5 -5v-9c0 -3 -2 -5 -5 -5h-205v-184c0 -86 51 -146 135 -146h90c3 0 5 -2 5 -5v-9c0 -3 -2 -5 -5 -5h-90z" />
    <glyph glyph-name="Edieresis" unicode="&#xcb;" horiz-adv-x="359" 
d="M161 805c-13 0 -22 9 -22 22s9 22 22 22s22 -9 22 -22s-9 -22 -22 -22zM257 805c-13 0 -22 9 -22 22s9 22 22 22s22 -9 22 -22s-9 -22 -22 -22zM217 -2c-96 0 -155 70 -155 165v374c0 95 59 165 155 165h90c3 0 5 -2 5 -5v-9c0 -3 -2 -5 -5 -5h-90
c-84 0 -135 -60 -135 -146v-171h205c3 0 5 -2 5 -5v-9c0 -3 -2 -5 -5 -5h-205v-184c0 -86 51 -146 135 -146h90c3 0 5 -2 5 -5v-9c0 -3 -2 -5 -5 -5h-90z" />
    <glyph glyph-name="Edotaccent" unicode="&#x116;" horiz-adv-x="359" 
d="M209 785c-13 0 -22 9 -22 22s9 22 22 22s22 -9 22 -22s-9 -22 -22 -22zM217 -2c-96 0 -155 70 -155 165v374c0 95 59 165 155 165h90c3 0 5 -2 5 -5v-9c0 -3 -2 -5 -5 -5h-90c-84 0 -135 -60 -135 -146v-171h205c3 0 5 -2 5 -5v-9c0 -3 -2 -5 -5 -5h-205v-184
c0 -86 51 -146 135 -146h90c3 0 5 -2 5 -5v-9c0 -3 -2 -5 -5 -5h-90z" />
    <glyph glyph-name="Egrave" unicode="&#xc8;" horiz-adv-x="359" 
d="M229 769h-6c-2 0 -5 1 -6 3l-79 90c-3 4 -1 6 3 6h13c2 0 5 -1 6 -3l72 -90c2 -3 1 -6 -3 -6zM217 -2c-96 0 -155 70 -155 165v374c0 95 59 165 155 165h90c3 0 5 -2 5 -5v-9c0 -3 -2 -5 -5 -5h-90c-84 0 -135 -60 -135 -146v-171h205c3 0 5 -2 5 -5v-9c0 -3 -2 -5 -5 -5
h-205v-184c0 -86 51 -146 135 -146h90c3 0 5 -2 5 -5v-9c0 -3 -2 -5 -5 -5h-90z" />
    <glyph glyph-name="Emacron" unicode="&#x112;" horiz-adv-x="359" 
d="M134 814c0 3 2 5 5 5h140c3 0 5 -2 5 -5v-8c0 -3 -2 -5 -5 -5h-140c-3 0 -5 2 -5 5v8zM217 -2c-96 0 -155 70 -155 165v374c0 95 59 165 155 165h90c3 0 5 -2 5 -5v-9c0 -3 -2 -5 -5 -5h-90c-84 0 -135 -60 -135 -146v-171h205c3 0 5 -2 5 -5v-9c0 -3 -2 -5 -5 -5h-205
v-184c0 -86 51 -146 135 -146h90c3 0 5 -2 5 -5v-9c0 -3 -2 -5 -5 -5h-90z" />
    <glyph glyph-name="Eogonek" unicode="&#x118;" horiz-adv-x="355" 
d="M217 683c-84 0 -135 -60 -135 -146v-171h205c3 0 5 -2 5 -5v-9c0 -3 -2 -5 -5 -5h-205v-184c0 -86 51 -146 135 -146h90c3 0 5 -2 5 -5v-9c0 -3 -2 -5 -5 -5h-12c-50 -44 -74 -86 -74 -120c0 -33 24 -52 61 -52c6 0 13 1 19 1c3 1 5 -1 5 -4v-9c0 -3 -1 -4 -4 -5
c-8 -1 -18 -2 -25 -2c-47 0 -75 30 -75 68c0 39 32 84 74 123h-59c-96 0 -155 70 -155 165v374c0 95 59 165 155 165h90c3 0 5 -2 5 -5v-9c0 -3 -2 -5 -5 -5h-90z" />
    <glyph glyph-name="F" unicode="F" horiz-adv-x="347" 
d="M77 0c-3 0 -5 2 -5 5v540c0 85 59 155 158 155h77c3 0 5 -2 5 -5v-9c0 -3 -2 -5 -5 -5h-77c-87 0 -138 -60 -138 -136v-186h195c3 0 5 -2 5 -5v-9c0 -3 -2 -5 -5 -5h-195v-335c0 -3 -2 -5 -5 -5h-10z" />
    <glyph glyph-name="G" unicode="G" horiz-adv-x="436" 
d="M223 -7c-89 0 -161 70 -161 165v364c0 115 71 185 159 185c87 0 155 -68 157 -160c0 -3 -2 -5 -5 -5h-10c-3 0 -5 2 -5 5c-2 83 -62 141 -137 141c-76 0 -139 -60 -139 -166v-364c0 -86 64 -146 141 -146c78 0 141 60 141 146v182h-132c-3 0 -5 2 -5 5v9c0 3 2 5 5 5h142
c6 0 10 -4 10 -10v-191c0 -95 -73 -165 -161 -165z" />
    <glyph glyph-name="Gbreve" unicode="&#x11e;" horiz-adv-x="436" 
d="M209 769c-59 0 -99 38 -101 94c0 3 2 5 5 5h9c3 0 5 -2 5 -5c2 -49 32 -77 82 -77s80 28 82 77c0 3 2 5 5 5h9c3 0 5 -2 5 -5c-2 -56 -42 -94 -101 -94zM223 -7c-89 0 -161 70 -161 165v364c0 115 71 185 159 185c87 0 155 -68 157 -160c0 -3 -2 -5 -5 -5h-10
c-3 0 -5 2 -5 5c-2 83 -62 141 -137 141c-76 0 -139 -60 -139 -166v-364c0 -86 64 -146 141 -146c78 0 141 60 141 146v182h-132c-3 0 -5 2 -5 5v9c0 3 2 5 5 5h142c6 0 10 -4 10 -10v-191c0 -95 -73 -165 -161 -165z" />
    <glyph glyph-name="Gcommaaccent" unicode="&#x122;" horiz-adv-x="436" 
d="M223 -7c-89 0 -161 70 -161 165v364c0 115 71 185 159 185c87 0 155 -68 157 -160c0 -3 -2 -5 -5 -5h-10c-3 0 -5 2 -5 5c-2 83 -62 141 -137 141c-76 0 -139 -60 -139 -166v-364c0 -86 64 -146 141 -146c78 0 141 60 141 146v182h-132c-3 0 -5 2 -5 5v9c0 3 2 5 5 5h142
c6 0 10 -4 10 -10v-191c0 -95 -73 -165 -161 -165zM207 -71c0 4 2 5 5 5h19c3 0 5 -1 4 -5l-21 -134c0 -3 -3 -5 -6 -5h-5c-3 0 -5 1 -5 5z" />
    <glyph glyph-name="Gdotaccent" unicode="&#x120;" horiz-adv-x="436" 
d="M209 785c-13 0 -22 9 -22 22s9 22 22 22s22 -9 22 -22s-9 -22 -22 -22zM223 -7c-89 0 -161 70 -161 165v364c0 115 71 185 159 185c87 0 155 -68 157 -160c0 -3 -2 -5 -5 -5h-10c-3 0 -5 2 -5 5c-2 83 -62 141 -137 141c-76 0 -139 -60 -139 -166v-364
c0 -86 64 -146 141 -146c78 0 141 60 141 146v182h-132c-3 0 -5 2 -5 5v9c0 3 2 5 5 5h142c6 0 10 -4 10 -10v-191c0 -95 -73 -165 -161 -165z" />
    <glyph glyph-name="H" unicode="H" horiz-adv-x="458" 
d="M356 695c0 3 2 5 5 5h10c3 0 5 -2 5 -5v-690c0 -3 -2 -5 -5 -5h-10c-3 0 -5 2 -5 5v342h-254v-342c0 -3 -2 -5 -5 -5h-10c-3 0 -5 2 -5 5v690c0 3 2 5 5 5h10c3 0 5 -2 5 -5v-329h254v329z" />
    <glyph glyph-name="Hbar" unicode="&#x126;" horiz-adv-x="524" 
d="M462 554c3 0 5 -2 5 -5v-9c0 -3 -2 -5 -5 -5h-53v-530c0 -3 -2 -5 -5 -5h-10c-3 0 -5 2 -5 5v342h-254v-342c0 -3 -2 -5 -5 -5h-10c-3 0 -5 2 -5 5v530h-53c-3 0 -5 2 -5 5v9c0 3 2 5 5 5h53v141c0 3 2 5 5 5h10c3 0 5 -2 5 -5v-141h254v141c0 3 2 5 5 5h10
c3 0 5 -2 5 -5v-141h53zM389 366v169h-254v-169h254z" />
    <glyph glyph-name="I" unicode="I" horiz-adv-x="184" 
d="M82 695c0 3 2 5 5 5h10c3 0 5 -2 5 -5v-690c0 -3 -2 -5 -5 -5h-10c-3 0 -5 2 -5 5v690z" />
    <glyph glyph-name="Iacute" unicode="&#xcd;" horiz-adv-x="184" 
d="M73 769c-4 0 -5 3 -3 6l72 90c1 2 4 3 6 3h13c4 0 6 -2 3 -6l-79 -90c-1 -2 -4 -3 -6 -3h-6zM82 695c0 3 2 5 5 5h10c3 0 5 -2 5 -5v-690c0 -3 -2 -5 -5 -5h-10c-3 0 -5 2 -5 5v690z" />
    <glyph glyph-name="Icircumflex" unicode="&#xce;" horiz-adv-x="184" 
d="M180 775c2 -3 1 -6 -3 -6h-7c-2 0 -5 1 -6 3l-72 84l-72 -84c-1 -2 -4 -3 -6 -3h-7c-4 0 -5 3 -3 6l73 90c1 2 4 3 6 3h18c2 0 5 -1 6 -3zM82 695c0 3 2 5 5 5h10c3 0 5 -2 5 -5v-690c0 -3 -2 -5 -5 -5h-10c-3 0 -5 2 -5 5v690z" />
    <glyph glyph-name="Idieresis" unicode="&#xcf;" horiz-adv-x="184" 
d="M44 805c-13 0 -22 9 -22 22s9 22 22 22s22 -9 22 -22s-9 -22 -22 -22zM140 805c-13 0 -22 9 -22 22s9 22 22 22s22 -9 22 -22s-9 -22 -22 -22zM82 695c0 3 2 5 5 5h10c3 0 5 -2 5 -5v-690c0 -3 -2 -5 -5 -5h-10c-3 0 -5 2 -5 5v690z" />
    <glyph glyph-name="Idotaccent" unicode="&#x130;" horiz-adv-x="184" 
d="M92 785c-13 0 -22 9 -22 22s9 22 22 22s22 -9 22 -22s-9 -22 -22 -22zM82 695c0 3 2 5 5 5h10c3 0 5 -2 5 -5v-690c0 -3 -2 -5 -5 -5h-10c-3 0 -5 2 -5 5v690z" />
    <glyph glyph-name="Igrave" unicode="&#xcc;" horiz-adv-x="184" 
d="M112 769h-6c-2 0 -5 1 -6 3l-79 90c-3 4 -1 6 3 6h13c2 0 5 -1 6 -3l72 -90c2 -3 1 -6 -3 -6zM82 695c0 3 2 5 5 5h10c3 0 5 -2 5 -5v-690c0 -3 -2 -5 -5 -5h-10c-3 0 -5 2 -5 5v690z" />
    <glyph glyph-name="Imacron" unicode="&#x12a;" horiz-adv-x="184" 
d="M17 814c0 3 2 5 5 5h140c3 0 5 -2 5 -5v-8c0 -3 -2 -5 -5 -5h-140c-3 0 -5 2 -5 5v8zM82 695c0 3 2 5 5 5h10c3 0 5 -2 5 -5v-690c0 -3 -2 -5 -5 -5h-10c-3 0 -5 2 -5 5v690z" />
    <glyph glyph-name="Iogonek" unicode="&#x12e;" horiz-adv-x="174" 
d="M122 -173c3 1 5 -1 5 -4v-9c0 -3 -1 -4 -4 -5c-8 -1 -18 -2 -25 -2c-48 0 -76 30 -76 68c0 40 25 85 58 125c-2 0 -3 2 -3 4v691c0 3 2 5 5 5h10c3 0 5 -2 5 -5v-691c0 -2 -1 -4 -3 -4c-34 -45 -53 -87 -53 -122c0 -33 24 -52 62 -52c6 0 13 1 19 1z" />
    <glyph glyph-name="J" unicode="J" horiz-adv-x="408" 
d="M185 -7c-93 0 -153 68 -155 160c0 3 2 5 5 5h10c3 0 5 -2 5 -5c2 -83 52 -141 135 -141c92 0 131 60 131 166v517c0 3 2 5 5 5h10c3 0 5 -2 5 -5v-517c0 -115 -47 -185 -151 -185z" />
    <glyph glyph-name="K" unicode="K" horiz-adv-x="456" 
d="M87 0c-3 0 -5 2 -5 5v690c0 3 2 5 5 5h10c3 0 5 -2 5 -5v-325h125l147 326c1 2 4 4 6 4h11c3 0 4 -3 3 -6l-147 -325c76 -11 135 -81 135 -164v-200c0 -3 -2 -5 -5 -5h-10c-3 0 -5 2 -5 5v200c0 81 -61 146 -135 146h-125v-346c0 -3 -2 -5 -5 -5h-10z" />
    <glyph glyph-name="Kcommaaccent" unicode="&#x136;" horiz-adv-x="456" 
d="M87 0c-3 0 -5 2 -5 5v690c0 3 2 5 5 5h10c3 0 5 -2 5 -5v-325h125l147 326c1 2 4 4 6 4h11c3 0 4 -3 3 -6l-147 -325c76 -11 135 -81 135 -164v-200c0 -3 -2 -5 -5 -5h-10c-3 0 -5 2 -5 5v200c0 81 -61 146 -135 146h-125v-346c0 -3 -2 -5 -5 -5h-10zM235 -71
c0 4 2 5 5 5h19c3 0 5 -1 4 -5l-21 -134c0 -3 -3 -5 -6 -5h-5c-3 0 -5 1 -5 5z" />
    <glyph glyph-name="L" unicode="L" horiz-adv-x="337" 
d="M227 19h75c3 0 5 -2 5 -5v-9c0 -3 -2 -5 -5 -5h-75c-90 0 -155 74 -155 165v530c0 3 2 5 5 5h10c3 0 5 -2 5 -5v-530c0 -80 55 -146 135 -146z" />
    <glyph glyph-name="Lacute" unicode="&#x139;" horiz-adv-x="337" 
d="M63 769c-4 0 -5 3 -3 6l72 90c1 2 4 3 6 3h13c4 0 6 -2 3 -6l-79 -90c-1 -2 -4 -3 -6 -3h-6zM227 19h75c3 0 5 -2 5 -5v-9c0 -3 -2 -5 -5 -5h-75c-90 0 -155 74 -155 165v530c0 3 2 5 5 5h10c3 0 5 -2 5 -5v-530c0 -80 55 -146 135 -146z" />
    <glyph glyph-name="Lcaron" unicode="&#x13d;" horiz-adv-x="330" 
d="M226 0c-90 0 -155 74 -155 165v530c0 3 2 5 5 5h10c3 0 5 -2 5 -5v-530c0 -80 55 -146 135 -146h75c3 0 5 -2 5 -5v-9c0 -3 -2 -5 -5 -5h-75zM210 575c-3 0 -5 1 -5 5l9 115c0 4 2 5 5 5h18c3 0 5 -1 4 -5l-20 -115c0 -3 -3 -5 -6 -5h-5z" />
    <glyph glyph-name="Lcommaaccent" unicode="&#x13b;" horiz-adv-x="337" 
d="M227 19h75c3 0 5 -2 5 -5v-9c0 -3 -2 -5 -5 -5h-75c-90 0 -155 74 -155 165v530c0 3 2 5 5 5h10c3 0 5 -2 5 -5v-530c0 -80 55 -146 135 -146zM167 -71c0 4 2 5 5 5h19c3 0 5 -1 4 -5l-21 -134c0 -3 -3 -5 -6 -5h-5c-3 0 -5 1 -5 5z" />
    <glyph glyph-name="Lslash" unicode="&#x141;" horiz-adv-x="398" 
d="M374 19c3 0 5 -2 5 -5v-9c0 -3 -2 -5 -5 -5h-75c-90 0 -155 74 -155 165v180l-91 -35c-3 -1 -6 1 -6 4v10c0 2 2 5 4 6l93 36v329c0 3 2 5 5 5h10c3 0 5 -2 5 -5v-322l137 53c3 1 6 -1 6 -4v-10c0 -2 -2 -5 -4 -6l-139 -53v-188c0 -80 55 -146 135 -146h75z" />
    <glyph glyph-name="M" unicode="M" horiz-adv-x="684" 
d="M471 707c87 0 141 -72 141 -165v-537c0 -3 -2 -5 -5 -5h-10c-3 0 -5 2 -5 5v537c0 84 -44 146 -121 146c-69 0 -119 -65 -119 -146v-537c0 -3 -2 -5 -5 -5h-10c-3 0 -5 2 -5 5v537c0 81 -49 146 -119 146c-76 0 -121 -62 -121 -146v-537c0 -3 -2 -5 -5 -5h-10
c-3 0 -5 2 -5 5v537c0 93 53 165 141 165c60 0 109 -43 129 -102c20 59 68 102 129 102z" />
    <glyph glyph-name="N" unicode="N" horiz-adv-x="452" 
d="M77 0c-3 0 -5 2 -5 5v527c0 106 62 175 154 175c91 0 154 -69 154 -175v-527c0 -3 -2 -5 -5 -5h-10c-3 0 -5 2 -5 5v527c0 97 -53 156 -134 156c-80 0 -134 -59 -134 -156v-527c0 -3 -2 -5 -5 -5h-10z" />
    <glyph glyph-name="Nacute" unicode="&#x143;" horiz-adv-x="452" 
d="M207 769c-4 0 -5 3 -3 6l72 90c1 2 4 3 6 3h13c4 0 6 -2 3 -6l-79 -90c-1 -2 -4 -3 -6 -3h-6zM77 0c-3 0 -5 2 -5 5v527c0 106 62 175 154 175c91 0 154 -69 154 -175v-527c0 -3 -2 -5 -5 -5h-10c-3 0 -5 2 -5 5v527c0 97 -53 156 -134 156c-80 0 -134 -59 -134 -156
v-527c0 -3 -2 -5 -5 -5h-10z" />
    <glyph glyph-name="Ncaron" unicode="&#x147;" horiz-adv-x="452" 
d="M314 862l-73 -90c-1 -2 -4 -3 -6 -3h-18c-2 0 -5 1 -6 3l-73 90c-2 3 -1 6 3 6h7c2 0 5 -1 6 -3l72 -84l72 84c1 2 4 3 6 3h7c4 0 5 -3 3 -6zM77 0c-3 0 -5 2 -5 5v527c0 106 62 175 154 175c91 0 154 -69 154 -175v-527c0 -3 -2 -5 -5 -5h-10c-3 0 -5 2 -5 5v527
c0 97 -53 156 -134 156c-80 0 -134 -59 -134 -156v-527c0 -3 -2 -5 -5 -5h-10z" />
    <glyph glyph-name="Ncommaaccent" unicode="&#x145;" horiz-adv-x="452" 
d="M77 0c-3 0 -5 2 -5 5v527c0 106 62 175 154 175c91 0 154 -69 154 -175v-527c0 -3 -2 -5 -5 -5h-10c-3 0 -5 2 -5 5v527c0 97 -53 156 -134 156c-80 0 -134 -59 -134 -156v-527c0 -3 -2 -5 -5 -5h-10zM224 -71c0 4 2 5 5 5h19c3 0 5 -1 4 -5l-21 -134c0 -3 -3 -5 -6 -5
h-5c-3 0 -5 1 -5 5z" />
    <glyph glyph-name="Eng" unicode="&#x14a;" horiz-adv-x="452" 
d="M235 -204c-3 0 -5 2 -5 5v8c0 3 2 5 5 5c86 2 125 61 125 142v576c0 97 -53 156 -134 156c-80 0 -134 -59 -134 -156v-527c0 -3 -2 -5 -5 -5h-10c-3 0 -5 2 -5 5v527c0 106 62 175 154 175c91 0 154 -69 154 -175v-576c0 -91 -47 -158 -145 -160z" />
    <glyph glyph-name="Ntilde" unicode="&#xd1;" horiz-adv-x="452" 
d="M182 824c-20 0 -34 -17 -35 -47c0 -3 -2 -5 -5 -5h-9c-3 0 -5 2 -5 5c2 39 25 65 55 65c43 0 52 -53 86 -53c20 0 34 17 35 47c0 3 2 5 5 5h9c3 0 5 -2 5 -5c-2 -40 -26 -65 -55 -65c-41 0 -51 53 -86 53zM77 0c-3 0 -5 2 -5 5v527c0 106 62 175 154 175
c91 0 154 -69 154 -175v-527c0 -3 -2 -5 -5 -5h-10c-3 0 -5 2 -5 5v527c0 97 -53 156 -134 156c-80 0 -134 -59 -134 -156v-527c0 -3 -2 -5 -5 -5h-10z" />
    <glyph glyph-name="O" unicode="O" horiz-adv-x="446" 
d="M223 -7c-98 0 -161 68 -161 184v345c0 117 63 185 161 185s161 -68 161 -185v-345c0 -116 -63 -184 -161 -184zM223 12c86 0 141 60 141 165v345c0 106 -55 166 -141 166s-141 -60 -141 -166v-345c0 -105 55 -165 141 -165z" />
    <glyph glyph-name="Oacute" unicode="&#xd3;" horiz-adv-x="446" 
d="M204 769c-4 0 -5 3 -3 6l72 90c1 2 4 3 6 3h13c4 0 6 -2 3 -6l-79 -90c-1 -2 -4 -3 -6 -3h-6zM223 -7c-98 0 -161 68 -161 184v345c0 117 63 185 161 185s161 -68 161 -185v-345c0 -116 -63 -184 -161 -184zM223 12c86 0 141 60 141 165v345c0 106 -55 166 -141 166
s-141 -60 -141 -166v-345c0 -105 55 -165 141 -165z" />
    <glyph glyph-name="Ocircumflex" unicode="&#xd4;" horiz-adv-x="446" 
d="M311 775c2 -3 1 -6 -3 -6h-7c-2 0 -5 1 -6 3l-72 84l-72 -84c-1 -2 -4 -3 -6 -3h-7c-4 0 -5 3 -3 6l73 90c1 2 4 3 6 3h18c2 0 5 -1 6 -3zM223 -7c-98 0 -161 68 -161 184v345c0 117 63 185 161 185s161 -68 161 -185v-345c0 -116 -63 -184 -161 -184zM223 12
c86 0 141 60 141 165v345c0 106 -55 166 -141 166s-141 -60 -141 -166v-345c0 -105 55 -165 141 -165z" />
    <glyph glyph-name="Odieresis" unicode="&#xd6;" horiz-adv-x="446" 
d="M175 805c-13 0 -22 9 -22 22s9 22 22 22s22 -9 22 -22s-9 -22 -22 -22zM271 805c-13 0 -22 9 -22 22s9 22 22 22s22 -9 22 -22s-9 -22 -22 -22zM223 -7c-98 0 -161 68 -161 184v345c0 117 63 185 161 185s161 -68 161 -185v-345c0 -116 -63 -184 -161 -184zM223 12
c86 0 141 60 141 165v345c0 106 -55 166 -141 166s-141 -60 -141 -166v-345c0 -105 55 -165 141 -165z" />
    <glyph glyph-name="Ograve" unicode="&#xd2;" horiz-adv-x="446" 
d="M243 769h-6c-2 0 -5 1 -6 3l-79 90c-3 4 -1 6 3 6h13c2 0 5 -1 6 -3l72 -90c2 -3 1 -6 -3 -6zM223 -7c-98 0 -161 68 -161 184v345c0 117 63 185 161 185s161 -68 161 -185v-345c0 -116 -63 -184 -161 -184zM223 12c86 0 141 60 141 165v345c0 106 -55 166 -141 166
s-141 -60 -141 -166v-345c0 -105 55 -165 141 -165z" />
    <glyph glyph-name="Ohungarumlaut" unicode="&#x150;" horiz-adv-x="446" 
d="M129 769c-4 0 -5 3 -3 6l72 90c1 2 4 3 6 3h13c4 0 6 -2 3 -6l-79 -90c-1 -2 -4 -3 -6 -3h-6zM229 769c-4 0 -5 3 -3 6l72 90c1 2 4 3 6 3h13c4 0 6 -2 3 -6l-79 -90c-1 -2 -4 -3 -6 -3h-6zM223 -7c-98 0 -161 68 -161 184v345c0 117 63 185 161 185s161 -68 161 -185
v-345c0 -116 -63 -184 -161 -184zM223 12c86 0 141 60 141 165v345c0 106 -55 166 -141 166s-141 -60 -141 -166v-345c0 -105 55 -165 141 -165z" />
    <glyph glyph-name="Omacron" unicode="&#x14c;" horiz-adv-x="446" 
d="M148 814c0 3 2 5 5 5h140c3 0 5 -2 5 -5v-8c0 -3 -2 -5 -5 -5h-140c-3 0 -5 2 -5 5v8zM223 -7c-98 0 -161 68 -161 184v345c0 117 63 185 161 185s161 -68 161 -185v-345c0 -116 -63 -184 -161 -184zM223 12c86 0 141 60 141 165v345c0 106 -55 166 -141 166
s-141 -60 -141 -166v-345c0 -105 55 -165 141 -165z" />
    <glyph glyph-name="Oslash" unicode="&#xd8;" horiz-adv-x="446" 
d="M89 -45c-3 0 -5 2 -4 6l22 79c-29 32 -45 78 -45 137v345c0 117 63 185 161 185c24 0 46 -4 66 -12l13 46c1 2 2 4 5 4h9c3 0 5 -2 4 -6l-14 -52c49 -29 78 -86 78 -165v-345c0 -116 -63 -184 -161 -184c-40 0 -75 12 -101 33l-19 -67c-1 -2 -2 -4 -5 -4h-9zM113 64
l171 612c-18 8 -38 12 -61 12c-86 0 -141 -60 -141 -166v-345c0 -47 11 -85 31 -113zM223 12c86 0 141 60 141 165v345c0 69 -23 119 -64 145l-172 -620c24 -23 56 -35 95 -35z" />
    <glyph glyph-name="Otilde" unicode="&#xd5;" horiz-adv-x="446" 
d="M179 824c-20 0 -34 -17 -35 -47c0 -3 -2 -5 -5 -5h-9c-3 0 -5 2 -5 5c2 39 25 65 55 65c43 0 52 -53 86 -53c20 0 34 17 35 47c0 3 2 5 5 5h9c3 0 5 -2 5 -5c-2 -40 -26 -65 -55 -65c-41 0 -51 53 -86 53zM223 -7c-98 0 -161 68 -161 184v345c0 117 63 185 161 185
s161 -68 161 -185v-345c0 -116 -63 -184 -161 -184zM223 12c86 0 141 60 141 165v345c0 106 -55 166 -141 166s-141 -60 -141 -166v-345c0 -105 55 -165 141 -165z" />
    <glyph glyph-name="OE" unicode="&#x152;" horiz-adv-x="609" 
d="M207 -7c-87 0 -145 66 -145 165v384c0 99 58 165 145 165c67 0 117 -40 136 -105c22 59 73 98 144 98h70c3 0 5 -2 5 -5v-9c0 -3 -2 -5 -5 -5h-70c-84 0 -135 -60 -135 -146v-169h185c3 0 5 -2 5 -5v-9c0 -3 -2 -5 -5 -5h-185v-182c0 -86 51 -146 135 -146h70
c3 0 5 -2 5 -5v-9c0 -3 -2 -5 -5 -5h-70c-71 0 -122 39 -144 98c-19 -65 -69 -105 -136 -105zM207 12c75 0 125 58 125 146v384c0 88 -50 146 -125 146s-125 -58 -125 -146v-384c0 -88 50 -146 125 -146z" />
    <glyph glyph-name="P" unicode="P" horiz-adv-x="411" 
d="M77 0c-3 0 -5 2 -5 5v537c0 95 55 165 145 165c91 0 149 -70 149 -165v-97c0 -95 -67 -165 -147 -165h-127v-275c0 -3 -2 -5 -5 -5h-10zM92 299h127c70 0 127 60 127 146v97c0 86 -48 146 -129 146c-78 0 -125 -60 -125 -146v-243z" />
    <glyph glyph-name="Thorn" unicode="&#xde;" horiz-adv-x="421" 
d="M87 0c-3 0 -5 2 -5 5v692c0 3 2 5 5 5h10c3 0 5 -2 5 -5v-145h127c80 0 147 -70 147 -165v-72c0 -95 -67 -165 -147 -165h-127v-145c0 -3 -2 -5 -5 -5h-10zM102 169h127c70 0 127 60 127 146v72c0 86 -57 146 -127 146h-127v-364z" />
    <glyph glyph-name="Q" unicode="Q" horiz-adv-x="448" 
d="M384 -1c3 -3 2 -6 0 -8l-7 -7c-2 -2 -6 -2 -8 0l-43 43c-27 -22 -62 -34 -103 -34c-98 0 -161 68 -161 184v345c0 117 63 185 161 185s161 -68 161 -185v-345c0 -57 -15 -103 -43 -135zM223 12c35 0 66 10 89 30l-67 67c-3 3 -2 6 0 8l7 7c3 3 6 2 8 0l67 -67
c24 28 37 68 37 120v345c0 106 -55 166 -141 166s-141 -60 -141 -166v-345c0 -105 55 -165 141 -165z" />
    <glyph glyph-name="R" unicode="R" horiz-adv-x="433" 
d="M77 0c-3 0 -5 2 -5 5v537c0 95 63 165 152 165c88 0 152 -70 152 -165v-71c0 -92 -64 -161 -134 -165l144 -300c1 -3 -1 -6 -4 -6h-11c-2 0 -5 2 -6 4l-144 302h-129v-301c0 -3 -2 -5 -5 -5h-10zM92 325h132c78 0 132 60 132 146v71c0 86 -54 146 -132 146
c-77 0 -132 -60 -132 -146v-217z" />
    <glyph glyph-name="Racute" unicode="&#x154;" horiz-adv-x="433" 
d="M198 769c-4 0 -5 3 -3 6l72 90c1 2 4 3 6 3h13c4 0 6 -2 3 -6l-79 -90c-1 -2 -4 -3 -6 -3h-6zM77 0c-3 0 -5 2 -5 5v537c0 95 63 165 152 165c88 0 152 -70 152 -165v-71c0 -92 -64 -161 -134 -165l144 -300c1 -3 -1 -6 -4 -6h-11c-2 0 -5 2 -6 4l-144 302h-129v-301
c0 -3 -2 -5 -5 -5h-10zM92 325h132c78 0 132 60 132 146v71c0 86 -54 146 -132 146c-77 0 -132 -60 -132 -146v-217z" />
    <glyph glyph-name="Rcaron" unicode="&#x158;" horiz-adv-x="433" 
d="M305 862l-73 -90c-1 -2 -4 -3 -6 -3h-18c-2 0 -5 1 -6 3l-73 90c-2 3 -1 6 3 6h7c2 0 5 -1 6 -3l72 -84l72 84c1 2 4 3 6 3h7c4 0 5 -3 3 -6zM77 0c-3 0 -5 2 -5 5v537c0 95 63 165 152 165c88 0 152 -70 152 -165v-71c0 -92 -64 -161 -134 -165l144 -300
c1 -3 -1 -6 -4 -6h-11c-2 0 -5 2 -6 4l-144 302h-129v-301c0 -3 -2 -5 -5 -5h-10zM92 325h132c78 0 132 60 132 146v71c0 86 -54 146 -132 146c-77 0 -132 -60 -132 -146v-217z" />
    <glyph glyph-name="Rcommaaccent" unicode="&#x156;" horiz-adv-x="433" 
d="M77 0c-3 0 -5 2 -5 5v537c0 95 63 165 152 165c88 0 152 -70 152 -165v-71c0 -92 -64 -161 -134 -165l144 -300c1 -3 -1 -6 -4 -6h-11c-2 0 -5 2 -6 4l-144 302h-129v-301c0 -3 -2 -5 -5 -5h-10zM92 325h132c78 0 132 60 132 146v71c0 86 -54 146 -132 146
c-77 0 -132 -60 -132 -146v-217zM215 -71c0 4 2 5 5 5h19c3 0 5 -1 4 -5l-21 -134c0 -3 -3 -5 -6 -5h-5c-3 0 -5 1 -5 5z" />
    <glyph glyph-name="S" unicode="S" horiz-adv-x="409" 
d="M205 -7c-95 0 -156 68 -156 160c0 3 2 5 5 5h10c3 0 5 -2 5 -5c2 -81 53 -141 136 -141c85 0 135 60 135 137c0 195 -286 208 -286 402c0 94 64 156 151 156c84 0 150 -62 150 -160c0 -3 -2 -5 -5 -5h-10c-3 0 -5 2 -5 5c-2 89 -56 141 -130 141
c-75 0 -131 -52 -131 -137c0 -179 286 -197 286 -402c0 -87 -60 -156 -155 -156z" />
    <glyph glyph-name="Sacute" unicode="&#x15a;" horiz-adv-x="409" 
d="M197 769c-4 0 -5 3 -3 6l72 90c1 2 4 3 6 3h13c4 0 6 -2 3 -6l-79 -90c-1 -2 -4 -3 -6 -3h-6zM205 -7c-95 0 -156 68 -156 160c0 3 2 5 5 5h10c3 0 5 -2 5 -5c2 -81 53 -141 136 -141c85 0 135 60 135 137c0 195 -286 208 -286 402c0 94 64 156 151 156
c84 0 150 -62 150 -160c0 -3 -2 -5 -5 -5h-10c-3 0 -5 2 -5 5c-2 89 -56 141 -130 141c-75 0 -131 -52 -131 -137c0 -179 286 -197 286 -402c0 -87 -60 -156 -155 -156z" />
    <glyph glyph-name="Scaron" unicode="&#x160;" horiz-adv-x="409" 
d="M304 862l-73 -90c-1 -2 -4 -3 -6 -3h-18c-2 0 -5 1 -6 3l-73 90c-2 3 -1 6 3 6h7c2 0 5 -1 6 -3l72 -84l72 84c1 2 4 3 6 3h7c4 0 5 -3 3 -6zM205 -7c-95 0 -156 68 -156 160c0 3 2 5 5 5h10c3 0 5 -2 5 -5c2 -81 53 -141 136 -141c85 0 135 60 135 137
c0 195 -286 208 -286 402c0 94 64 156 151 156c84 0 150 -62 150 -160c0 -3 -2 -5 -5 -5h-10c-3 0 -5 2 -5 5c-2 89 -56 141 -130 141c-75 0 -131 -52 -131 -137c0 -179 286 -197 286 -402c0 -87 -60 -156 -155 -156z" />
    <glyph glyph-name="Scedilla" unicode="&#x15e;" horiz-adv-x="393" 
d="M360 149c0 -87 -60 -156 -154 -156l-10 -54c7 2 18 3 26 3c42 0 69 -28 69 -67c0 -42 -32 -68 -79 -68c-46 0 -77 26 -80 66c0 3 2 5 5 5h8c3 0 5 -2 5 -5c3 -28 27 -47 62 -47s60 18 60 49c0 30 -22 51 -49 51c-12 0 -26 -3 -39 -7c-2 -1 -3 -1 -5 1l-1 1
c-2 2 -2 3 -2 5l13 68c-86 7 -140 72 -140 159c0 3 2 5 5 5h10c3 0 5 -2 5 -5c2 -81 53 -141 136 -141c85 0 135 60 135 137c0 195 -286 208 -286 402c0 94 64 156 151 156c84 0 150 -62 150 -160c0 -3 -2 -5 -5 -5h-10c-3 0 -5 2 -5 5c-2 89 -56 141 -130 141
c-75 0 -131 -52 -131 -137c0 -179 286 -197 286 -402z" />
    <glyph glyph-name="Scommaaccent" unicode="&#x218;" horiz-adv-x="409" 
d="M205 -7c-95 0 -156 68 -156 160c0 3 2 5 5 5h10c3 0 5 -2 5 -5c2 -81 53 -141 136 -141c85 0 135 60 135 137c0 195 -286 208 -286 402c0 94 64 156 151 156c84 0 150 -62 150 -160c0 -3 -2 -5 -5 -5h-10c-3 0 -5 2 -5 5c-2 89 -56 141 -130 141
c-75 0 -131 -52 -131 -137c0 -179 286 -197 286 -402c0 -87 -60 -156 -155 -156zM214 -71c0 4 2 5 5 5h19c3 0 5 -1 4 -5l-21 -134c0 -3 -3 -5 -6 -5h-5c-3 0 -5 1 -5 5z" />
    <glyph glyph-name="T" unicode="T" horiz-adv-x="360" 
d="M325 700c3 0 5 -2 5 -5v-9c0 -3 -2 -5 -5 -5h-135v-676c0 -3 -2 -5 -5 -5h-10c-3 0 -5 2 -5 5v676h-135c-3 0 -5 2 -5 5v9c0 3 2 5 5 5h290z" />
    <glyph glyph-name="Tbar" unicode="&#x166;" horiz-adv-x="360" 
d="M325 700c3 0 5 -2 5 -5v-9c0 -3 -2 -5 -5 -5h-135v-290h85c3 0 5 -2 5 -5v-9c0 -3 -2 -5 -5 -5h-85v-367c0 -3 -2 -5 -5 -5h-10c-3 0 -5 2 -5 5v367h-85c-3 0 -5 2 -5 5v9c0 3 2 5 5 5h85v290h-135c-3 0 -5 2 -5 5v9c0 3 2 5 5 5h290z" />
    <glyph glyph-name="Tcaron" unicode="&#x164;" horiz-adv-x="360" 
d="M268 862l-73 -90c-1 -2 -4 -3 -6 -3h-18c-2 0 -5 1 -6 3l-73 90c-2 3 -1 6 3 6h7c2 0 5 -1 6 -3l72 -84l72 84c1 2 4 3 6 3h7c4 0 5 -3 3 -6zM325 700c3 0 5 -2 5 -5v-9c0 -3 -2 -5 -5 -5h-135v-676c0 -3 -2 -5 -5 -5h-10c-3 0 -5 2 -5 5v676h-135c-3 0 -5 2 -5 5v9
c0 3 2 5 5 5h290z" />
    <glyph glyph-name="uni0162" unicode="&#x162;" horiz-adv-x="360" 
d="M325 700c3 0 5 -2 5 -5v-9c0 -3 -2 -5 -5 -5h-135v-676c0 -3 -2 -5 -5 -5h-10c-3 0 -5 2 -5 5v676h-135c-3 0 -5 2 -5 5v9c0 3 2 5 5 5h290zM178 -71c0 4 2 5 5 5h19c3 0 5 -1 4 -5l-21 -134c0 -3 -3 -5 -6 -5h-5c-3 0 -5 1 -5 5z" />
    <glyph glyph-name="uni021A" unicode="&#x21a;" horiz-adv-x="360" 
d="M325 700c3 0 5 -2 5 -5v-9c0 -3 -2 -5 -5 -5h-135v-676c0 -3 -2 -5 -5 -5h-10c-3 0 -5 2 -5 5v676h-135c-3 0 -5 2 -5 5v9c0 3 2 5 5 5h290zM178 -71c0 4 2 5 5 5h19c3 0 5 -1 4 -5l-21 -134c0 -3 -3 -5 -6 -5h-5c-3 0 -5 1 -5 5z" />
    <glyph glyph-name="U" unicode="U" horiz-adv-x="452" 
d="M77 700h10c3 0 5 -2 5 -5v-527c0 -97 54 -156 134 -156c81 0 134 59 134 156v527c0 3 2 5 5 5h10c3 0 5 -2 5 -5v-527c0 -106 -63 -175 -154 -175c-92 0 -154 69 -154 175v527c0 3 2 5 5 5z" />
    <glyph glyph-name="Uacute" unicode="&#xda;" horiz-adv-x="452" 
d="M206 769c-4 0 -5 3 -3 6l72 90c1 2 4 3 6 3h13c4 0 6 -2 3 -6l-79 -90c-1 -2 -4 -3 -6 -3h-6zM77 700h10c3 0 5 -2 5 -5v-527c0 -97 54 -156 134 -156c81 0 134 59 134 156v527c0 3 2 5 5 5h10c3 0 5 -2 5 -5v-527c0 -106 -63 -175 -154 -175c-92 0 -154 69 -154 175v527
c0 3 2 5 5 5z" />
    <glyph glyph-name="Ucircumflex" unicode="&#xdb;" horiz-adv-x="452" 
d="M313 775c2 -3 1 -6 -3 -6h-7c-2 0 -5 1 -6 3l-72 84l-72 -84c-1 -2 -4 -3 -6 -3h-7c-4 0 -5 3 -3 6l73 90c1 2 4 3 6 3h18c2 0 5 -1 6 -3zM77 700h10c3 0 5 -2 5 -5v-527c0 -97 54 -156 134 -156c81 0 134 59 134 156v527c0 3 2 5 5 5h10c3 0 5 -2 5 -5v-527
c0 -106 -63 -175 -154 -175c-92 0 -154 69 -154 175v527c0 3 2 5 5 5z" />
    <glyph glyph-name="Udieresis" unicode="&#xdc;" horiz-adv-x="452" 
d="M177 805c-13 0 -22 9 -22 22s9 22 22 22s22 -9 22 -22s-9 -22 -22 -22zM273 805c-13 0 -22 9 -22 22s9 22 22 22s22 -9 22 -22s-9 -22 -22 -22zM77 700h10c3 0 5 -2 5 -5v-527c0 -97 54 -156 134 -156c81 0 134 59 134 156v527c0 3 2 5 5 5h10c3 0 5 -2 5 -5v-527
c0 -106 -63 -175 -154 -175c-92 0 -154 69 -154 175v527c0 3 2 5 5 5z" />
    <glyph glyph-name="Ugrave" unicode="&#xd9;" horiz-adv-x="452" 
d="M245 769h-6c-2 0 -5 1 -6 3l-79 90c-3 4 -1 6 3 6h13c2 0 5 -1 6 -3l72 -90c2 -3 1 -6 -3 -6zM77 700h10c3 0 5 -2 5 -5v-527c0 -97 54 -156 134 -156c81 0 134 59 134 156v527c0 3 2 5 5 5h10c3 0 5 -2 5 -5v-527c0 -106 -63 -175 -154 -175c-92 0 -154 69 -154 175v527
c0 3 2 5 5 5z" />
    <glyph glyph-name="Uhungarumlaut" unicode="&#x170;" horiz-adv-x="452" 
d="M131 769c-4 0 -5 3 -3 6l72 90c1 2 4 3 6 3h13c4 0 6 -2 3 -6l-79 -90c-1 -2 -4 -3 -6 -3h-6zM231 769c-4 0 -5 3 -3 6l72 90c1 2 4 3 6 3h13c4 0 6 -2 3 -6l-79 -90c-1 -2 -4 -3 -6 -3h-6zM77 700h10c3 0 5 -2 5 -5v-527c0 -97 54 -156 134 -156c81 0 134 59 134 156
v527c0 3 2 5 5 5h10c3 0 5 -2 5 -5v-527c0 -106 -63 -175 -154 -175c-92 0 -154 69 -154 175v527c0 3 2 5 5 5z" />
    <glyph glyph-name="Umacron" unicode="&#x16a;" horiz-adv-x="452" 
d="M150 814c0 3 2 5 5 5h140c3 0 5 -2 5 -5v-8c0 -3 -2 -5 -5 -5h-140c-3 0 -5 2 -5 5v8zM77 700h10c3 0 5 -2 5 -5v-527c0 -97 54 -156 134 -156c81 0 134 59 134 156v527c0 3 2 5 5 5h10c3 0 5 -2 5 -5v-527c0 -106 -63 -175 -154 -175c-92 0 -154 69 -154 175v527
c0 3 2 5 5 5z" />
    <glyph glyph-name="Uogonek" unicode="&#x172;" horiz-adv-x="444" 
d="M352 695c0 3 2 5 5 5h10c3 0 5 -2 5 -5v-535c0 -66 -32 -111 -73 -146c-61 -52 -85 -97 -85 -136c0 -38 32 -57 79 -51c3 1 5 -1 5 -4v-8c0 -3 -2 -5 -5 -6c-61 -10 -99 23 -99 66c0 40 29 83 69 123c-13 -3 -27 -5 -41 -5c-88 0 -150 69 -150 167v535c0 3 2 5 5 5h10
c3 0 5 -2 5 -5v-535c0 -89 54 -148 130 -148c77 0 130 59 130 148v535z" />
    <glyph glyph-name="Uring" unicode="&#x16e;" horiz-adv-x="452" 
d="M162 821c0 36 25 60 63 60s63 -24 63 -60c0 -37 -25 -62 -63 -62s-63 25 -63 62zM181 820c0 -28 16 -44 44 -44s44 16 44 44s-16 44 -44 44s-44 -16 -44 -44zM77 700h10c3 0 5 -2 5 -5v-527c0 -97 54 -156 134 -156c81 0 134 59 134 156v527c0 3 2 5 5 5h10
c3 0 5 -2 5 -5v-527c0 -106 -63 -175 -154 -175c-92 0 -154 69 -154 175v527c0 3 2 5 5 5z" />
    <glyph glyph-name="V" unicode="V" horiz-adv-x="400" 
d="M365 700c3 0 6 -2 5 -6l-153 -687c-1 -6 -5 -9 -11 -9h-12c-6 0 -10 3 -11 9l-153 687c-1 4 2 6 5 6h9c3 0 5 -1 6 -4l150 -675l150 675c1 3 3 4 6 4h9z" />
    <glyph glyph-name="W" unicode="W" horiz-adv-x="684" 
d="M607 700c3 0 5 -2 5 -5v-537c0 -93 -54 -165 -141 -165c-61 0 -109 43 -129 102c-20 -59 -69 -102 -129 -102c-88 0 -141 72 -141 165v537c0 3 2 5 5 5h10c3 0 5 -2 5 -5v-537c0 -84 45 -146 121 -146c70 0 119 65 119 146v537c0 3 2 5 5 5h10c3 0 5 -2 5 -5v-537
c0 -81 50 -146 119 -146c77 0 121 62 121 146v537c0 3 2 5 5 5h10z" />
    <glyph glyph-name="Wacute" unicode="&#x1e82;" horiz-adv-x="684" 
d="M323 769c-4 0 -5 3 -3 6l72 90c1 2 4 3 6 3h13c4 0 6 -2 3 -6l-79 -90c-1 -2 -4 -3 -6 -3h-6zM607 700c3 0 5 -2 5 -5v-537c0 -93 -54 -165 -141 -165c-61 0 -109 43 -129 102c-20 -59 -69 -102 -129 -102c-88 0 -141 72 -141 165v537c0 3 2 5 5 5h10c3 0 5 -2 5 -5v-537
c0 -84 45 -146 121 -146c70 0 119 65 119 146v537c0 3 2 5 5 5h10c3 0 5 -2 5 -5v-537c0 -81 50 -146 119 -146c77 0 121 62 121 146v537c0 3 2 5 5 5h10z" />
    <glyph glyph-name="Wcircumflex" unicode="&#x174;" horiz-adv-x="684" 
d="M257 769c-4 0 -5 3 -3 6l73 90c1 2 4 3 6 3h18c2 0 5 -1 6 -3l73 -90c2 -3 1 -6 -3 -6h-7c-2 0 -5 1 -6 3l-72 84l-72 -84c-1 -2 -4 -3 -6 -3h-7zM607 700c3 0 5 -2 5 -5v-537c0 -93 -54 -165 -141 -165c-61 0 -109 43 -129 102c-20 -59 -69 -102 -129 -102
c-88 0 -141 72 -141 165v537c0 3 2 5 5 5h10c3 0 5 -2 5 -5v-537c0 -84 45 -146 121 -146c70 0 119 65 119 146v537c0 3 2 5 5 5h10c3 0 5 -2 5 -5v-537c0 -81 50 -146 119 -146c77 0 121 62 121 146v537c0 3 2 5 5 5h10z" />
    <glyph glyph-name="Wdieresis" unicode="&#x1e84;" horiz-adv-x="684" 
d="M294 805c-13 0 -22 9 -22 22s9 22 22 22s22 -9 22 -22s-9 -22 -22 -22zM390 805c-13 0 -22 9 -22 22s9 22 22 22s22 -9 22 -22s-9 -22 -22 -22zM607 700c3 0 5 -2 5 -5v-537c0 -93 -54 -165 -141 -165c-61 0 -109 43 -129 102c-20 -59 -69 -102 -129 -102
c-88 0 -141 72 -141 165v537c0 3 2 5 5 5h10c3 0 5 -2 5 -5v-537c0 -84 45 -146 121 -146c70 0 119 65 119 146v537c0 3 2 5 5 5h10c3 0 5 -2 5 -5v-537c0 -81 50 -146 119 -146c77 0 121 62 121 146v537c0 3 2 5 5 5h10z" />
    <glyph glyph-name="Wgrave" unicode="&#x1e80;" horiz-adv-x="684" 
d="M350 772l-79 90c-3 4 -1 6 3 6h13c2 0 5 -1 6 -3l72 -90c2 -3 1 -6 -3 -6h-6c-2 0 -5 1 -6 3zM607 700c3 0 5 -2 5 -5v-537c0 -93 -54 -165 -141 -165c-61 0 -109 43 -129 102c-20 -59 -69 -102 -129 -102c-88 0 -141 72 -141 165v537c0 3 2 5 5 5h10c3 0 5 -2 5 -5v-537
c0 -84 45 -146 121 -146c70 0 119 65 119 146v537c0 3 2 5 5 5h10c3 0 5 -2 5 -5v-537c0 -81 50 -146 119 -146c77 0 121 62 121 146v537c0 3 2 5 5 5h10z" />
    <glyph glyph-name="X" unicode="X" horiz-adv-x="424" 
d="M362 502c0 -67 -42 -125 -99 -147c57 -22 99 -81 99 -154v-196c0 -3 -2 -5 -5 -5h-10c-3 0 -5 2 -5 5v196c0 85 -58 145 -130 145c-71 0 -130 -60 -130 -145v-196c0 -3 -2 -5 -5 -5h-10c-3 0 -5 2 -5 5v196c0 73 42 132 98 154c-57 22 -98 80 -98 147v193c0 3 2 5 5 5h10
c3 0 5 -2 5 -5v-193c0 -77 59 -137 130 -137c72 0 130 60 130 137v193c0 3 2 5 5 5h10c3 0 5 -2 5 -5v-193z" />
    <glyph glyph-name="Y" unicode="Y" horiz-adv-x="414" 
d="M202 0c-3 0 -5 2 -5 5v224c-78 6 -140 73 -140 165v301c0 3 2 5 5 5h10c3 0 5 -2 5 -5v-301c0 -87 59 -146 130 -146c72 0 130 59 130 146v301c0 3 2 5 5 5h10c3 0 5 -2 5 -5v-301c0 -92 -63 -159 -140 -165v-224c0 -3 -2 -5 -5 -5h-10z" />
    <glyph glyph-name="Yacute" unicode="&#xdd;" horiz-adv-x="414" 
d="M188 769c-4 0 -5 3 -3 6l72 90c1 2 4 3 6 3h13c4 0 6 -2 3 -6l-79 -90c-1 -2 -4 -3 -6 -3h-6zM202 0c-3 0 -5 2 -5 5v224c-78 6 -140 73 -140 165v301c0 3 2 5 5 5h10c3 0 5 -2 5 -5v-301c0 -87 59 -146 130 -146c72 0 130 59 130 146v301c0 3 2 5 5 5h10c3 0 5 -2 5 -5
v-301c0 -92 -63 -159 -140 -165v-224c0 -3 -2 -5 -5 -5h-10z" />
    <glyph glyph-name="Ycircumflex" unicode="&#x176;" horiz-adv-x="414" 
d="M295 775c2 -3 1 -6 -3 -6h-7c-2 0 -5 1 -6 3l-72 84l-72 -84c-1 -2 -4 -3 -6 -3h-7c-4 0 -5 3 -3 6l73 90c1 2 4 3 6 3h18c2 0 5 -1 6 -3zM202 0c-3 0 -5 2 -5 5v224c-78 6 -140 73 -140 165v301c0 3 2 5 5 5h10c3 0 5 -2 5 -5v-301c0 -87 59 -146 130 -146
c72 0 130 59 130 146v301c0 3 2 5 5 5h10c3 0 5 -2 5 -5v-301c0 -92 -63 -159 -140 -165v-224c0 -3 -2 -5 -5 -5h-10z" />
    <glyph glyph-name="Ydieresis" unicode="&#x178;" horiz-adv-x="414" 
d="M159 805c-13 0 -22 9 -22 22s9 22 22 22s22 -9 22 -22s-9 -22 -22 -22zM255 805c-13 0 -22 9 -22 22s9 22 22 22s22 -9 22 -22s-9 -22 -22 -22zM202 0c-3 0 -5 2 -5 5v224c-78 6 -140 73 -140 165v301c0 3 2 5 5 5h10c3 0 5 -2 5 -5v-301c0 -87 59 -146 130 -146
c72 0 130 59 130 146v301c0 3 2 5 5 5h10c3 0 5 -2 5 -5v-301c0 -92 -63 -159 -140 -165v-224c0 -3 -2 -5 -5 -5h-10z" />
    <glyph glyph-name="Ygrave" unicode="&#x1ef2;" horiz-adv-x="414" 
d="M227 769h-6c-2 0 -5 1 -6 3l-79 90c-3 4 -1 6 3 6h13c2 0 5 -1 6 -3l72 -90c2 -3 1 -6 -3 -6zM202 0c-3 0 -5 2 -5 5v224c-78 6 -140 73 -140 165v301c0 3 2 5 5 5h10c3 0 5 -2 5 -5v-301c0 -87 59 -146 130 -146c72 0 130 59 130 146v301c0 3 2 5 5 5h10c3 0 5 -2 5 -5
v-301c0 -92 -63 -159 -140 -165v-224c0 -3 -2 -5 -5 -5h-10z" />
    <glyph glyph-name="Z" unicode="Z" horiz-adv-x="411" 
d="M70 19h286c3 0 5 -2 5 -5v-9c0 -3 -2 -5 -5 -5h-294c-7 0 -12 5 -12 12v3c0 5 0 9 3 15l289 651h-276c-3 0 -5 2 -5 5v9c0 3 2 5 5 5h284c7 0 12 -4 12 -11v-4c0 -5 0 -9 -3 -15z" />
    <glyph glyph-name="Zacute" unicode="&#x179;" horiz-adv-x="411" 
d="M187 769c-4 0 -5 3 -3 6l72 90c1 2 4 3 6 3h13c4 0 6 -2 3 -6l-79 -90c-1 -2 -4 -3 -6 -3h-6zM70 19h286c3 0 5 -2 5 -5v-9c0 -3 -2 -5 -5 -5h-294c-7 0 -12 5 -12 12v3c0 5 0 9 3 15l289 651h-276c-3 0 -5 2 -5 5v9c0 3 2 5 5 5h284c7 0 12 -4 12 -11v-4
c0 -5 0 -9 -3 -15z" />
    <glyph glyph-name="Zcaron" unicode="&#x17d;" horiz-adv-x="411" 
d="M294 862l-73 -90c-1 -2 -4 -3 -6 -3h-18c-2 0 -5 1 -6 3l-73 90c-2 3 -1 6 3 6h7c2 0 5 -1 6 -3l72 -84l72 84c1 2 4 3 6 3h7c4 0 5 -3 3 -6zM70 19h286c3 0 5 -2 5 -5v-9c0 -3 -2 -5 -5 -5h-294c-7 0 -12 5 -12 12v3c0 5 0 9 3 15l289 651h-276c-3 0 -5 2 -5 5v9
c0 3 2 5 5 5h284c7 0 12 -4 12 -11v-4c0 -5 0 -9 -3 -15z" />
    <glyph glyph-name="Zdotaccent" unicode="&#x17b;" horiz-adv-x="411" 
d="M206 785c-13 0 -22 9 -22 22s9 22 22 22s22 -9 22 -22s-9 -22 -22 -22zM70 19h286c3 0 5 -2 5 -5v-9c0 -3 -2 -5 -5 -5h-294c-7 0 -12 5 -12 12v3c0 5 0 9 3 15l289 651h-276c-3 0 -5 2 -5 5v9c0 3 2 5 5 5h284c7 0 12 -4 12 -11v-4c0 -5 0 -9 -3 -15z" />
    <glyph glyph-name="uni0162.ss01" horiz-adv-x="360" 
d="M325 700c3 0 5 -2 5 -5v-9c0 -3 -2 -5 -5 -5h-135v-676c0 -3 -2 -5 -2 -5l-10 -61c7 2 18 3 26 3c42 0 69 -28 69 -67c0 -42 -32 -68 -79 -68c-46 0 -77 26 -80 66c0 3 2 5 5 5h8c3 0 5 -2 5 -5c3 -28 27 -47 62 -47s60 18 60 49c0 30 -22 51 -49 51c-12 0 -26 -3 -39 -7
c-2 -1 -3 -1 -5 1l-1 1c-2 2 -2 3 -2 5l14 74s-2 2 -2 5v676h-135c-3 0 -5 2 -5 5v9c0 3 2 5 5 5h290z" />
    <glyph glyph-name="a" unicode="a" horiz-adv-x="392" 
d="M200 -7c-95 0 -149 56 -149 155c0 87 54 140 158 140h106v68c0 84 -44 133 -115 133c-75 0 -118 -47 -122 -109c0 -3 -2 -5 -5 -5h-9c-3 0 -5 2 -5 5c4 73 54 127 141 127c83 0 134 -56 134 -151v-208c0 -95 -48 -155 -134 -155zM200 11c74 0 115 53 115 137v122h-106
c-92 0 -139 -46 -139 -122c0 -87 47 -137 130 -137z" />
    <glyph glyph-name="aacute" unicode="&#xe1;" horiz-adv-x="392" 
d="M255 666c4 0 5 -3 3 -6l-68 -98c-1 -2 -4 -3 -6 -3h-7c-4 0 -5 2 -3 6l63 98c1 2 4 3 6 3h12zM200 -7c-95 0 -149 56 -149 155c0 87 54 140 158 140h106v68c0 84 -44 133 -115 133c-75 0 -118 -47 -122 -109c0 -3 -2 -5 -5 -5h-9c-3 0 -5 2 -5 5c4 73 54 127 141 127
c83 0 134 -56 134 -151v-208c0 -95 -48 -155 -134 -155zM200 11c74 0 115 53 115 137v122h-106c-92 0 -139 -46 -139 -122c0 -87 47 -137 130 -137z" />
    <glyph glyph-name="abreve" unicode="&#x103;" horiz-adv-x="392" 
d="M197 563c-59 0 -99 40 -101 99c0 3 2 5 5 5h9c3 0 5 -2 5 -5c2 -52 32 -82 82 -82s80 30 82 82c0 3 2 5 5 5h9c3 0 5 -2 5 -5c-2 -59 -42 -99 -101 -99zM200 -7c-95 0 -149 56 -149 155c0 87 54 140 158 140h106v68c0 84 -44 133 -115 133c-75 0 -118 -47 -122 -109
c0 -3 -2 -5 -5 -5h-9c-3 0 -5 2 -5 5c4 73 54 127 141 127c83 0 134 -56 134 -151v-208c0 -95 -48 -155 -134 -155zM200 11c74 0 115 53 115 137v122h-106c-92 0 -139 -46 -139 -122c0 -87 47 -137 130 -137z" />
    <glyph glyph-name="acircumflex" unicode="&#xe2;" horiz-adv-x="392" 
d="M112 559c-4 0 -5 3 -3 6l74 98c1 2 4 3 6 3h16c2 0 5 -1 6 -3l74 -98c2 -3 1 -6 -3 -6h-8c-2 0 -5 1 -6 3l-71 90l-71 -90c-1 -2 -4 -3 -6 -3h-8zM200 -7c-95 0 -149 56 -149 155c0 87 54 140 158 140h106v68c0 84 -44 133 -115 133c-75 0 -118 -47 -122 -109
c0 -3 -2 -5 -5 -5h-9c-3 0 -5 2 -5 5c4 73 54 127 141 127c83 0 134 -56 134 -151v-208c0 -95 -48 -155 -134 -155zM200 11c74 0 115 53 115 137v122h-106c-92 0 -139 -46 -139 -122c0 -87 47 -137 130 -137z" />
    <glyph glyph-name="adieresis" unicode="&#xe4;" horiz-adv-x="392" 
d="M149 585c-13 0 -22 9 -22 22s9 22 22 22s22 -9 22 -22s-9 -22 -22 -22zM245 585c-13 0 -22 9 -22 22s9 22 22 22s22 -9 22 -22s-9 -22 -22 -22zM200 -7c-95 0 -149 56 -149 155c0 87 54 140 158 140h106v68c0 84 -44 133 -115 133c-75 0 -118 -47 -122 -109
c0 -3 -2 -5 -5 -5h-9c-3 0 -5 2 -5 5c4 73 54 127 141 127c83 0 134 -56 134 -151v-208c0 -95 -48 -155 -134 -155zM200 11c74 0 115 53 115 137v122h-106c-92 0 -139 -46 -139 -122c0 -87 47 -137 130 -137z" />
    <glyph glyph-name="agrave" unicode="&#xe0;" horiz-adv-x="392" 
d="M131 666h12c2 0 5 -1 6 -3l63 -98c2 -4 1 -6 -3 -6h-7c-2 0 -5 1 -6 3l-68 98c-2 3 -1 6 3 6zM200 -7c-95 0 -149 56 -149 155c0 87 54 140 158 140h106v68c0 84 -44 133 -115 133c-75 0 -118 -47 -122 -109c0 -3 -2 -5 -5 -5h-9c-3 0 -5 2 -5 5c4 73 54 127 141 127
c83 0 134 -56 134 -151v-208c0 -95 -48 -155 -134 -155zM200 11c74 0 115 53 115 137v122h-106c-92 0 -139 -46 -139 -122c0 -87 47 -137 130 -137z" />
    <glyph glyph-name="amacron" unicode="&#x101;" horiz-adv-x="392" 
d="M122 612c0 3 2 5 5 5h140c3 0 5 -2 5 -5v-8c0 -3 -2 -5 -5 -5h-140c-3 0 -5 2 -5 5v8zM200 -7c-95 0 -149 56 -149 155c0 87 54 140 158 140h106v68c0 84 -44 133 -115 133c-75 0 -118 -47 -122 -109c0 -3 -2 -5 -5 -5h-9c-3 0 -5 2 -5 5c4 73 54 127 141 127
c83 0 134 -56 134 -151v-208c0 -95 -48 -155 -134 -155zM200 11c74 0 115 53 115 137v122h-106c-92 0 -139 -46 -139 -122c0 -87 47 -137 130 -137z" />
    <glyph glyph-name="aogonek" unicode="&#x105;" horiz-adv-x="389" 
d="M280 -191c-61 -10 -99 23 -99 66c0 39 28 81 66 120c-15 -2 -30 -2 -46 -2c-87 0 -150 66 -150 147c0 87 57 148 161 148h100v68c0 74 -42 133 -117 133c-72 0 -115 -55 -118 -109c0 -3 -2 -5 -5 -5h-9c-3 0 -5 2 -5 5c3 64 54 127 137 127c87 0 136 -67 136 -151v-256
c0 -43 -17 -67 -50 -93c-33 -23 -81 -92 -81 -129c0 -38 32 -57 80 -51c3 1 5 -1 5 -4v-8c0 -3 -2 -5 -5 -6zM201 11c81 0 111 35 111 89v170h-100c-97 0 -142 -53 -142 -130c0 -71 54 -129 131 -129z" />
    <glyph glyph-name="aring" unicode="&#xe5;" horiz-adv-x="392" 
d="M134 614c0 36 25 60 63 60s63 -24 63 -60c0 -37 -25 -62 -63 -62s-63 25 -63 62zM153 613c0 -28 16 -44 44 -44s44 16 44 44s-16 44 -44 44s-44 -16 -44 -44zM200 -7c-95 0 -149 56 -149 155c0 87 54 140 158 140h106v68c0 84 -44 133 -115 133c-75 0 -118 -47 -122 -109
c0 -3 -2 -5 -5 -5h-9c-3 0 -5 2 -5 5c4 73 54 127 141 127c83 0 134 -56 134 -151v-208c0 -95 -48 -155 -134 -155zM200 11c74 0 115 53 115 137v122h-106c-92 0 -139 -46 -139 -122c0 -87 47 -137 130 -137z" />
    <glyph glyph-name="atilde" unicode="&#xe3;" horiz-adv-x="392" 
d="M153 634c-20 0 -34 -17 -35 -47c0 -3 -2 -5 -5 -5h-9c-3 0 -5 2 -5 5c2 39 25 65 55 65c43 0 52 -53 86 -53c20 0 34 17 35 47c0 3 2 5 5 5h9c3 0 5 -2 5 -5c-2 -40 -26 -65 -55 -65c-41 0 -51 53 -86 53zM200 -7c-95 0 -149 56 -149 155c0 87 54 140 158 140h106v68
c0 84 -44 133 -115 133c-75 0 -118 -47 -122 -109c0 -3 -2 -5 -5 -5h-9c-3 0 -5 2 -5 5c4 73 54 127 141 127c83 0 134 -56 134 -151v-208c0 -95 -48 -155 -134 -155zM200 11c74 0 115 53 115 137v122h-106c-92 0 -139 -46 -139 -122c0 -87 47 -137 130 -137z" />
    <glyph glyph-name="ae" unicode="&#xe6;" horiz-adv-x="643" 
d="M197 -7c-93 0 -146 56 -146 144c0 85 52 131 151 131h110v88c0 84 -44 133 -118 133c-70 0 -113 -40 -117 -109c0 -3 -2 -5 -5 -5h-9c-3 0 -5 2 -5 5c4 80 54 127 136 127c65 0 110 -32 128 -89c20 54 67 89 130 89c82 0 140 -63 140 -140c0 -67 -52 -117 -161 -117h-100
v-107c0 -74 37 -132 117 -132c81 0 119 55 121 124c0 3 2 5 5 5h9c3 0 5 -2 5 -4c-2 -79 -48 -143 -140 -143c-68 0 -109 36 -127 88c-18 -55 -61 -88 -124 -88zM331 268h100c100 0 142 42 142 99c0 67 -49 122 -121 122c-75 0 -121 -56 -121 -133v-88zM197 11
c74 0 115 53 115 137v102h-110c-87 0 -132 -39 -132 -113c0 -76 46 -126 127 -126z" />
    <glyph glyph-name="b" unicode="b" horiz-adv-x="407" 
d="M207 507c79 0 142 -67 142 -150v-214c0 -83 -63 -150 -142 -150s-142 67 -142 150v552c0 3 2 5 5 5h9c3 0 5 -2 5 -5v-271c21 50 71 83 123 83zM330 143v214c0 73 -55 132 -123 132s-123 -59 -123 -132v-214c0 -73 55 -132 123 -132s123 59 123 132z" />
    <glyph glyph-name="c" unicode="c" horiz-adv-x="390" 
d="M201 -7c-86 0 -143 61 -143 152v203c0 95 56 159 140 159c80 0 136 -51 139 -127c0 -3 -2 -5 -5 -5h-9c-3 0 -5 2 -5 5c-3 65 -51 109 -120 109c-73 0 -121 -56 -121 -141v-203c0 -80 50 -134 124 -134c70 0 119 50 122 124c0 3 2 5 5 5h9c3 0 5 -2 5 -5
c-3 -85 -60 -142 -141 -142z" />
    <glyph glyph-name="cacute" unicode="&#x107;" horiz-adv-x="390" 
d="M257 666c4 0 5 -3 3 -6l-68 -98c-1 -2 -4 -3 -6 -3h-7c-4 0 -5 2 -3 6l63 98c1 2 4 3 6 3h12zM201 -7c-86 0 -143 61 -143 152v203c0 95 56 159 140 159c80 0 136 -51 139 -127c0 -3 -2 -5 -5 -5h-9c-3 0 -5 2 -5 5c-3 65 -51 109 -120 109c-73 0 -121 -56 -121 -141
v-203c0 -80 50 -134 124 -134c70 0 119 50 122 124c0 3 2 5 5 5h9c3 0 5 -2 5 -5c-3 -85 -60 -142 -141 -142z" />
    <glyph glyph-name="ccaron" unicode="&#x10d;" horiz-adv-x="390" 
d="M114 666h8c2 0 5 -1 6 -3l71 -90l71 90c1 2 4 3 6 3h8c4 0 5 -3 3 -6l-74 -98c-1 -2 -4 -3 -6 -3h-16c-2 0 -5 1 -6 3l-74 98c-2 3 -1 6 3 6zM201 -7c-86 0 -143 61 -143 152v203c0 95 56 159 140 159c80 0 136 -51 139 -127c0 -3 -2 -5 -5 -5h-9c-3 0 -5 2 -5 5
c-3 65 -51 109 -120 109c-73 0 -121 -56 -121 -141v-203c0 -80 50 -134 124 -134c70 0 119 50 122 124c0 3 2 5 5 5h9c3 0 5 -2 5 -5c-3 -85 -60 -142 -141 -142z" />
    <glyph glyph-name="ccedilla" unicode="&#xe7;" horiz-adv-x="390" 
d="M342 135c-3 -82 -55 -137 -131 -142l-10 -54c7 2 18 3 26 3c42 0 69 -28 69 -67c0 -42 -32 -68 -79 -68c-46 0 -77 26 -80 66c0 3 2 5 5 5h8c3 0 5 -2 5 -5c3 -28 27 -47 62 -47s60 18 60 49c0 30 -22 51 -49 51c-12 0 -26 -3 -39 -7c-2 -1 -3 -1 -5 1l-1 1
c-2 2 -2 3 -2 5l13 67c-82 4 -136 64 -136 152v203c0 95 56 159 140 159c80 0 136 -51 139 -127c0 -3 -2 -5 -5 -5h-9c-3 0 -5 2 -5 5c-3 65 -51 109 -120 109c-73 0 -121 -56 -121 -141v-203c0 -80 50 -134 124 -134c70 0 119 50 122 124c0 3 2 5 5 5h9c3 0 5 -2 5 -5z" />
    <glyph glyph-name="cdotaccent" unicode="&#x10b;" horiz-adv-x="390" 
d="M199 585c-13 0 -22 9 -22 22s9 22 22 22s22 -9 22 -22s-9 -22 -22 -22zM201 -7c-86 0 -143 61 -143 152v203c0 95 56 159 140 159c80 0 136 -51 139 -127c0 -3 -2 -5 -5 -5h-9c-3 0 -5 2 -5 5c-3 65 -51 109 -120 109c-73 0 -121 -56 -121 -141v-203
c0 -80 50 -134 124 -134c70 0 119 50 122 124c0 3 2 5 5 5h9c3 0 5 -2 5 -5c-3 -85 -60 -142 -141 -142z" />
    <glyph glyph-name="d" unicode="d" horiz-adv-x="407" 
d="M337 700c3 0 5 -2 5 -5v-552c0 -83 -63 -150 -142 -150s-142 67 -142 150v214c0 83 63 150 142 150c52 0 102 -33 123 -83v271c0 3 2 5 5 5h9zM323 143v214c0 73 -55 132 -123 132s-123 -59 -123 -132v-214c0 -73 55 -132 123 -132s123 59 123 132z" />
    <glyph glyph-name="eth" unicode="&#xf0;" horiz-adv-x="424" 
d="M302 653c33 -37 48 -96 48 -181v-329c0 -83 -65 -150 -146 -150s-146 67 -146 150v214c0 83 65 150 146 150c54 0 101 -37 127 -81v46c0 82 -14 137 -45 171l-120 -73c-3 -2 -6 -1 -6 3v10c0 2 0 4 3 6l109 67c-29 23 -71 33 -128 33h-25c-3 0 -5 2 -5 5v8c0 3 2 5 5 5
h25c65 0 112 -12 145 -41l54 33c3 2 6 1 6 -3v-10c0 -2 0 -4 -3 -6zM331 143v214c0 73 -57 132 -127 132s-127 -59 -127 -132v-214c0 -73 57 -132 127 -132s127 59 127 132z" />
    <glyph glyph-name="dcaron" unicode="&#x10f;" horiz-adv-x="449" 
d="M337 700c3 0 5 -2 5 -5v-552c0 -83 -63 -150 -142 -150s-142 67 -142 150v214c0 83 63 150 142 150c52 0 102 -33 123 -83v271c0 3 2 5 5 5h9zM430 700c3 0 5 -1 4 -5l-21 -134c0 -3 -3 -5 -6 -5h-5c-3 0 -5 1 -5 5l9 134c0 4 2 5 5 5h19zM323 143v214
c0 73 -55 132 -123 132s-123 -59 -123 -132v-214c0 -73 55 -132 123 -132s123 59 123 132z" />
    <glyph glyph-name="dcroat" unicode="&#x111;" horiz-adv-x="415" 
d="M395 627c3 0 5 -2 5 -5v-9c0 -3 -2 -5 -5 -5h-53v-465c0 -83 -63 -150 -142 -150s-142 67 -142 150v214c0 83 63 150 142 150c52 0 102 -33 123 -83v184h-118c-3 0 -5 2 -5 5v9c0 3 2 5 5 5h118v68c0 3 2 5 5 5h9c3 0 5 -2 5 -5v-68h53zM323 143v214
c0 73 -55 132 -123 132s-123 -59 -123 -132v-214c0 -73 55 -132 123 -132s123 59 123 132z" />
    <glyph glyph-name="e" unicode="e" horiz-adv-x="389" 
d="M194 -7c-92 0 -136 66 -136 150v213c0 87 55 151 140 151c82 0 140 -66 140 -147s-52 -141 -161 -141h-100v-76c0 -74 37 -132 117 -132c81 0 119 55 121 124c0 3 2 5 5 5h9c3 0 5 -2 5 -4c-2 -79 -48 -143 -140 -143zM77 237h100c100 0 142 52 142 123s-49 129 -121 129
c-75 0 -121 -56 -121 -133v-119z" />
    <glyph glyph-name="eacute" unicode="&#xe9;" horiz-adv-x="389" 
d="M254 666c4 0 5 -3 3 -6l-68 -98c-1 -2 -4 -3 -6 -3h-7c-4 0 -5 2 -3 6l63 98c1 2 4 3 6 3h12zM194 -7c-92 0 -136 66 -136 150v213c0 87 55 151 140 151c82 0 140 -66 140 -147s-52 -141 -161 -141h-100v-76c0 -74 37 -132 117 -132c81 0 119 55 121 124c0 3 2 5 5 5h9
c3 0 5 -2 5 -4c-2 -79 -48 -143 -140 -143zM77 237h100c100 0 142 52 142 123s-49 129 -121 129c-75 0 -121 -56 -121 -133v-119z" />
    <glyph glyph-name="ecaron" unicode="&#x11b;" horiz-adv-x="389" 
d="M111 666h8c2 0 5 -1 6 -3l71 -90l71 90c1 2 4 3 6 3h8c4 0 5 -3 3 -6l-74 -98c-1 -2 -4 -3 -6 -3h-16c-2 0 -5 1 -6 3l-74 98c-2 3 -1 6 3 6zM194 -7c-92 0 -136 66 -136 150v213c0 87 55 151 140 151c82 0 140 -66 140 -147s-52 -141 -161 -141h-100v-76
c0 -74 37 -132 117 -132c81 0 119 55 121 124c0 3 2 5 5 5h9c3 0 5 -2 5 -4c-2 -79 -48 -143 -140 -143zM77 237h100c100 0 142 52 142 123s-49 129 -121 129c-75 0 -121 -56 -121 -133v-119z" />
    <glyph glyph-name="ecircumflex" unicode="&#xea;" horiz-adv-x="389" 
d="M111 559c-4 0 -5 3 -3 6l74 98c1 2 4 3 6 3h16c2 0 5 -1 6 -3l74 -98c2 -3 1 -6 -3 -6h-8c-2 0 -5 1 -6 3l-71 90l-71 -90c-1 -2 -4 -3 -6 -3h-8zM194 -7c-92 0 -136 66 -136 150v213c0 87 55 151 140 151c82 0 140 -66 140 -147s-52 -141 -161 -141h-100v-76
c0 -74 37 -132 117 -132c81 0 119 55 121 124c0 3 2 5 5 5h9c3 0 5 -2 5 -4c-2 -79 -48 -143 -140 -143zM77 237h100c100 0 142 52 142 123s-49 129 -121 129c-75 0 -121 -56 -121 -133v-119z" />
    <glyph glyph-name="edieresis" unicode="&#xeb;" horiz-adv-x="389" 
d="M148 585c-13 0 -22 9 -22 22s9 22 22 22s22 -9 22 -22s-9 -22 -22 -22zM244 585c-13 0 -22 9 -22 22s9 22 22 22s22 -9 22 -22s-9 -22 -22 -22zM194 -7c-92 0 -136 66 -136 150v213c0 87 55 151 140 151c82 0 140 -66 140 -147s-52 -141 -161 -141h-100v-76
c0 -74 37 -132 117 -132c81 0 119 55 121 124c0 3 2 5 5 5h9c3 0 5 -2 5 -4c-2 -79 -48 -143 -140 -143zM77 237h100c100 0 142 52 142 123s-49 129 -121 129c-75 0 -121 -56 -121 -133v-119z" />
    <glyph glyph-name="edotaccent" unicode="&#x117;" horiz-adv-x="389" 
d="M196 585c-13 0 -22 9 -22 22s9 22 22 22s22 -9 22 -22s-9 -22 -22 -22zM194 -7c-92 0 -136 66 -136 150v213c0 87 55 151 140 151c82 0 140 -66 140 -147s-52 -141 -161 -141h-100v-76c0 -74 37 -132 117 -132c81 0 119 55 121 124c0 3 2 5 5 5h9c3 0 5 -2 5 -4
c-2 -79 -48 -143 -140 -143zM77 237h100c100 0 142 52 142 123s-49 129 -121 129c-75 0 -121 -56 -121 -133v-119z" />
    <glyph glyph-name="egrave" unicode="&#xe8;" horiz-adv-x="389" 
d="M130 666h12c2 0 5 -1 6 -3l63 -98c2 -4 1 -6 -3 -6h-7c-2 0 -5 1 -6 3l-68 98c-2 3 -1 6 3 6zM194 -7c-92 0 -136 66 -136 150v213c0 87 55 151 140 151c82 0 140 -66 140 -147s-52 -141 -161 -141h-100v-76c0 -74 37 -132 117 -132c81 0 119 55 121 124c0 3 2 5 5 5h9
c3 0 5 -2 5 -4c-2 -79 -48 -143 -140 -143zM77 237h100c100 0 142 52 142 123s-49 129 -121 129c-75 0 -121 -56 -121 -133v-119z" />
    <glyph glyph-name="emacron" unicode="&#x113;" horiz-adv-x="389" 
d="M121 612c0 3 2 5 5 5h140c3 0 5 -2 5 -5v-8c0 -3 -2 -5 -5 -5h-140c-3 0 -5 2 -5 5v8zM194 -7c-92 0 -136 66 -136 150v213c0 87 55 151 140 151c82 0 140 -66 140 -147s-52 -141 -161 -141h-100v-76c0 -74 37 -132 117 -132c81 0 119 55 121 124c0 3 2 5 5 5h9
c3 0 5 -2 5 -4c-2 -79 -48 -143 -140 -143zM77 237h100c100 0 142 52 142 123s-49 129 -121 129c-75 0 -121 -56 -121 -133v-119z" />
    <glyph glyph-name="eogonek" unicode="&#x119;" horiz-adv-x="389" 
d="M263 -191c-33 -5 -98 11 -98 67c0 46 27 84 62 121c-11 -3 -21 -4 -33 -4c-92 0 -136 66 -136 150v213c0 87 56 151 139 151c84 0 141 -66 141 -148c0 -79 -52 -140 -161 -140h-100v-76c0 -74 35 -132 121 -132c90 0 117 95 117 124c0 3 2 5 5 5h9c3 0 5 -2 5 -4
c0 -67 -44 -105 -69 -127c-60 -53 -82 -88 -82 -129c0 -40 33 -54 80 -53c4 0 6 -1 6 -4v-9c0 -3 -2 -4 -6 -5zM77 237h100c100 0 142 53 142 122c0 74 -49 130 -122 130s-120 -56 -120 -133v-119z" />
    <glyph glyph-name="f" unicode="f" horiz-adv-x="266" 
d="M234 500c3 0 5 -2 5 -5v-9c0 -3 -2 -5 -5 -5h-120v-476c0 -3 -2 -5 -5 -5h-9c-3 0 -5 2 -5 5v476h-71c-3 0 -5 2 -5 5v9c0 3 2 5 5 5h71v57c0 94 48 145 131 145c3 0 5 -2 5 -5v-8c0 -3 -2 -5 -5 -5c-71 0 -112 -44 -112 -127v-57h120z" />
    <glyph glyph-name="g" unicode="g" horiz-adv-x="407" 
d="M200 507c84 0 142 -67 142 -154v-413c0 -83 -54 -150 -143 -150c-86 0 -139 63 -141 142c0 3 2 5 5 5h9c3 0 5 -2 5 -5c2 -69 46 -124 122 -124c78 0 124 59 124 132v141c-22 -51 -69 -81 -123 -81c-84 0 -142 67 -142 159v194c0 87 58 154 142 154zM200 18
c73 0 123 59 123 141v194c0 77 -50 136 -123 136s-123 -59 -123 -136v-194c0 -82 50 -141 123 -141z" />
    <glyph glyph-name="gbreve" unicode="&#x11f;" horiz-adv-x="407" 
d="M202 563c-59 0 -99 40 -101 99c0 3 2 5 5 5h9c3 0 5 -2 5 -5c2 -52 32 -82 82 -82s80 30 82 82c0 3 2 5 5 5h9c3 0 5 -2 5 -5c-2 -59 -42 -99 -101 -99zM200 507c84 0 142 -67 142 -154v-413c0 -83 -54 -150 -143 -150c-86 0 -139 63 -141 142c0 3 2 5 5 5h9
c3 0 5 -2 5 -5c2 -69 46 -124 122 -124c78 0 124 59 124 132v141c-22 -51 -69 -81 -123 -81c-84 0 -142 67 -142 159v194c0 87 58 154 142 154zM200 18c73 0 123 59 123 141v194c0 77 -50 136 -123 136s-123 -59 -123 -136v-194c0 -82 50 -141 123 -141z" />
    <glyph glyph-name="gcommaaccent" unicode="&#x123;" horiz-adv-x="407" 
d="M191 559c-3 0 -5 1 -5 5l-9 114c0 4 2 5 5 5h5c3 0 6 -2 6 -5l18 -114c1 -4 -1 -5 -4 -5h-16zM200 507c84 0 142 -67 142 -154v-413c0 -83 -54 -150 -143 -150c-86 0 -139 63 -141 142c0 3 2 5 5 5h9c3 0 5 -2 5 -5c2 -69 46 -124 122 -124c78 0 124 59 124 132v141
c-22 -51 -69 -81 -123 -81c-84 0 -142 67 -142 159v194c0 87 58 154 142 154zM200 18c73 0 123 59 123 141v194c0 77 -50 136 -123 136s-123 -59 -123 -136v-194c0 -82 50 -141 123 -141z" />
    <glyph glyph-name="gdotaccent" unicode="&#x121;" horiz-adv-x="407" 
d="M202 585c-13 0 -22 9 -22 22s9 22 22 22s22 -9 22 -22s-9 -22 -22 -22zM200 507c84 0 142 -67 142 -154v-413c0 -83 -54 -150 -143 -150c-86 0 -139 63 -141 142c0 3 2 5 5 5h9c3 0 5 -2 5 -5c2 -69 46 -124 122 -124c78 0 124 59 124 132v141c-22 -51 -69 -81 -123 -81
c-84 0 -142 67 -142 159v194c0 87 58 154 142 154zM200 18c73 0 123 59 123 141v194c0 77 -50 136 -123 136s-123 -59 -123 -136v-194c0 -82 50 -141 123 -141z" />
    <glyph glyph-name="h" unicode="h" horiz-adv-x="425" 
d="M79 0c-3 0 -5 2 -5 5v690c0 3 2 5 5 5h9c3 0 5 -2 5 -5v-261c24 44 68 73 124 73c84 0 143 -66 143 -150v-352c0 -3 -2 -5 -5 -5h-9c-3 0 -5 2 -5 5v352c0 74 -50 132 -124 132s-124 -58 -124 -132v-352c0 -3 -2 -5 -5 -5h-9z" />
    <glyph glyph-name="hbar" unicode="&#x127;" horiz-adv-x="431" 
d="M85 0c-3 0 -5 2 -5 5v603h-56c-3 0 -5 2 -5 5v8c0 3 2 5 5 5h56v69c0 3 2 5 5 5h9c3 0 5 -2 5 -5v-69h157c3 0 5 -2 5 -5v-8c0 -3 -2 -5 -5 -5h-157v-174c24 44 68 73 124 73c84 0 143 -66 143 -150v-352c0 -3 -2 -5 -5 -5h-9c-3 0 -5 2 -5 5v352c0 74 -50 132 -124 132
s-124 -58 -124 -132v-352c0 -3 -2 -5 -5 -5h-9z" />
    <glyph glyph-name="i" unicode="i" horiz-adv-x="167" 
d="M84 585c-13 0 -22 9 -22 22s9 22 22 22s22 -9 22 -22s-9 -22 -22 -22zM79 0c-3 0 -5 2 -5 5v490c0 3 2 5 5 5h9c3 0 5 -2 5 -5v-490c0 -3 -2 -5 -5 -5h-9z" />
    <glyph glyph-name="dotlessi" unicode="&#x131;" horiz-adv-x="167" 
d="M79 0c-3 0 -5 2 -5 5v490c0 3 2 5 5 5h9c3 0 5 -2 5 -5v-490c0 -3 -2 -5 -5 -5h-9z" />
    <glyph glyph-name="iacute" unicode="&#xed;" horiz-adv-x="167" 
d="M142 666c4 0 5 -3 3 -6l-68 -98c-1 -2 -4 -3 -6 -3h-7c-4 0 -5 2 -3 6l63 98c1 2 4 3 6 3h12zM79 0c-3 0 -5 2 -5 5v490c0 3 2 5 5 5h9c3 0 5 -2 5 -5v-490c0 -3 -2 -5 -5 -5h-9z" />
    <glyph glyph-name="icircumflex" unicode="&#xee;" horiz-adv-x="176" 
d="M7 559c-4 0 -5 3 -3 6l74 98c1 2 4 3 6 3h16c2 0 5 -1 6 -3l74 -98c2 -3 1 -6 -3 -6h-8c-2 0 -5 1 -6 3l-71 90l-71 -90c-1 -2 -4 -3 -6 -3h-8zM87 0c-3 0 -5 2 -5 5v490c0 3 2 5 5 5h9c3 0 5 -2 5 -5v-490c0 -3 -2 -5 -5 -5h-9z" />
    <glyph glyph-name="idieresis" unicode="&#xef;" horiz-adv-x="156" 
d="M42 585c-13 0 -22 9 -22 22s9 22 22 22s22 -9 22 -22s-9 -22 -22 -22zM114 585c-13 0 -22 9 -22 22s9 22 22 22s22 -9 22 -22s-9 -22 -22 -22zM77 0c-3 0 -5 2 -5 5v490c0 3 2 5 5 5h9c3 0 5 -2 5 -5v-490c0 -3 -2 -5 -5 -5h-9z" />
    <glyph glyph-name="i.loclTRK" horiz-adv-x="167" 
d="M84 585c-13 0 -22 9 -22 22s9 22 22 22s22 -9 22 -22s-9 -22 -22 -22zM79 0c-3 0 -5 2 -5 5v490c0 3 2 5 5 5h9c3 0 5 -2 5 -5v-490c0 -3 -2 -5 -5 -5h-9z" />
    <glyph glyph-name="igrave" unicode="&#xec;" horiz-adv-x="167" 
d="M18 666h12c2 0 5 -1 6 -3l63 -98c2 -4 1 -6 -3 -6h-7c-2 0 -5 1 -6 3l-68 98c-2 3 -1 6 3 6zM79 0c-3 0 -5 2 -5 5v490c0 3 2 5 5 5h9c3 0 5 -2 5 -5v-490c0 -3 -2 -5 -5 -5h-9z" />
    <glyph glyph-name="imacron" unicode="&#x12b;" horiz-adv-x="150" 
d="M10 612c0 3 2 5 5 5h120c3 0 5 -2 5 -5v-8c0 -3 -2 -5 -5 -5h-120c-3 0 -5 2 -5 5v8zM74 0c-3 0 -5 2 -5 5v490c0 3 2 5 5 5h9c3 0 5 -2 5 -5v-490c0 -3 -2 -5 -5 -5h-9z" />
    <glyph glyph-name="iogonek" unicode="&#x12f;" horiz-adv-x="205" 
d="M108 585c-13 0 -22 9 -22 22s9 22 22 22s22 -9 22 -22s-9 -22 -22 -22zM118 -193c-49 0 -78 30 -78 68c0 40 24 85 56 125v495c0 3 2 5 5 5h9c3 0 5 -2 5 -5v-491c0 -2 -1 -5 -4 -8c-35 -44 -52 -84 -52 -118c0 -33 25 -52 63 -52c6 0 12 1 17 1c3 0 5 -1 5 -4v-8
c0 -6 -9 -8 -26 -8z" />
    <glyph glyph-name="j" unicode="j" horiz-adv-x="236" 
d="M140 585c-13 0 -22 9 -22 22s9 22 22 22s22 -9 22 -22s-9 -22 -22 -22zM5 -205c-3 0 -5 2 -5 5v8c0 3 2 5 5 5h2c83 3 123 62 123 142v540c0 3 2 5 5 5h9c3 0 5 -2 5 -5v-540c0 -90 -49 -157 -142 -160h-2z" />
    <glyph glyph-name="k" unicode="k" horiz-adv-x="392" 
d="M192 277c92 0 147 -52 147 -139v-133c0 -3 -2 -5 -5 -5h-9c-3 0 -5 2 -5 5v133c0 77 -44 122 -118 122h-109v-255c0 -3 -2 -5 -5 -5h-9c-3 0 -5 2 -5 5v690c0 3 2 5 5 5h9c3 0 5 -2 5 -5v-417h78l151 219c1 2 4 3 6 3h12c4 0 5 -3 3 -6z" />
    <glyph glyph-name="kcommaaccent" unicode="&#x137;" horiz-adv-x="392" 
d="M192 277c92 0 147 -52 147 -139v-133c0 -3 -2 -5 -5 -5h-9c-3 0 -5 2 -5 5v133c0 77 -44 122 -118 122h-109v-255c0 -3 -2 -5 -5 -5h-9c-3 0 -5 2 -5 5v690c0 3 2 5 5 5h9c3 0 5 -2 5 -5v-417h78l151 219c1 2 4 3 6 3h12c4 0 5 -3 3 -6zM209 -71c0 4 2 5 5 5h19
c3 0 5 -1 4 -5l-21 -134c0 -3 -3 -5 -6 -5h-5c-3 0 -5 1 -5 5z" />
    <glyph glyph-name="l" unicode="l" horiz-adv-x="167" 
d="M79 0c-3 0 -5 2 -5 5v690c0 3 2 5 5 5h9c3 0 5 -2 5 -5v-690c0 -3 -2 -5 -5 -5h-9z" />
    <glyph glyph-name="lacute" unicode="&#x13a;" horiz-adv-x="167" 
d="M65 769c-4 0 -5 3 -3 6l72 90c1 2 4 3 6 3h13c4 0 6 -2 3 -6l-79 -90c-1 -2 -4 -3 -6 -3h-6zM79 0c-3 0 -5 2 -5 5v690c0 3 2 5 5 5h9c3 0 5 -2 5 -5v-690c0 -3 -2 -5 -5 -5h-9z" />
    <glyph glyph-name="lcaron" unicode="&#x13e;" horiz-adv-x="202" 
d="M79 0c-3 0 -5 2 -5 5v690c0 3 2 5 5 5h10c3 0 5 -2 5 -5v-690c0 -3 -2 -5 -5 -5h-10zM158 575c-3 0 -5 1 -5 5l9 115c0 4 2 5 5 5h14c3 0 5 -1 4 -5l-16 -115c0 -3 -3 -5 -6 -5h-5z" />
    <glyph glyph-name="lcommaaccent" unicode="&#x13c;" horiz-adv-x="185" 
d="M79 0c-3 0 -5 2 -5 5v690c0 3 2 5 5 5h9c3 0 5 -2 5 -5v-690c0 -3 -2 -5 -5 -5h-9zM83 -71c0 4 2 5 5 5h19c3 0 5 -1 4 -5l-21 -134c0 -3 -3 -5 -6 -5h-5c-3 0 -5 1 -5 5z" />
    <glyph glyph-name="lslash" unicode="&#x142;" horiz-adv-x="194" 
d="M171 441c4 2 6 -1 6 -4v-10c0 -2 -2 -5 -4 -6l-62 -25v-391c0 -3 -2 -5 -5 -5h-9c-3 0 -5 2 -5 5v384l-69 -28c-4 -2 -6 1 -6 4v10c0 2 2 5 4 6l71 28v286c0 3 2 5 5 5h9c3 0 5 -2 5 -5v-278z" />
    <glyph glyph-name="m" unicode="m" horiz-adv-x="633" 
d="M437 507c84 0 131 -66 131 -149v-353c0 -3 -2 -5 -5 -5h-9c-3 0 -5 2 -5 5v353c0 73 -38 131 -112 131c-66 0 -111 -58 -111 -129v-355c0 -3 -2 -5 -5 -5h-9c-3 0 -5 2 -5 5v355c0 71 -45 129 -110 129c-75 0 -113 -58 -113 -131v-353c0 -3 -2 -5 -5 -5h-9
c-3 0 -5 2 -5 5v353c0 83 47 149 132 149c58 0 101 -37 120 -90c18 53 62 90 120 90z" />
    <glyph glyph-name="n" unicode="n" horiz-adv-x="402" 
d="M70 0c-3 0 -5 2 -5 5v342c0 94 46 160 136 160s136 -66 136 -160v-342c0 -3 -2 -5 -5 -5h-9c-3 0 -5 2 -5 5v342c0 84 -37 142 -117 142s-117 -58 -117 -142v-342c0 -3 -2 -5 -5 -5h-9z" />
    <glyph glyph-name="nacute" unicode="&#x144;" horiz-adv-x="402" 
d="M259 666c4 0 5 -3 3 -6l-68 -98c-1 -2 -4 -3 -6 -3h-7c-4 0 -5 2 -3 6l63 98c1 2 4 3 6 3h12zM70 0c-3 0 -5 2 -5 5v342c0 94 46 160 136 160s136 -66 136 -160v-342c0 -3 -2 -5 -5 -5h-9c-3 0 -5 2 -5 5v342c0 84 -37 142 -117 142s-117 -58 -117 -142v-342
c0 -3 -2 -5 -5 -5h-9z" />
    <glyph glyph-name="ncaron" unicode="&#x148;" horiz-adv-x="402" 
d="M116 666h8c2 0 5 -1 6 -3l71 -90l71 90c1 2 4 3 6 3h8c4 0 5 -3 3 -6l-74 -98c-1 -2 -4 -3 -6 -3h-16c-2 0 -5 1 -6 3l-74 98c-2 3 -1 6 3 6zM70 0c-3 0 -5 2 -5 5v342c0 94 46 160 136 160s136 -66 136 -160v-342c0 -3 -2 -5 -5 -5h-9c-3 0 -5 2 -5 5v342
c0 84 -37 142 -117 142s-117 -58 -117 -142v-342c0 -3 -2 -5 -5 -5h-9z" />
    <glyph glyph-name="ncommaaccent" unicode="&#x146;" horiz-adv-x="402" 
d="M70 0c-3 0 -5 2 -5 5v342c0 94 46 160 136 160s136 -66 136 -160v-342c0 -3 -2 -5 -5 -5h-9c-3 0 -5 2 -5 5v342c0 84 -37 142 -117 142s-117 -58 -117 -142v-342c0 -3 -2 -5 -5 -5h-9zM189 -71c0 4 2 5 5 5h19c3 0 5 -1 4 -5l-21 -134c0 -3 -3 -5 -6 -5h-5
c-3 0 -5 1 -5 5z" />
    <glyph glyph-name="eng" unicode="&#x14b;" horiz-adv-x="402" 
d="M193 -210c-3 0 -5 2 -5 5v8c0 3 2 5 5 5c77 2 125 61 125 132v412c0 79 -43 137 -118 137c-74 0 -116 -58 -116 -137v-347c0 -3 -2 -5 -5 -5h-9c-3 0 -5 2 -5 5v347c0 89 51 155 135 155c85 0 137 -66 137 -155v-412c0 -81 -57 -147 -144 -150z" />
    <glyph glyph-name="ntilde" unicode="&#xf1;" horiz-adv-x="402" 
d="M157 634c-20 0 -34 -17 -35 -47c0 -3 -2 -5 -5 -5h-9c-3 0 -5 2 -5 5c2 39 25 65 55 65c43 0 52 -53 86 -53c20 0 34 17 35 47c0 3 2 5 5 5h9c3 0 5 -2 5 -5c-2 -40 -26 -65 -55 -65c-41 0 -51 53 -86 53zM70 0c-3 0 -5 2 -5 5v342c0 94 46 160 136 160s136 -66 136 -160
v-342c0 -3 -2 -5 -5 -5h-9c-3 0 -5 2 -5 5v342c0 84 -37 142 -117 142s-117 -58 -117 -142v-342c0 -3 -2 -5 -5 -5h-9z" />
    <glyph glyph-name="o" unicode="o" horiz-adv-x="400" 
d="M200 -7c-89 0 -142 66 -142 152v210c0 86 53 152 142 152s142 -66 142 -152v-210c0 -86 -53 -152 -142 -152zM200 11c77 0 123 59 123 134v210c0 75 -46 134 -123 134s-123 -59 -123 -134v-210c0 -75 46 -134 123 -134z" />
    <glyph glyph-name="oacute" unicode="&#xf3;" horiz-adv-x="400" 
d="M258 666c4 0 5 -3 3 -6l-68 -98c-1 -2 -4 -3 -6 -3h-7c-4 0 -5 2 -3 6l63 98c1 2 4 3 6 3h12zM200 -7c-89 0 -142 66 -142 152v210c0 86 53 152 142 152s142 -66 142 -152v-210c0 -86 -53 -152 -142 -152zM200 11c77 0 123 59 123 134v210c0 75 -46 134 -123 134
s-123 -59 -123 -134v-210c0 -75 46 -134 123 -134z" />
    <glyph glyph-name="ocircumflex" unicode="&#xf4;" horiz-adv-x="400" 
d="M115 559c-4 0 -5 3 -3 6l74 98c1 2 4 3 6 3h16c2 0 5 -1 6 -3l74 -98c2 -3 1 -6 -3 -6h-8c-2 0 -5 1 -6 3l-71 90l-71 -90c-1 -2 -4 -3 -6 -3h-8zM200 -7c-89 0 -142 66 -142 152v210c0 86 53 152 142 152s142 -66 142 -152v-210c0 -86 -53 -152 -142 -152zM200 11
c77 0 123 59 123 134v210c0 75 -46 134 -123 134s-123 -59 -123 -134v-210c0 -75 46 -134 123 -134z" />
    <glyph glyph-name="odieresis" unicode="&#xf6;" horiz-adv-x="400" 
d="M152 585c-13 0 -22 9 -22 22s9 22 22 22s22 -9 22 -22s-9 -22 -22 -22zM248 585c-13 0 -22 9 -22 22s9 22 22 22s22 -9 22 -22s-9 -22 -22 -22zM200 -7c-89 0 -142 66 -142 152v210c0 86 53 152 142 152s142 -66 142 -152v-210c0 -86 -53 -152 -142 -152zM200 11
c77 0 123 59 123 134v210c0 75 -46 134 -123 134s-123 -59 -123 -134v-210c0 -75 46 -134 123 -134z" />
    <glyph glyph-name="ograve" unicode="&#xf2;" horiz-adv-x="400" 
d="M134 666h12c2 0 5 -1 6 -3l63 -98c2 -4 1 -6 -3 -6h-7c-2 0 -5 1 -6 3l-68 98c-2 3 -1 6 3 6zM200 -7c-89 0 -142 66 -142 152v210c0 86 53 152 142 152s142 -66 142 -152v-210c0 -86 -53 -152 -142 -152zM200 11c77 0 123 59 123 134v210c0 75 -46 134 -123 134
s-123 -59 -123 -134v-210c0 -75 46 -134 123 -134z" />
    <glyph glyph-name="ohungarumlaut" unicode="&#x151;" horiz-adv-x="400" 
d="M209 666c4 0 5 -3 3 -6l-69 -98c-1 -2 -4 -3 -6 -3h-7c-4 0 -5 2 -3 6l64 98c1 2 4 3 6 3h12zM307 666c4 0 5 -3 3 -6l-69 -98c-1 -2 -4 -3 -6 -3h-7c-4 0 -5 2 -3 6l64 98c1 2 4 3 6 3h12zM200 -7c-89 0 -142 66 -142 152v210c0 86 53 152 142 152s142 -66 142 -152
v-210c0 -86 -53 -152 -142 -152zM200 11c77 0 123 59 123 134v210c0 75 -46 134 -123 134s-123 -59 -123 -134v-210c0 -75 46 -134 123 -134z" />
    <glyph glyph-name="omacron" unicode="&#x14d;" horiz-adv-x="400" 
d="M125 612c0 3 2 5 5 5h140c3 0 5 -2 5 -5v-8c0 -3 -2 -5 -5 -5h-140c-3 0 -5 2 -5 5v8zM200 -7c-89 0 -142 66 -142 152v210c0 86 53 152 142 152s142 -66 142 -152v-210c0 -86 -53 -152 -142 -152zM200 11c77 0 123 59 123 134v210c0 75 -46 134 -123 134
s-123 -59 -123 -134v-210c0 -75 46 -134 123 -134z" />
    <glyph glyph-name="oslash" unicode="&#xf8;" horiz-adv-x="400" 
d="M257 496c54 -22 85 -75 85 -141v-210c0 -86 -53 -152 -142 -152c-30 0 -56 7 -77 21l-15 -55c-1 -2 -2 -4 -5 -4h-9c-3 0 -5 2 -4 6l18 64c-32 27 -50 70 -50 120v210c0 86 53 152 142 152c14 0 28 -2 40 -5l11 39c1 2 2 4 5 4h9c3 0 5 -2 4 -6zM77 145
c0 -40 13 -75 37 -99l121 438c-11 3 -22 5 -35 5c-77 0 -123 -59 -123 -134v-210zM323 145v210c0 56 -26 103 -71 123l-124 -445c20 -14 44 -22 72 -22c77 0 123 59 123 134z" />
    <glyph glyph-name="otilde" unicode="&#xf5;" horiz-adv-x="400" 
d="M156 634c-20 0 -34 -17 -35 -47c0 -3 -2 -5 -5 -5h-9c-3 0 -5 2 -5 5c2 39 25 65 55 65c43 0 52 -53 86 -53c20 0 34 17 35 47c0 3 2 5 5 5h9c3 0 5 -2 5 -5c-2 -40 -26 -65 -55 -65c-41 0 -51 53 -86 53zM200 -7c-89 0 -142 66 -142 152v210c0 86 53 152 142 152
s142 -66 142 -152v-210c0 -86 -53 -152 -142 -152zM200 11c77 0 123 59 123 134v210c0 75 -46 134 -123 134s-123 -59 -123 -134v-210c0 -75 46 -134 123 -134z" />
    <glyph glyph-name="oe" unicode="&#x153;" horiz-adv-x="625" 
d="M194 -7c-85 0 -136 64 -136 150v214c0 86 51 150 136 150c61 0 106 -36 125 -94c18 56 65 94 125 94c76 0 130 -66 130 -147c0 -87 -53 -148 -151 -148h-94v-69c0 -74 35 -132 111 -132c74 0 109 55 111 124c0 3 2 5 5 5h9c3 0 5 -2 5 -5c-2 -79 -45 -142 -130 -142
c-67 0 -107 38 -122 93c-19 -58 -64 -93 -124 -93zM194 11c69 0 116 57 116 142v194c0 85 -47 142 -116 142c-73 0 -117 -57 -117 -132v-214c0 -75 44 -132 117 -132zM329 230h94c90 0 132 53 132 130c0 71 -45 129 -111 129c-68 0 -115 -56 -115 -130v-129z" />
    <glyph glyph-name="p" unicode="p" horiz-adv-x="407" 
d="M207 507c81 0 142 -67 142 -150v-214c0 -83 -61 -150 -142 -150c-54 0 -102 33 -123 83v-271c0 -3 -2 -5 -5 -5h-9c-3 0 -5 2 -5 5v552c0 83 61 150 142 150zM330 143v214c0 73 -53 132 -123 132s-123 -59 -123 -132v-214c0 -73 53 -132 123 -132s123 59 123 132z" />
    <glyph glyph-name="thorn" unicode="&#xfe;" horiz-adv-x="424" 
d="M79 -200c-3 0 -5 2 -5 5v890c0 3 2 5 5 5h9c3 0 5 -2 5 -5v-264c25 46 72 76 127 76c81 0 146 -67 146 -150v-214c0 -83 -65 -150 -146 -150c-55 0 -102 30 -127 76v-264c0 -3 -2 -5 -5 -5h-9zM220 11c70 0 127 59 127 132v214c0 73 -57 132 -127 132s-127 -59 -127 -132
v-214c0 -73 57 -132 127 -132z" />
    <glyph glyph-name="q" unicode="q" horiz-adv-x="407" 
d="M200 507c81 0 142 -67 142 -150v-552c0 -3 -2 -5 -5 -5h-9c-3 0 -5 2 -5 5v271c-21 -50 -69 -83 -123 -83c-81 0 -142 67 -142 150v214c0 83 61 150 142 150zM200 11c70 0 123 59 123 132v214c0 73 -53 132 -123 132s-123 -59 -123 -132v-214c0 -73 53 -132 123 -132z
" />
    <glyph glyph-name="r" unicode="r" horiz-adv-x="269" 
d="M70 0c-3 0 -5 2 -5 5v340c0 93 64 157 150 157h30c3 0 5 -2 5 -5v-8c0 -3 -2 -5 -5 -5h-30c-76 0 -131 -56 -131 -139v-340c0 -3 -2 -5 -5 -5h-9z" />
    <glyph glyph-name="racute" unicode="&#x155;" horiz-adv-x="269" 
d="M223 666c4 0 5 -3 3 -6l-68 -98c-1 -2 -4 -3 -6 -3h-7c-4 0 -5 2 -3 6l63 98c1 2 4 3 6 3h12zM70 0c-3 0 -5 2 -5 5v340c0 93 64 157 150 157h30c3 0 5 -2 5 -5v-8c0 -3 -2 -5 -5 -5h-30c-76 0 -131 -56 -131 -139v-340c0 -3 -2 -5 -5 -5h-9z" />
    <glyph glyph-name="rcaron" unicode="&#x159;" horiz-adv-x="269" 
d="M80 666h8c2 0 5 -1 6 -3l71 -90l71 90c1 2 4 3 6 3h8c4 0 5 -3 3 -6l-74 -98c-1 -2 -4 -3 -6 -3h-16c-2 0 -5 1 -6 3l-74 98c-2 3 -1 6 3 6zM70 0c-3 0 -5 2 -5 5v340c0 93 64 157 150 157h30c3 0 5 -2 5 -5v-8c0 -3 -2 -5 -5 -5h-30c-76 0 -131 -56 -131 -139v-340
c0 -3 -2 -5 -5 -5h-9z" />
    <glyph glyph-name="rcommaaccent" unicode="&#x157;" horiz-adv-x="269" 
d="M70 0c-3 0 -5 2 -5 5v340c0 93 64 157 150 157h30c3 0 5 -2 5 -5v-8c0 -3 -2 -5 -5 -5h-30c-76 0 -131 -56 -131 -139v-340c0 -3 -2 -5 -5 -5h-9zM66 -71c0 4 2 5 5 5h19c3 0 5 -1 4 -5l-21 -134c0 -3 -3 -5 -6 -5h-5c-3 0 -5 1 -5 5z" />
    <glyph glyph-name="s" unicode="s" horiz-adv-x="380" 
d="M195 -7c-86 0 -142 49 -144 142c0 3 2 5 5 5h9c3 0 5 -2 5 -5c2 -85 49 -124 125 -124c62 0 115 41 115 107c0 152 -258 94 -258 266c0 72 58 123 134 123c79 0 132 -49 134 -127c0 -3 -2 -5 -5 -5h-9c-3 0 -5 2 -5 5c-2 70 -46 109 -115 109c-64 0 -115 -41 -115 -105
c0 -155 258 -97 258 -266c0 -74 -62 -125 -134 -125z" />
    <glyph glyph-name="sacute" unicode="&#x15b;" horiz-adv-x="380" 
d="M248 666c4 0 5 -3 3 -6l-68 -98c-1 -2 -4 -3 -6 -3h-7c-4 0 -5 2 -3 6l63 98c1 2 4 3 6 3h12zM195 -7c-86 0 -142 49 -144 142c0 3 2 5 5 5h9c3 0 5 -2 5 -5c2 -85 49 -124 125 -124c62 0 115 41 115 107c0 152 -258 94 -258 266c0 72 58 123 134 123
c79 0 132 -49 134 -127c0 -3 -2 -5 -5 -5h-9c-3 0 -5 2 -5 5c-2 70 -46 109 -115 109c-64 0 -115 -41 -115 -105c0 -155 258 -97 258 -266c0 -74 -62 -125 -134 -125z" />
    <glyph glyph-name="scaron" unicode="&#x161;" horiz-adv-x="380" 
d="M105 666h8c2 0 5 -1 6 -3l71 -90l71 90c1 2 4 3 6 3h8c4 0 5 -3 3 -6l-74 -98c-1 -2 -4 -3 -6 -3h-16c-2 0 -5 1 -6 3l-74 98c-2 3 -1 6 3 6zM195 -7c-86 0 -142 49 -144 142c0 3 2 5 5 5h9c3 0 5 -2 5 -5c2 -85 49 -124 125 -124c62 0 115 41 115 107
c0 152 -258 94 -258 266c0 72 58 123 134 123c79 0 132 -49 134 -127c0 -3 -2 -5 -5 -5h-9c-3 0 -5 2 -5 5c-2 70 -46 109 -115 109c-64 0 -115 -41 -115 -105c0 -155 258 -97 258 -266c0 -74 -62 -125 -134 -125z" />
    <glyph glyph-name="scedilla" unicode="&#x15f;" horiz-adv-x="380" 
d="M195 -7h-11l-10 -54c7 2 18 3 26 3c42 0 69 -28 69 -67c0 -42 -32 -68 -79 -68c-46 0 -77 26 -80 66c0 3 2 5 5 5h8c3 0 5 -2 5 -5c3 -28 27 -47 62 -47s60 18 60 49c0 30 -22 51 -49 51c-12 0 -26 -3 -39 -7c-2 -1 -3 -1 -5 1l-1 1c-2 2 -2 3 -2 5l13 69
c-70 10 -114 58 -116 140c0 3 2 5 5 5h9c3 0 5 -2 5 -5c2 -85 49 -124 125 -124c62 0 115 41 115 107c0 152 -258 94 -258 266c0 72 58 123 134 123c79 0 132 -49 134 -127c0 -3 -2 -5 -5 -5h-9c-3 0 -5 2 -5 5c-2 70 -46 109 -115 109c-64 0 -115 -41 -115 -105
c0 -155 258 -97 258 -266c0 -74 -62 -125 -134 -125z" />
    <glyph glyph-name="scommaaccent" unicode="&#x219;" horiz-adv-x="380" 
d="M195 -7c-86 0 -142 49 -144 142c0 3 2 5 5 5h9c3 0 5 -2 5 -5c2 -85 49 -124 125 -124c62 0 115 41 115 107c0 152 -258 94 -258 266c0 72 58 123 134 123c79 0 132 -49 134 -127c0 -3 -2 -5 -5 -5h-9c-3 0 -5 2 -5 5c-2 70 -46 109 -115 109c-64 0 -115 -41 -115 -105
c0 -155 258 -97 258 -266c0 -74 -62 -125 -134 -125zM188 -71c0 4 2 5 5 5h19c3 0 5 -1 4 -5l-21 -134c0 -3 -3 -5 -6 -5h-5c-3 0 -5 1 -5 5z" />
    <glyph glyph-name="germandbls" unicode="&#xdf;" horiz-adv-x="384" 
d="M77 0c-3 0 -5 2 -5 5v558c0 91 45 144 120 144c78 0 124 -53 124 -144v-71c0 -66 -34 -111 -93 -121c69 -18 111 -70 111 -151v-85c0 -82 -45 -135 -120 -135h-89c-3 0 -5 2 -5 5v9c0 3 2 5 5 5h89c63 0 100 46 100 116v85c0 92 -52 141 -140 141h-49c-3 0 -5 2 -5 5v8
c0 3 2 5 5 5h49c77 0 123 42 123 113v71c0 79 -39 125 -105 125c-63 0 -101 -46 -101 -125v-558c0 -3 -2 -5 -5 -5h-9z" />
    <glyph glyph-name="t" unicode="t" horiz-adv-x="266" 
d="M234 16c3 0 5 -2 5 -5v-8c0 -3 -2 -5 -5 -5h-14c-83 0 -126 51 -126 148v336h-70c-3 0 -5 2 -5 5v8c0 3 2 5 5 5h70v135c0 3 2 5 5 5h9c3 0 5 -2 5 -5v-135h112c3 0 5 -2 5 -5v-8c0 -3 -2 -5 -5 -5h-112v-336c0 -85 37 -130 107 -130h14z" />
    <glyph glyph-name="tbar" unicode="&#x167;" horiz-adv-x="266" 
d="M234 14c3 0 5 -2 5 -5v-8c0 -3 -2 -5 -5 -5h-2c-88 0 -138 67 -138 160v137h-55c-3 0 -5 2 -5 5v8c0 3 2 5 5 5h55v171h-70c-3 0 -5 2 -5 5v8c0 3 2 5 5 5h70v135c0 3 2 5 5 5h9c3 0 5 -2 5 -5v-135h112c3 0 5 -2 5 -5v-8c0 -3 -2 -5 -5 -5h-112v-171h96c3 0 5 -2 5 -5
v-8c0 -3 -2 -5 -5 -5h-96v-137c0 -83 42 -142 119 -142h2z" />
    <glyph glyph-name="tcaron" unicode="&#x165;" horiz-adv-x="266" 
d="M175 545c-3 0 -5 1 -5 5l9 115c0 4 2 5 5 5h14c3 0 5 -1 4 -5l-16 -115c0 -3 -3 -5 -6 -5h-5zM234 16c3 0 5 -2 5 -5v-8c0 -3 -2 -5 -5 -5h-14c-83 0 -126 51 -126 148v336h-70c-3 0 -5 2 -5 5v8c0 3 2 5 5 5h70v135c0 3 2 5 5 5h9c3 0 5 -2 5 -5v-135h112c3 0 5 -2 5 -5
v-8c0 -3 -2 -5 -5 -5h-112v-336c0 -85 37 -130 107 -130h14z" />
    <glyph glyph-name="uni0163" unicode="&#x163;" horiz-adv-x="266" 
d="M234 16c3 0 5 -2 5 -5v-8c0 -3 -2 -5 -5 -5h-14c-83 0 -126 51 -126 148v336h-70c-3 0 -5 2 -5 5v8c0 3 2 5 5 5h70v135c0 3 2 5 5 5h9c3 0 5 -2 5 -5v-135h112c3 0 5 -2 5 -5v-8c0 -3 -2 -5 -5 -5h-112v-336c0 -85 37 -130 107 -130h14zM153 -66c3 0 5 -1 4 -5l-21 -134
c0 -3 -3 -5 -6 -5h-5c-3 0 -5 1 -5 5l9 134c0 4 2 5 5 5h19z" />
    <glyph glyph-name="uni021B" unicode="&#x21b;" horiz-adv-x="266" 
d="M234 16c3 0 5 -2 5 -5v-8c0 -3 -2 -5 -5 -5h-14c-83 0 -126 51 -126 148v336h-70c-3 0 -5 2 -5 5v8c0 3 2 5 5 5h70v135c0 3 2 5 5 5h9c3 0 5 -2 5 -5v-135h112c3 0 5 -2 5 -5v-8c0 -3 -2 -5 -5 -5h-112v-336c0 -85 37 -130 107 -130h14zM143 -66c3 0 5 -1 4 -5l-21 -134
c0 -3 -3 -5 -6 -5h-5c-3 0 -5 1 -5 5l9 134c0 4 2 5 5 5h19z" />
    <glyph glyph-name="u" unicode="u" horiz-adv-x="402" 
d="M70 500h9c3 0 5 -2 5 -5v-342c0 -84 37 -142 117 -142s117 58 117 142v342c0 3 2 5 5 5h9c3 0 5 -2 5 -5v-342c0 -94 -46 -160 -136 -160s-136 66 -136 160v342c0 3 2 5 5 5z" />
    <glyph glyph-name="uacute" unicode="&#xfa;" horiz-adv-x="402" 
d="M259 666c4 0 5 -3 3 -6l-68 -98c-1 -2 -4 -3 -6 -3h-7c-4 0 -5 2 -3 6l63 98c1 2 4 3 6 3h12zM70 500h9c3 0 5 -2 5 -5v-342c0 -84 37 -142 117 -142s117 58 117 142v342c0 3 2 5 5 5h9c3 0 5 -2 5 -5v-342c0 -94 -46 -160 -136 -160s-136 66 -136 160v342c0 3 2 5 5 5z
" />
    <glyph glyph-name="ucircumflex" unicode="&#xfb;" horiz-adv-x="402" 
d="M116 559c-4 0 -5 3 -3 6l74 98c1 2 4 3 6 3h16c2 0 5 -1 6 -3l74 -98c2 -3 1 -6 -3 -6h-8c-2 0 -5 1 -6 3l-71 90l-71 -90c-1 -2 -4 -3 -6 -3h-8zM70 500h9c3 0 5 -2 5 -5v-342c0 -84 37 -142 117 -142s117 58 117 142v342c0 3 2 5 5 5h9c3 0 5 -2 5 -5v-342
c0 -94 -46 -160 -136 -160s-136 66 -136 160v342c0 3 2 5 5 5z" />
    <glyph glyph-name="udieresis" unicode="&#xfc;" horiz-adv-x="402" 
d="M153 585c-13 0 -22 9 -22 22s9 22 22 22s22 -9 22 -22s-9 -22 -22 -22zM249 585c-13 0 -22 9 -22 22s9 22 22 22s22 -9 22 -22s-9 -22 -22 -22zM70 500h9c3 0 5 -2 5 -5v-342c0 -84 37 -142 117 -142s117 58 117 142v342c0 3 2 5 5 5h9c3 0 5 -2 5 -5v-342
c0 -94 -46 -160 -136 -160s-136 66 -136 160v342c0 3 2 5 5 5z" />
    <glyph glyph-name="ugrave" unicode="&#xf9;" horiz-adv-x="402" 
d="M135 666h12c2 0 5 -1 6 -3l63 -98c2 -4 1 -6 -3 -6h-7c-2 0 -5 1 -6 3l-68 98c-2 3 -1 6 3 6zM70 500h9c3 0 5 -2 5 -5v-342c0 -84 37 -142 117 -142s117 58 117 142v342c0 3 2 5 5 5h9c3 0 5 -2 5 -5v-342c0 -94 -46 -160 -136 -160s-136 66 -136 160v342c0 3 2 5 5 5z
" />
    <glyph glyph-name="uhungarumlaut" unicode="&#x171;" horiz-adv-x="402" 
d="M210 666c4 0 5 -3 3 -6l-69 -98c-1 -2 -4 -3 -6 -3h-7c-4 0 -5 2 -3 6l64 98c1 2 4 3 6 3h12zM308 666c4 0 5 -3 3 -6l-69 -98c-1 -2 -4 -3 -6 -3h-7c-4 0 -5 2 -3 6l64 98c1 2 4 3 6 3h12zM70 500h9c3 0 5 -2 5 -5v-342c0 -84 37 -142 117 -142s117 58 117 142v342
c0 3 2 5 5 5h9c3 0 5 -2 5 -5v-342c0 -94 -46 -160 -136 -160s-136 66 -136 160v342c0 3 2 5 5 5z" />
    <glyph glyph-name="umacron" unicode="&#x16b;" horiz-adv-x="402" 
d="M126 612c0 3 2 5 5 5h140c3 0 5 -2 5 -5v-8c0 -3 -2 -5 -5 -5h-140c-3 0 -5 2 -5 5v8zM70 500h9c3 0 5 -2 5 -5v-342c0 -84 37 -142 117 -142s117 58 117 142v342c0 3 2 5 5 5h9c3 0 5 -2 5 -5v-342c0 -94 -46 -160 -136 -160s-136 66 -136 160v342c0 3 2 5 5 5z" />
    <glyph glyph-name="uogonek" unicode="&#x173;" horiz-adv-x="402" 
d="M282 -191c-51 -3 -100 17 -100 66c0 39 24 85 62 124c-13 -4 -27 -6 -43 -6c-90 0 -136 66 -136 160v342c0 3 2 5 5 5h9c3 0 5 -2 5 -5v-342c0 -84 37 -142 117 -142s117 58 117 142v342c0 3 2 5 5 5h9c3 0 5 -2 5 -5v-342c0 -62 -24 -105 -60 -139
c-55 -52 -76 -94 -76 -134c0 -48 47 -54 80 -53c3 0 5 -1 5 -4v-9c0 -3 -2 -5 -4 -5z" />
    <glyph glyph-name="uring" unicode="&#x16f;" horiz-adv-x="402" 
d="M138 614c0 36 25 60 63 60s63 -24 63 -60c0 -37 -25 -62 -63 -62s-63 25 -63 62zM157 613c0 -28 16 -44 44 -44s44 16 44 44s-16 44 -44 44s-44 -16 -44 -44zM70 500h9c3 0 5 -2 5 -5v-342c0 -84 37 -142 117 -142s117 58 117 142v342c0 3 2 5 5 5h9c3 0 5 -2 5 -5v-342
c0 -94 -46 -160 -136 -160s-136 66 -136 160v342c0 3 2 5 5 5z" />
    <glyph glyph-name="v" unicode="v" horiz-adv-x="338" 
d="M300 496c1 2 2 4 5 4h9c3 0 5 -2 4 -6l-133 -487c-1 -5 -5 -9 -11 -9h-10c-6 0 -9 4 -11 9l-133 487c-1 4 1 6 4 6h9c3 0 5 -2 5 -4l131 -480z" />
    <glyph glyph-name="w" unicode="w" horiz-adv-x="633" 
d="M437 -7c-58 0 -102 37 -120 90c-19 -53 -62 -90 -120 -90c-85 0 -132 66 -132 149v353c0 3 2 5 5 5h9c3 0 5 -2 5 -5v-353c0 -73 38 -131 113 -131c65 0 110 58 110 129v355c0 3 2 5 5 5h9c3 0 5 -2 5 -5v-355c0 -71 45 -129 111 -129c74 0 112 58 112 131v353
c0 3 2 5 5 5h9c3 0 5 -2 5 -5v-353c0 -83 -47 -149 -131 -149z" />
    <glyph glyph-name="wacute" unicode="&#x1e83;" horiz-adv-x="633" 
d="M367 666c4 0 5 -3 3 -6l-68 -98c-1 -2 -4 -3 -6 -3h-7c-4 0 -5 2 -3 6l63 98c1 2 4 3 6 3h12zM437 -7c-58 0 -102 37 -120 90c-19 -53 -62 -90 -120 -90c-85 0 -132 66 -132 149v353c0 3 2 5 5 5h9c3 0 5 -2 5 -5v-353c0 -73 38 -131 113 -131c65 0 110 58 110 129v355
c0 3 2 5 5 5h9c3 0 5 -2 5 -5v-355c0 -71 45 -129 111 -129c74 0 112 58 112 131v353c0 3 2 5 5 5h9c3 0 5 -2 5 -5v-353c0 -83 -47 -149 -131 -149z" />
    <glyph glyph-name="wcircumflex" unicode="&#x175;" horiz-adv-x="633" 
d="M224 559c-4 0 -5 3 -3 6l74 98c1 2 4 3 6 3h16c2 0 5 -1 6 -3l74 -98c2 -3 1 -6 -3 -6h-8c-2 0 -5 1 -6 3l-71 90l-71 -90c-1 -2 -4 -3 -6 -3h-8zM437 -7c-58 0 -102 37 -120 90c-19 -53 -62 -90 -120 -90c-85 0 -132 66 -132 149v353c0 3 2 5 5 5h9c3 0 5 -2 5 -5v-353
c0 -73 38 -131 113 -131c65 0 110 58 110 129v355c0 3 2 5 5 5h9c3 0 5 -2 5 -5v-355c0 -71 45 -129 111 -129c74 0 112 58 112 131v353c0 3 2 5 5 5h9c3 0 5 -2 5 -5v-353c0 -83 -47 -149 -131 -149z" />
    <glyph glyph-name="wdieresis" unicode="&#x1e85;" horiz-adv-x="633" 
d="M261 585c-13 0 -22 9 -22 22s9 22 22 22s22 -9 22 -22s-9 -22 -22 -22zM357 585c-13 0 -22 9 -22 22s9 22 22 22s22 -9 22 -22s-9 -22 -22 -22zM437 -7c-58 0 -102 37 -120 90c-19 -53 -62 -90 -120 -90c-85 0 -132 66 -132 149v353c0 3 2 5 5 5h9c3 0 5 -2 5 -5v-353
c0 -73 38 -131 113 -131c65 0 110 58 110 129v355c0 3 2 5 5 5h9c3 0 5 -2 5 -5v-355c0 -71 45 -129 111 -129c74 0 112 58 112 131v353c0 3 2 5 5 5h9c3 0 5 -2 5 -5v-353c0 -83 -47 -149 -131 -149z" />
    <glyph glyph-name="wgrave" unicode="&#x1e81;" horiz-adv-x="633" 
d="M243 666h12c2 0 5 -1 6 -3l63 -98c2 -4 1 -6 -3 -6h-7c-2 0 -5 1 -6 3l-68 98c-2 3 -1 6 3 6zM437 -7c-58 0 -102 37 -120 90c-19 -53 -62 -90 -120 -90c-85 0 -132 66 -132 149v353c0 3 2 5 5 5h9c3 0 5 -2 5 -5v-353c0 -73 38 -131 113 -131c65 0 110 58 110 129v355
c0 3 2 5 5 5h9c3 0 5 -2 5 -5v-355c0 -71 45 -129 111 -129c74 0 112 58 112 131v353c0 3 2 5 5 5h9c3 0 5 -2 5 -5v-353c0 -83 -47 -149 -131 -149z" />
    <glyph glyph-name="x" unicode="x" horiz-adv-x="390" 
d="M63 0c-3 0 -5 2 -5 5v104c0 70 36 122 93 141c-57 19 -93 71 -93 141v104c0 3 2 5 5 5h10c3 0 5 -2 5 -5v-104c0 -79 56 -132 117 -132c67 0 117 53 117 132v104c0 3 2 5 5 5h10c3 0 5 -2 5 -5v-104c0 -70 -36 -122 -93 -141c57 -19 93 -71 93 -141v-104
c0 -3 -2 -5 -5 -5h-10c-3 0 -5 2 -5 5v104c0 79 -57 132 -117 132c-67 0 -117 -53 -117 -132v-104c0 -3 -2 -5 -5 -5h-10z" />
    <glyph glyph-name="y" unicode="y" horiz-adv-x="411" 
d="M332 500c3 0 5 -2 5 -5v-555c0 -83 -52 -150 -136 -150c-82 0 -134 63 -136 142c0 3 2 5 5 5h9c3 0 5 -2 5 -5c2 -69 45 -124 117 -124c74 0 117 59 117 132v137c-20 -47 -63 -77 -116 -77c-85 0 -137 66 -137 155v340c0 3 2 5 5 5h9c3 0 5 -2 5 -5v-340
c0 -79 44 -137 118 -137c73 0 116 58 116 137v340c0 3 2 5 5 5h9z" />
    <glyph glyph-name="yacute" unicode="&#xfd;" horiz-adv-x="411" 
d="M184 559c-4 0 -5 2 -3 6l63 98c1 2 4 3 6 3h12c4 0 5 -3 3 -6l-68 -98c-1 -2 -4 -3 -6 -3h-7zM332 500c3 0 5 -2 5 -5v-555c0 -83 -52 -150 -136 -150c-82 0 -134 63 -136 142c0 3 2 5 5 5h9c3 0 5 -2 5 -5c2 -69 45 -124 117 -124c74 0 117 59 117 132v137
c-20 -47 -63 -77 -116 -77c-85 0 -137 66 -137 155v340c0 3 2 5 5 5h9c3 0 5 -2 5 -5v-340c0 -79 44 -137 118 -137c73 0 116 58 116 137v340c0 3 2 5 5 5h9z" />
    <glyph glyph-name="ycircumflex" unicode="&#x177;" horiz-adv-x="411" 
d="M119 559c-4 0 -5 3 -3 6l74 98c1 2 4 3 6 3h16c2 0 5 -1 6 -3l74 -98c2 -3 1 -6 -3 -6h-8c-2 0 -5 1 -6 3l-71 90l-71 -90c-1 -2 -4 -3 -6 -3h-8zM332 500c3 0 5 -2 5 -5v-555c0 -83 -52 -150 -136 -150c-82 0 -134 63 -136 142c0 3 2 5 5 5h9c3 0 5 -2 5 -5
c2 -69 45 -124 117 -124c74 0 117 59 117 132v137c-20 -47 -63 -77 -116 -77c-85 0 -137 66 -137 155v340c0 3 2 5 5 5h9c3 0 5 -2 5 -5v-340c0 -79 44 -137 118 -137c73 0 116 58 116 137v340c0 3 2 5 5 5h9z" />
    <glyph glyph-name="ydieresis" unicode="&#xff;" horiz-adv-x="411" 
d="M156 585c-13 0 -22 9 -22 22s9 22 22 22s22 -9 22 -22s-9 -22 -22 -22zM252 585c-13 0 -22 9 -22 22s9 22 22 22s22 -9 22 -22s-9 -22 -22 -22zM332 500c3 0 5 -2 5 -5v-555c0 -83 -52 -150 -136 -150c-82 0 -134 63 -136 142c0 3 2 5 5 5h9c3 0 5 -2 5 -5
c2 -69 45 -124 117 -124c74 0 117 59 117 132v137c-20 -47 -63 -77 -116 -77c-85 0 -137 66 -137 155v340c0 3 2 5 5 5h9c3 0 5 -2 5 -5v-340c0 -79 44 -137 118 -137c73 0 116 58 116 137v340c0 3 2 5 5 5h9z" />
    <glyph glyph-name="ygrave" unicode="&#x1ef3;" horiz-adv-x="411" 
d="M203 562l-68 98c-2 3 -1 6 3 6h12c2 0 5 -1 6 -3l63 -98c2 -4 1 -6 -3 -6h-7c-2 0 -5 1 -6 3zM332 500c3 0 5 -2 5 -5v-555c0 -83 -52 -150 -136 -150c-82 0 -134 63 -136 142c0 3 2 5 5 5h9c3 0 5 -2 5 -5c2 -69 45 -124 117 -124c74 0 117 59 117 132v137
c-20 -47 -63 -77 -116 -77c-85 0 -137 66 -137 155v340c0 3 2 5 5 5h9c3 0 5 -2 5 -5v-340c0 -79 44 -137 118 -137c73 0 116 58 116 137v340c0 3 2 5 5 5h9z" />
    <glyph glyph-name="z" unicode="z" horiz-adv-x="359" 
d="M67 18h238c3 0 5 -2 5 -5v-8c0 -3 -2 -5 -5 -5h-246c-6 0 -10 4 -10 10v7c0 4 0 8 3 13l241 452h-231c-3 0 -5 2 -5 5v8c0 3 2 5 5 5h238c6 0 10 -4 10 -10v-7c0 -4 0 -8 -3 -13z" />
    <glyph glyph-name="zacute" unicode="&#x17a;" horiz-adv-x="359" 
d="M245 666c4 0 5 -3 3 -6l-68 -98c-1 -2 -4 -3 -6 -3h-7c-4 0 -5 2 -3 6l63 98c1 2 4 3 6 3h12zM67 18h238c3 0 5 -2 5 -5v-8c0 -3 -2 -5 -5 -5h-246c-6 0 -10 4 -10 10v7c0 4 0 8 3 13l241 452h-231c-3 0 -5 2 -5 5v8c0 3 2 5 5 5h238c6 0 10 -4 10 -10v-7
c0 -4 0 -8 -3 -13z" />
    <glyph glyph-name="zcaron" unicode="&#x17e;" horiz-adv-x="359" 
d="M102 666h8c2 0 5 -1 6 -3l71 -90l71 90c1 2 4 3 6 3h8c4 0 5 -3 3 -6l-74 -98c-1 -2 -4 -3 -6 -3h-16c-2 0 -5 1 -6 3l-74 98c-2 3 -1 6 3 6zM67 18h238c3 0 5 -2 5 -5v-8c0 -3 -2 -5 -5 -5h-246c-6 0 -10 4 -10 10v7c0 4 0 8 3 13l241 452h-231c-3 0 -5 2 -5 5v8
c0 3 2 5 5 5h238c6 0 10 -4 10 -10v-7c0 -4 0 -8 -3 -13z" />
    <glyph glyph-name="zdotaccent" unicode="&#x17c;" horiz-adv-x="359" 
d="M187 585c-13 0 -22 9 -22 22s9 22 22 22s22 -9 22 -22s-9 -22 -22 -22zM67 18h238c3 0 5 -2 5 -5v-8c0 -3 -2 -5 -5 -5h-246c-6 0 -10 4 -10 10v7c0 4 0 8 3 13l241 452h-231c-3 0 -5 2 -5 5v8c0 3 2 5 5 5h238c6 0 10 -4 10 -10v-7c0 -4 0 -8 -3 -13z" />
    <glyph glyph-name="uni0163.ss01" horiz-adv-x="269" 
d="M173 -58c42 0 69 -28 69 -67c0 -42 -32 -68 -79 -68c-46 0 -77 26 -80 66c0 3 2 5 5 5h8c3 0 5 -2 5 -5c3 -28 27 -47 62 -47s60 18 60 49c0 30 -22 51 -49 51c-12 0 -26 -3 -39 -7c-2 -1 -3 -1 -5 1l-1 1c-2 2 -2 3 -2 5l15 93c-32 23 -48 65 -48 125v338h-70
c-3 0 -5 2 -5 5v8c0 3 2 5 5 5h70v135c0 3 2 5 5 5h9c3 0 5 -2 5 -5v-135h112c3 0 5 -2 5 -5v-8c0 -3 -2 -5 -5 -5h-112v-338c0 -85 37 -130 107 -130h14c3 0 5 -2 5 -5v-8c0 -3 -2 -5 -5 -5h-14c-24 0 -45 4 -63 13l-10 -70c7 2 18 3 26 3z" />
    <glyph glyph-name="uni0410" unicode="&#x410;" horiz-adv-x="453" 
d="M77 0c-3 0 -5 2 -5 5v527c0 105 62 175 154 175s154 -70 155 -175v-527c1 -3 -1 -5 -4 -5h-10c-3 0 -5 2 -6 5v272h-269v-272c0 -3 -2 -5 -5 -5h-10zM92 296h269v236c0 95 -52 156 -135 156c-80 0 -134 -61 -134 -156v-236z" />
    <glyph glyph-name="uni0411" unicode="&#x411;" horiz-adv-x="422" 
d="M82 -2c-6 0 -10 4 -10 10v534c0 96 58 160 145 160h129c3 0 5 -2 5 -5v-9c0 -3 -2 -5 -5 -5h-129c-79 0 -125 -51 -125 -141v-152h135c84 0 153 -65 153 -153v-84c0 -85 -69 -155 -153 -155h-145zM92 17h135c74 0 133 60 133 136v84c0 78 -59 134 -133 134h-135v-354z
" />
    <glyph glyph-name="uni0412" unicode="&#x412;" horiz-adv-x="430" 
d="M282 362c61 -20 98 -73 98 -145v-64c0 -93 -61 -155 -153 -155h-145c-6 0 -10 4 -10 10v539c0 96 58 160 145 160s145 -64 145 -160v-40c0 -71 -31 -123 -80 -145zM92 547v-177h135c69 0 115 55 115 137v40c0 85 -50 141 -125 141s-125 -56 -125 -141zM360 153v64
c0 80 -53 134 -133 134h-135v-334h135c80 0 133 54 133 136z" />
    <glyph glyph-name="uni0413" unicode="&#x413;" horiz-adv-x="349" 
d="M77 0c-3 0 -5 2 -5 5v537c0 96 59 160 147 160h95c3 0 5 -2 5 -5v-9c0 -3 -2 -5 -5 -5h-95c-76 0 -127 -56 -127 -141v-537c0 -3 -2 -5 -5 -5h-10z" />
    <glyph glyph-name="uni0403" unicode="&#x403;" horiz-adv-x="349" 
d="M186 769c-4 0 -5 3 -3 6l72 90c1 2 4 3 6 3h13c4 0 6 -2 3 -6l-79 -90c-1 -2 -4 -3 -6 -3h-6zM77 0c-3 0 -5 2 -5 5v537c0 96 59 160 147 160h95c3 0 5 -2 5 -5v-9c0 -3 -2 -5 -5 -5h-95c-76 0 -127 -56 -127 -141v-537c0 -3 -2 -5 -5 -5h-10z" />
    <glyph glyph-name="uni0490" unicode="&#x490;" horiz-adv-x="341" 
d="M306 780c3 0 5 -2 5 -5v-87c0 -3 -2 -5 -5 -5h-87c-78 0 -127 -54 -127 -141v-537c0 -3 -2 -5 -5 -5h-10c-3 0 -5 2 -5 5v537c0 96 58 160 147 160h73v73c0 3 2 5 5 5h9z" />
    <glyph glyph-name="uni0414" unicode="&#x414;" horiz-adv-x="470" 
d="M35 -105c-3 0 -5 2 -5 5v100c0 12 7 18 19 21c43 8 68 46 68 108v413c0 101 55 160 147 160h92c13 0 20 -7 20 -20v-663h44c13 0 20 -7 20 -20v-99c0 -3 -2 -5 -5 -5h-9c-3 0 -5 2 -5 5v100h-372v-100c0 -3 -2 -5 -5 -5h-9zM90 19h266v664h-92c-80 0 -127 -52 -127 -141
v-413c0 -49 -17 -88 -47 -110z" />
    <glyph glyph-name="uni0415" unicode="&#x415;" horiz-adv-x="359" 
d="M217 -2c-96 0 -155 70 -155 165v374c0 95 59 165 155 165h90c3 0 5 -2 5 -5v-9c0 -3 -2 -5 -5 -5h-90c-84 0 -135 -60 -135 -146v-171h205c3 0 5 -2 5 -5v-9c0 -3 -2 -5 -5 -5h-205v-184c0 -86 51 -146 135 -146h90c3 0 5 -2 5 -5v-9c0 -3 -2 -5 -5 -5h-90z" />
    <glyph glyph-name="uni0401" unicode="&#x401;" horiz-adv-x="359" 
d="M130 805c-13 0 -22 9 -22 22s9 22 22 22s22 -9 22 -22s-9 -22 -22 -22zM226 805c-13 0 -22 9 -22 22s9 22 22 22s22 -9 22 -22s-9 -22 -22 -22zM217 -2c-96 0 -155 70 -155 165v374c0 95 59 165 155 165h90c3 0 5 -2 5 -5v-9c0 -3 -2 -5 -5 -5h-90
c-84 0 -135 -60 -135 -146v-171h205c3 0 5 -2 5 -5v-9c0 -3 -2 -5 -5 -5h-205v-184c0 -86 51 -146 135 -146h90c3 0 5 -2 5 -5v-9c0 -3 -2 -5 -5 -5h-90z" />
    <glyph glyph-name="uni0416" unicode="&#x416;" horiz-adv-x="688" 
d="M79 0c-3 0 -5 2 -5 5v200c0 83 59 153 135 164l-147 325c-1 3 0 6 3 6h11c2 0 5 -2 6 -4l147 -326h105v325c0 3 2 5 5 5h10c3 0 5 -2 5 -5v-325h105l147 326c1 2 4 4 6 4h11c3 0 4 -3 3 -6l-147 -325c76 -11 135 -81 135 -164v-200c0 -3 -2 -5 -5 -5h-10c-3 0 -5 2 -5 5
v200c0 81 -61 146 -135 146h-105v-346c0 -3 -2 -5 -5 -5h-10c-3 0 -5 2 -5 5v346h-105c-74 0 -135 -65 -135 -146v-200c0 -3 -2 -5 -5 -5h-10z" />
    <glyph glyph-name="uni0417" unicode="&#x417;" horiz-adv-x="410" 
d="M201 -7c-91 0 -153 64 -155 160c0 3 2 5 5 5h10c3 0 5 -2 5 -5c2 -85 56 -141 135 -141c84 0 139 62 139 156v39c0 86 -55 144 -139 144h-73c-3 0 -5 2 -5 5v9c0 3 2 5 5 5h83c72 0 115 51 115 137v40c0 85 -50 141 -125 141c-74 0 -123 -54 -125 -141c0 -3 -2 -5 -5 -5
h-10c-3 0 -5 2 -5 5c2 98 59 160 145 160c87 0 145 -64 145 -160v-40c0 -64 -23 -125 -92 -146c69 -18 106 -83 106 -154v-39c0 -105 -63 -175 -159 -175z" />
    <glyph glyph-name="uni0418" unicode="&#x418;" horiz-adv-x="444" 
d="M342 695c0 3 2 5 5 5h10c3 0 5 -2 5 -5v-687c0 -6 -4 -10 -10 -10h-130c-83 0 -150 69 -150 165v532c0 3 2 5 5 5h10c3 0 5 -2 5 -5v-532c0 -87 59 -146 130 -146h120v678z" />
    <glyph glyph-name="uni0419" unicode="&#x419;" horiz-adv-x="444" 
d="M224 769c-59 0 -99 38 -101 94c0 3 2 5 5 5h9c3 0 5 -2 5 -5c2 -49 32 -77 82 -77s80 28 82 77c0 3 2 5 5 5h9c3 0 5 -2 5 -5c-2 -56 -42 -94 -101 -94zM342 695c0 3 2 5 5 5h10c3 0 5 -2 5 -5v-687c0 -6 -4 -10 -10 -10h-130c-83 0 -150 69 -150 165v532c0 3 2 5 5 5h10
c3 0 5 -2 5 -5v-532c0 -87 59 -146 130 -146h120v678z" />
    <glyph glyph-name="uni040D" unicode="&#x40d;" horiz-adv-x="444" 
d="M244 769h-6c-2 0 -5 1 -6 3l-79 90c-3 4 -1 6 3 6h13c2 0 5 -1 6 -3l72 -90c2 -3 1 -6 -3 -6zM342 695c0 3 2 5 5 5h10c3 0 5 -2 5 -5v-687c0 -6 -4 -10 -10 -10h-130c-83 0 -150 69 -150 165v532c0 3 2 5 5 5h10c3 0 5 -2 5 -5v-532c0 -87 59 -146 130 -146h120v678z
" />
    <glyph glyph-name="uni041A" unicode="&#x41a;" horiz-adv-x="456" 
d="M87 0c-3 0 -5 2 -5 5v690c0 3 2 5 5 5h10c3 0 5 -2 5 -5v-325h125l147 326c1 2 4 4 6 4h11c3 0 4 -3 3 -6l-147 -325c76 -11 135 -81 135 -164v-200c0 -3 -2 -5 -5 -5h-10c-3 0 -5 2 -5 5v200c0 81 -61 146 -135 146h-125v-346c0 -3 -2 -5 -5 -5h-10z" />
    <glyph glyph-name="uni040C" unicode="&#x40c;" horiz-adv-x="456" 
d="M216 769c-4 0 -5 3 -3 6l72 90c1 2 4 3 6 3h13c4 0 6 -2 3 -6l-79 -90c-1 -2 -4 -3 -6 -3h-6zM87 0c-3 0 -5 2 -5 5v690c0 3 2 5 5 5h10c3 0 5 -2 5 -5v-325h125l147 326c1 2 4 4 6 4h11c3 0 4 -3 3 -6l-147 -325c76 -11 135 -81 135 -164v-200c0 -3 -2 -5 -5 -5h-10
c-3 0 -5 2 -5 5v200c0 81 -61 146 -135 146h-125v-346c0 -3 -2 -5 -5 -5h-10z" />
    <glyph glyph-name="uni041B" unicode="&#x41b;" horiz-adv-x="473" 
d="M35 -2c-3 0 -5 2 -5 5v9c0 3 2 5 5 5c59 2 92 42 92 121v404c0 96 58 160 147 160h97c13 0 20 -7 20 -20v-677c0 -3 -2 -5 -5 -5h-10c-3 0 -5 2 -5 5v678h-97c-81 0 -127 -51 -127 -141v-404c0 -86 -44 -137 -112 -140z" />
    <glyph glyph-name="uni041C" unicode="&#x41c;" horiz-adv-x="628" 
d="M87 0c-3 0 -5 2 -5 5v692c0 3 2 5 5 5h11c2 0 5 -2 6 -4l151 -335c19 -43 39 -86 58 -129h2c19 43 39 86 58 129l151 335c1 2 4 4 6 4h11c3 0 5 -2 5 -5v-692c0 -3 -2 -5 -5 -5h-10c-3 0 -5 2 -5 5v436c0 72 1 148 1 220h-1c-24 -56 -51 -114 -76 -170l-122 -271
c-2 -6 -6 -8 -11 -8h-6c-5 0 -9 2 -11 8l-122 271c-25 56 -52 114 -76 170h-1c0 -72 1 -148 1 -220v-436c0 -3 -2 -5 -5 -5h-10z" />
    <glyph glyph-name="uni041D" unicode="&#x41d;" horiz-adv-x="458" 
d="M356 695c0 3 2 5 5 5h10c3 0 5 -2 5 -5v-690c0 -3 -2 -5 -5 -5h-10c-3 0 -5 2 -5 5v342h-254v-342c0 -3 -2 -5 -5 -5h-10c-3 0 -5 2 -5 5v690c0 3 2 5 5 5h10c3 0 5 -2 5 -5v-329h254v329z" />
    <glyph glyph-name="uni041E" unicode="&#x41e;" horiz-adv-x="446" 
d="M223 -7c-98 0 -161 68 -161 184v345c0 117 63 185 161 185s161 -68 161 -185v-345c0 -116 -63 -184 -161 -184zM223 12c86 0 141 60 141 165v345c0 106 -55 166 -141 166s-141 -60 -141 -166v-345c0 -105 55 -165 141 -165z" />
    <glyph glyph-name="uni041F" unicode="&#x41f;" horiz-adv-x="464" 
d="M87 0c-3 0 -5 2 -5 5v675c0 13 7 20 20 20h260c13 0 20 -7 20 -20v-675c0 -3 -2 -5 -5 -5h-10c-3 0 -5 2 -5 5v676h-260v-676c0 -3 -2 -5 -5 -5h-10z" />
    <glyph glyph-name="uni0420" unicode="&#x420;" horiz-adv-x="411" 
d="M77 0c-3 0 -5 2 -5 5v537c0 95 55 165 145 165c91 0 149 -70 149 -165v-97c0 -95 -67 -165 -147 -165h-127v-275c0 -3 -2 -5 -5 -5h-10zM92 299h127c70 0 127 60 127 146v97c0 86 -48 146 -129 146c-78 0 -125 -60 -125 -146v-243z" />
    <glyph glyph-name="uni0421" unicode="&#x421;" horiz-adv-x="420" 
d="M220 -7c-91 0 -158 72 -158 165v384c0 92 67 165 158 165c89 0 151 -71 153 -160c0 -3 -2 -5 -5 -5h-10c-3 0 -5 2 -5 5c-2 80 -53 141 -133 141c-79 0 -138 -63 -138 -146v-384c0 -84 59 -146 138 -146c83 0 136 60 138 141c0 3 2 5 5 5h10c3 0 5 -2 5 -6
c-3 -90 -66 -159 -158 -159z" />
    <glyph glyph-name="uni0422" unicode="&#x422;" horiz-adv-x="360" 
d="M325 700c3 0 5 -2 5 -5v-9c0 -3 -2 -5 -5 -5h-135v-676c0 -3 -2 -5 -5 -5h-10c-3 0 -5 2 -5 5v676h-135c-3 0 -5 2 -5 5v9c0 3 2 5 5 5h290z" />
    <glyph glyph-name="uni0423" unicode="&#x423;" horiz-adv-x="409" 
d="M56 -2c-3 0 -5 2 -5 5v9c0 3 2 5 5 5h141c71 0 120 59 120 146v107h-120c-83 0 -150 69 -150 165v260c0 3 2 5 5 5h10c3 0 5 -2 5 -5v-260c0 -87 59 -146 130 -146h120v406c0 3 2 5 5 5h10c3 0 5 -2 5 -5v-532c0 -96 -57 -165 -140 -165h-141z" />
    <glyph glyph-name="uni040E" unicode="&#x40e;" horiz-adv-x="409" 
d="M189 769c-59 0 -99 38 -101 94c0 3 2 5 5 5h9c3 0 5 -2 5 -5c2 -49 32 -77 82 -77s80 28 82 77c0 3 2 5 5 5h9c3 0 5 -2 5 -5c-2 -56 -42 -94 -101 -94zM56 -2c-3 0 -5 2 -5 5v9c0 3 2 5 5 5h141c71 0 120 59 120 146v107h-120c-83 0 -150 69 -150 165v260c0 3 2 5 5 5
h10c3 0 5 -2 5 -5v-260c0 -87 59 -146 130 -146h120v406c0 3 2 5 5 5h10c3 0 5 -2 5 -5v-532c0 -96 -57 -165 -140 -165h-141z" />
    <glyph glyph-name="uni0424" unicode="&#x424;" horiz-adv-x="630" 
d="M310 -45c-3 0 -5 2 -5 5v95h-80c-115 0 -175 75 -175 195v216c0 126 60 191 175 191h80v79c0 3 2 5 5 5h10c3 0 5 -2 5 -5v-79h80c115 0 175 -65 175 -191v-216c0 -120 -60 -195 -175 -195h-80v-95c0 -3 -2 -5 -5 -5h-10zM225 74h80v564h-80c-104 0 -155 -56 -155 -172
v-216c0 -110 51 -176 155 -176zM325 74h80c104 0 155 66 155 176v216c0 116 -51 172 -155 172h-80v-564z" />
    <glyph glyph-name="uni0425" unicode="&#x425;" horiz-adv-x="424" 
d="M362 502c0 -67 -42 -125 -99 -147c57 -22 99 -81 99 -154v-196c0 -3 -2 -5 -5 -5h-10c-3 0 -5 2 -5 5v196c0 85 -58 145 -130 145c-71 0 -130 -60 -130 -145v-196c0 -3 -2 -5 -5 -5h-10c-3 0 -5 2 -5 5v196c0 73 42 132 98 154c-57 22 -98 80 -98 147v193c0 3 2 5 5 5h10
c3 0 5 -2 5 -5v-193c0 -77 59 -137 130 -137c72 0 130 60 130 137v193c0 3 2 5 5 5h10c3 0 5 -2 5 -5v-193z" />
    <glyph glyph-name="uni0427" unicode="&#x427;" horiz-adv-x="409" 
d="M312 0c-3 0 -5 2 -5 5v245h-120c-83 0 -150 69 -150 165v280c0 3 2 5 5 5h10c3 0 5 -2 5 -5v-280c0 -87 59 -146 130 -146h120v426c0 3 2 5 5 5h10c3 0 5 -2 5 -5v-690c0 -3 -2 -5 -5 -5h-10z" />
    <glyph glyph-name="uni0426" unicode="&#x426;" horiz-adv-x="457" 
d="M412 -105c-3 0 -5 2 -5 5v98h-188c-89 0 -147 64 -147 160v537c0 3 2 5 5 5h10c3 0 5 -2 5 -5v-537c0 -90 46 -141 127 -141h123v678c0 3 2 5 5 5h10c3 0 5 -2 5 -5v-678h45c13 0 20 -7 20 -20v-97c0 -3 -2 -5 -5 -5h-10z" />
    <glyph glyph-name="uni0428" unicode="&#x428;" horiz-adv-x="668" 
d="M219 0c-89 0 -147 64 -147 160v535c0 3 2 5 5 5h10c3 0 5 -2 5 -5v-535c0 -90 46 -141 127 -141h103v676c0 3 2 5 5 5h9c3 0 5 -2 5 -5v-676h226v676c0 3 2 5 5 5h9c3 0 5 -2 5 -5v-675c0 -13 -7 -20 -20 -20h-347z" />
    <glyph glyph-name="uni0429" unicode="&#x429;" horiz-adv-x="680" 
d="M636 -105c-3 0 -5 2 -5 5v100h-412c-89 0 -147 64 -147 160v535c0 3 2 5 5 5h10c3 0 5 -2 5 -5v-535c0 -90 46 -141 127 -141h103v676c0 3 2 5 5 5h9c3 0 5 -2 5 -5v-676h226v676c0 3 2 5 5 5h9c3 0 5 -2 5 -5v-676h44c13 0 20 -7 20 -20v-99c0 -3 -2 -5 -5 -5h-9z" />
    <glyph glyph-name="uni040F" unicode="&#x40f;" horiz-adv-x="464" 
d="M228 -105c-3 0 -5 2 -5 5v100h-121c-13 0 -20 7 -20 20v675c0 3 2 5 5 5h10c3 0 5 -2 5 -5v-676h260v676c0 3 2 5 5 5h10c3 0 5 -2 5 -5v-675c0 -13 -7 -20 -20 -20h-120v-100c0 -3 -2 -5 -5 -5h-9z" />
    <glyph glyph-name="uni042C" unicode="&#x42c;" horiz-adv-x="420" 
d="M102 0c-13 0 -20 7 -20 20v675c0 3 2 5 5 5h10c3 0 5 -2 5 -5v-299h122c93 0 152 -70 152 -155v-86c0 -85 -59 -155 -152 -155h-122zM102 19h122c83 0 132 60 132 136v86c0 76 -49 136 -132 136h-122v-358z" />
    <glyph glyph-name="uni042A" unicode="&#x42a;" horiz-adv-x="482" 
d="M280 396c101 0 158 -70 158 -155v-84c0 -87 -57 -157 -158 -157h-115c-13 0 -20 7 -20 20v661h-110c-3 0 -5 2 -5 5v9c0 3 2 5 5 5h110c13 0 20 -7 20 -20v-284h115zM418 157v84c0 76 -47 136 -138 136h-115v-358h115c91 0 138 60 138 138z" />
    <glyph glyph-name="uni042B" unicode="&#x42b;" horiz-adv-x="556" 
d="M102 0c-13 0 -20 7 -20 20v675c0 3 2 5 5 5h10c3 0 5 -2 5 -5v-299h122c93 0 152 -70 152 -155v-86c0 -85 -59 -155 -152 -155h-122zM459 0c-3 0 -5 2 -5 5v690c0 3 2 5 5 5h10c3 0 5 -2 5 -5v-690c0 -3 -2 -5 -5 -5h-10zM102 19h122c83 0 132 60 132 136v86
c0 76 -49 136 -132 136h-122v-358z" />
    <glyph glyph-name="uni0409" unicode="&#x409;" horiz-adv-x="696" 
d="M35 -4c-3 0 -5 2 -5 5v9c0 3 2 5 5 5c59 2 92 42 92 121v404c0 96 59 160 147 160h94c13 0 20 -7 20 -20v-288h112c93 0 152 -70 152 -155v-82c0 -85 -59 -155 -152 -155h-112c-13 0 -20 7 -20 20v661h-94c-76 0 -127 -56 -127 -141v-404c0 -86 -44 -137 -112 -140z
M388 19h112c83 0 132 60 132 136v82c0 76 -49 136 -132 136h-112v-354z" />
    <glyph glyph-name="uni040A" unicode="&#x40a;" horiz-adv-x="672" 
d="M476 379c93 0 152 -70 152 -155v-69c0 -85 -59 -155 -152 -155h-108c-13 0 -20 7 -20 20v340h-246v-355c0 -3 -2 -5 -5 -5h-10c-3 0 -5 2 -5 5v690c0 3 2 5 5 5h10c3 0 5 -2 5 -5v-316h246v316c0 3 2 5 5 5h10c3 0 5 -2 5 -5v-316h108zM608 155v69c0 76 -49 136 -132 136
h-108v-341h108c83 0 132 60 132 136z" />
    <glyph glyph-name="uni0405" unicode="&#x405;" horiz-adv-x="409" 
d="M205 -7c-95 0 -156 68 -156 160c0 3 2 5 5 5h10c3 0 5 -2 5 -5c2 -81 53 -141 136 -141c85 0 135 60 135 137c0 195 -286 208 -286 402c0 94 64 156 151 156c84 0 150 -62 150 -160c0 -3 -2 -5 -5 -5h-10c-3 0 -5 2 -5 5c-2 89 -56 141 -130 141
c-75 0 -131 -52 -131 -137c0 -179 286 -197 286 -402c0 -87 -60 -156 -155 -156z" />
    <glyph glyph-name="uni0404" unicode="&#x404;" horiz-adv-x="420" 
d="M373 158c3 0 5 -2 5 -6c-3 -90 -66 -159 -158 -159c-91 0 -158 72 -158 165v384c0 92 67 165 158 165c89 0 151 -71 153 -160c0 -3 -2 -5 -5 -5h-10c-3 0 -5 2 -5 5c-2 80 -53 141 -133 141c-79 0 -138 -63 -138 -146v-172h233c3 0 5 -2 5 -5v-9c0 -3 -2 -5 -5 -5h-233
v-193c0 -84 59 -146 138 -146c83 0 136 60 138 141c0 3 2 5 5 5h10z" />
    <glyph glyph-name="uni042D" unicode="&#x42d;" horiz-adv-x="420" 
d="M200 707c91 0 158 -73 158 -165v-384c0 -93 -67 -165 -158 -165c-92 0 -155 69 -158 159c0 4 2 6 5 6h10c3 0 5 -2 5 -5c2 -81 55 -141 138 -141c79 0 138 62 138 146v193h-233c-3 0 -5 2 -5 5v9c0 3 2 5 5 5h233v172c0 83 -59 146 -138 146c-80 0 -131 -61 -133 -141
c0 -3 -2 -5 -5 -5h-10c-3 0 -5 2 -5 5c2 89 64 160 153 160z" />
    <glyph glyph-name="uni0406" unicode="&#x406;" horiz-adv-x="184" 
d="M82 695c0 3 2 5 5 5h10c3 0 5 -2 5 -5v-690c0 -3 -2 -5 -5 -5h-10c-3 0 -5 2 -5 5v690z" />
    <glyph glyph-name="uni0407" unicode="&#x407;" horiz-adv-x="184" 
d="M44 805c-13 0 -22 9 -22 22s9 22 22 22s22 -9 22 -22s-9 -22 -22 -22zM140 805c-13 0 -22 9 -22 22s9 22 22 22s22 -9 22 -22s-9 -22 -22 -22zM82 695c0 3 2 5 5 5h10c3 0 5 -2 5 -5v-690c0 -3 -2 -5 -5 -5h-10c-3 0 -5 2 -5 5v690z" />
    <glyph glyph-name="uni0408" unicode="&#x408;" horiz-adv-x="408" 
d="M185 -7c-93 0 -153 68 -155 160c0 3 2 5 5 5h10c3 0 5 -2 5 -5c2 -83 52 -141 135 -141c92 0 131 60 131 166v517c0 3 2 5 5 5h10c3 0 5 -2 5 -5v-517c0 -115 -47 -185 -151 -185z" />
    <glyph glyph-name="uni040B" unicode="&#x40b;" horiz-adv-x="522" 
d="M175 0c-3 0 -5 2 -5 5v676h-135c-3 0 -5 2 -5 5v9c0 3 2 5 5 5h290c3 0 5 -2 5 -5v-9c0 -3 -2 -5 -5 -5h-135v-251c23 49 67 77 124 77c89 0 143 -66 143 -170v-332c0 -3 -2 -5 -5 -5h-9c-3 0 -5 2 -5 5v332c0 94 -45 152 -124 152c-78 0 -124 -58 -124 -152v-332
c0 -3 -2 -5 -5 -5h-10z" />
    <glyph glyph-name="uni042E" unicode="&#x42e;" horiz-adv-x="591" 
d="M374 707c93 0 155 -66 155 -165v-384c0 -99 -62 -165 -155 -165s-155 66 -155 165v189h-117v-342c0 -3 -2 -5 -5 -5h-10c-3 0 -5 2 -5 5v690c0 3 2 5 5 5h10c3 0 5 -2 5 -5v-329h117v176c0 99 62 165 155 165zM509 158v384c0 88 -54 146 -135 146s-135 -58 -135 -146
v-384c0 -88 54 -146 135 -146s135 58 135 146z" />
    <glyph glyph-name="uni042F" unicode="&#x42f;" horiz-adv-x="434" 
d="M210 707c89 0 152 -70 152 -165v-537c0 -3 -2 -5 -5 -5h-10c-3 0 -5 2 -5 5v291h-119l-154 -292c-1 -3 -4 -4 -6 -4h-11c-4 0 -6 2 -4 6l154 290c-84 4 -144 73 -144 165v81c0 95 64 165 152 165zM342 315v227c0 86 -55 146 -132 146c-78 0 -132 -60 -132 -146v-81
c0 -86 54 -146 132 -146h132z" />
    <glyph glyph-name="uni0402" unicode="&#x402;" horiz-adv-x="515" 
d="M313 -2c-3 0 -5 2 -5 5v8c0 3 2 5 5 5c77 3 125 61 125 132v189c0 94 -45 152 -124 152c-78 0 -124 -58 -124 -152v-332c0 -3 -2 -5 -5 -5h-10c-3 0 -5 2 -5 5v676h-135c-3 0 -5 2 -5 5v9c0 3 2 5 5 5h290c3 0 5 -2 5 -5v-9c0 -3 -2 -5 -5 -5h-135v-253
c23 51 67 79 124 79c89 0 143 -66 143 -170v-189c0 -81 -57 -147 -144 -150z" />
    <glyph glyph-name="uni0414.loclBGR" horiz-adv-x="483" 
d="M29 -105c-3 0 -5 2 -5 5v99c0 13 7 20 20 20h32l149 672c1 6 5 9 11 9h12c6 0 10 -3 11 -9l149 -672h31c13 0 20 -7 20 -20v-99c0 -3 -2 -5 -5 -5h-9c-3 0 -5 2 -5 5v100h-397v-100c0 -3 -2 -5 -5 -5h-9zM96 19h292l-146 658z" />
    <glyph glyph-name="uni0418.loclBGR" horiz-adv-x="462" 
d="M226 -7c-90 0 -154 69 -154 175v527c0 3 2 5 5 5h10c3 0 5 -2 5 -5v-527c0 -97 56 -156 134 -156c74 0 134 59 134 146v537c0 3 2 5 5 5h10c3 0 5 -2 5 -5v-690c0 -3 -2 -5 -5 -5h-10c-3 0 -5 2 -5 5v69c-26 -50 -77 -81 -134 -81z" />
    <glyph glyph-name="uni0419.loclBGR" horiz-adv-x="462" 
d="M228 769c-59 0 -99 38 -101 94c0 3 2 5 5 5h9c3 0 5 -2 5 -5c2 -49 32 -77 82 -77s80 28 82 77c0 3 2 5 5 5h9c3 0 5 -2 5 -5c-2 -56 -42 -94 -101 -94zM226 -7c-90 0 -154 69 -154 175v527c0 3 2 5 5 5h10c3 0 5 -2 5 -5v-527c0 -97 56 -156 134 -156
c74 0 134 59 134 146v537c0 3 2 5 5 5h10c3 0 5 -2 5 -5v-690c0 -3 -2 -5 -5 -5h-10c-3 0 -5 2 -5 5v69c-26 -50 -77 -81 -134 -81z" />
    <glyph glyph-name="uni040D.loclBGR" horiz-adv-x="462" 
d="M248 769h-6c-2 0 -5 1 -6 3l-79 90c-3 4 -1 6 3 6h13c2 0 5 -1 6 -3l72 -90c2 -3 1 -6 -3 -6zM226 -7c-90 0 -154 69 -154 175v527c0 3 2 5 5 5h10c3 0 5 -2 5 -5v-527c0 -97 56 -156 134 -156c74 0 134 59 134 146v537c0 3 2 5 5 5h10c3 0 5 -2 5 -5v-690
c0 -3 -2 -5 -5 -5h-10c-3 0 -5 2 -5 5v69c-26 -50 -77 -81 -134 -81z" />
    <glyph glyph-name="uni041B.loclBGR" horiz-adv-x="400" 
d="M370 6c1 -4 -2 -6 -5 -6h-9c-3 0 -5 1 -6 4l-150 675l-150 -675c-1 -3 -3 -4 -6 -4h-9c-3 0 -6 2 -5 6l153 687c1 6 5 9 11 9h12c6 0 10 -3 11 -9z" />
    <glyph glyph-name="uni041F.loclBGR" horiz-adv-x="452" 
d="M77 0c-3 0 -5 2 -5 5v527c0 106 62 175 154 175c91 0 154 -69 154 -175v-527c0 -3 -2 -5 -5 -5h-10c-3 0 -5 2 -5 5v527c0 97 -53 156 -134 156c-80 0 -134 -59 -134 -156v-527c0 -3 -2 -5 -5 -5h-10z" />
    <glyph glyph-name="uni0422.loclBGR" horiz-adv-x="360" 
d="M325 700c3 0 5 -2 5 -5v-9c0 -3 -2 -5 -5 -5h-135v-676c0 -3 -2 -5 -5 -5h-10c-3 0 -5 2 -5 5v676h-135c-3 0 -5 2 -5 5v9c0 3 2 5 5 5h290z" />
    <glyph glyph-name="uni0423.loclBGR" horiz-adv-x="404" 
d="M337 700c3 0 5 -2 5 -5v-530c0 -96 -63 -165 -150 -165h-138c-3 0 -5 2 -5 5v9c0 3 2 5 5 5h138c77 0 130 59 130 146v147c-25 -50 -72 -79 -130 -79c-88 0 -150 69 -150 165v297c0 3 2 5 5 5h10c3 0 5 -2 5 -5v-297c0 -87 54 -146 130 -146c77 0 130 59 130 146v297
c0 3 2 5 5 5h10z" />
    <glyph glyph-name="uni040E.loclBGR" horiz-adv-x="404" 
d="M186 769c-59 0 -99 38 -101 94c0 3 2 5 5 5h9c3 0 5 -2 5 -5c2 -49 32 -77 82 -77s80 28 82 77c0 3 2 5 5 5h9c3 0 5 -2 5 -5c-2 -56 -42 -94 -101 -94zM337 700c3 0 5 -2 5 -5v-530c0 -96 -63 -165 -150 -165h-138c-3 0 -5 2 -5 5v9c0 3 2 5 5 5h138
c77 0 130 59 130 146v147c-25 -50 -72 -79 -130 -79c-88 0 -150 69 -150 165v297c0 3 2 5 5 5h10c3 0 5 -2 5 -5v-297c0 -87 54 -146 130 -146c77 0 130 59 130 146v297c0 3 2 5 5 5h10z" />
    <glyph glyph-name="uni0424.loclBGR" horiz-adv-x="684" 
d="M477 707c87 0 145 -66 145 -165v-384c0 -99 -58 -165 -145 -165c-57 0 -105 34 -125 90v-160c0 -3 -2 -5 -5 -5h-10c-3 0 -5 2 -5 5v160c-20 -56 -68 -90 -125 -90c-87 0 -145 66 -145 165v384c0 99 58 165 145 165c57 0 105 -32 125 -86v142c0 3 2 5 5 5h10
c3 0 5 -2 5 -5v-142c20 54 68 86 125 86zM207 12c75 0 125 58 125 146v384c0 88 -50 146 -125 146s-125 -58 -125 -146v-384c0 -88 50 -146 125 -146zM602 158v384c0 88 -50 146 -125 146s-125 -58 -125 -146v-384c0 -88 50 -146 125 -146s125 58 125 146z" />
    <glyph glyph-name="uni0427.loclBGR" horiz-adv-x="429" 
d="M332 0c-3 0 -5 2 -5 5v307c-25 -49 -72 -79 -130 -79c-88 0 -150 69 -150 165v297c0 3 2 5 5 5h10c3 0 5 -2 5 -5v-297c0 -87 54 -146 130 -146c77 0 130 59 130 146v297c0 3 2 5 5 5h10c3 0 5 -2 5 -5v-690c0 -3 -2 -5 -5 -5h-10z" />
    <glyph glyph-name="uni0426.loclBGR" horiz-adv-x="466" 
d="M421 -105c-3 0 -5 2 -5 5v100c-40 7 -54 38 -56 74c-28 -53 -79 -81 -135 -81c-88 0 -153 69 -153 175v527c0 3 2 5 5 5h10c3 0 5 -2 5 -5v-527c0 -97 57 -156 133 -156s135 59 135 146v537c0 3 2 5 5 5h10c3 0 5 -2 5 -5v-608c0 -92 56 -42 56 -86v-101
c0 -3 -2 -5 -5 -5h-10z" />
    <glyph glyph-name="uni0428.loclBGR" horiz-adv-x="706" 
d="M215 -7c-86 0 -143 64 -143 160v542c0 3 2 5 5 5h10c3 0 5 -2 5 -5v-542c0 -85 49 -141 123 -141s123 56 123 141v542c0 3 2 5 5 5h10c3 0 5 -2 5 -5v-542c0 -85 49 -141 123 -141s123 56 123 141v542c0 3 2 5 5 5h10c3 0 5 -2 5 -5v-690c0 -3 -2 -5 -5 -5h-10
c-3 0 -5 2 -5 5v60c-24 -45 -68 -72 -123 -72c-64 0 -113 36 -133 95c-20 -59 -69 -95 -133 -95z" />
    <glyph glyph-name="uni0429.loclBGR" horiz-adv-x="710" 
d="M665 -105c-3 0 -5 2 -5 5v100c-38 7 -53 35 -56 69c-22 -46 -73 -76 -125 -76c-61 0 -111 41 -131 102c-20 -61 -70 -102 -135 -102c-84 0 -141 69 -141 165v537c0 3 2 5 5 5h10c3 0 5 -2 5 -5v-537c0 -87 49 -146 122 -146c75 0 124 59 124 146v537c0 3 2 5 5 5h10
c3 0 5 -2 5 -5v-537c0 -87 51 -146 124 -146c67 0 122 49 122 136v547c0 3 2 5 5 5h10c3 0 5 -2 5 -5v-608c0 -92 56 -42 56 -86v-101c0 -3 -2 -5 -5 -5h-10z" />
    <glyph glyph-name="uni041B.ss01" horiz-adv-x="490" 
d="M35 -3c-3 0 -5 2 -5 5v9c0 3 2 5 5 5c67 3 103 60 103 163v353c0 106 51 175 140 175c91 0 140 -69 140 -175v-527c0 -3 -2 -5 -5 -5h-10c-3 0 -5 2 -5 5v527c0 97 -39 156 -120 156c-77 0 -120 -59 -120 -156v-353c0 -112 -43 -178 -123 -182z" />
    <glyph glyph-name="uni0430" unicode="&#x430;" horiz-adv-x="392" 
d="M200 -7c-95 0 -149 56 -149 155c0 87 54 140 158 140h106v68c0 84 -44 133 -115 133c-75 0 -118 -47 -122 -109c0 -3 -2 -5 -5 -5h-9c-3 0 -5 2 -5 5c4 73 54 127 141 127c83 0 134 -56 134 -151v-208c0 -95 -48 -155 -134 -155zM200 11c74 0 115 53 115 137v122h-106
c-92 0 -139 -46 -139 -122c0 -87 47 -137 130 -137z" />
    <glyph glyph-name="uni0431" unicode="&#x431;" horiz-adv-x="415" 
d="M211 -7c-88 0 -146 64 -146 160v318c0 98 37 151 97 174c37 14 104 38 139 50c3 1 6 1 7 -3l2 -6c1 -3 -1 -5 -4 -6l-140 -54c-49 -19 -82 -62 -82 -155v-59c24 47 70 75 128 75c88 0 145 -64 145 -160v-174c0 -96 -58 -160 -146 -160zM211 11c76 0 127 57 127 142v174
c0 85 -51 142 -127 142s-127 -57 -127 -142v-174c0 -85 51 -142 127 -142z" />
    <glyph glyph-name="uni0432" unicode="&#x432;" horiz-adv-x="399" 
d="M233 269c82 -17 116 -71 116 -128c0 -77 -62 -141 -168 -141h-96c-13 0 -20 7 -20 20v349c0 86 47 138 127 138c82 0 133 -54 133 -123c0 -57 -36 -101 -92 -115zM84 369v-92h107c81 0 115 57 115 109c0 57 -41 103 -114 103c-70 0 -108 -43 -108 -120zM181 18
c95 0 149 57 149 123c0 61 -45 118 -139 118h-107v-241h97z" />
    <glyph glyph-name="uni0433" unicode="&#x433;" horiz-adv-x="282" 
d="M70 0c-3 0 -5 2 -5 5v353c0 95 45 144 130 144h55c3 0 5 -2 5 -5v-8c0 -3 -2 -5 -5 -5h-55c-74 0 -111 -42 -111 -126v-353c0 -3 -2 -5 -5 -5h-9z" />
    <glyph glyph-name="uni0453" unicode="&#x453;" horiz-adv-x="280" 
d="M246 666c4 0 5 -3 3 -6l-68 -98c-1 -2 -4 -3 -6 -3h-7c-4 0 -5 2 -3 6l63 98c1 2 4 3 6 3h12zM70 0c-3 0 -5 2 -5 5v353c0 95 45 144 130 144h55c3 0 5 -2 5 -5v-8c0 -3 -2 -5 -5 -5h-55c-74 0 -111 -42 -111 -126v-353c0 -3 -2 -5 -5 -5h-9z" />
    <glyph glyph-name="uni0491" unicode="&#x491;" horiz-adv-x="282" 
d="M70 0c-3 0 -5 2 -5 5v353c0 95 45 144 130 144h41v69c0 3 2 3 5 3h9c3 0 5 0 5 -3v-77c0 -6 -4 -10 -10 -10h-50c-74 0 -111 -42 -111 -126v-353c0 -3 -2 -5 -5 -5h-9z" />
    <glyph glyph-name="uni0434" unicode="&#x434;" horiz-adv-x="444" 
d="M33 -103c-3 0 -5 2 -5 5v94c0 14 7 21 23 25c42 11 61 45 61 107v224c0 85 58 148 153 148h75c13 0 20 -7 20 -20v-462h37c13 0 20 -7 20 -20v-96c0 -3 -2 -5 -5 -5h-7c-3 0 -5 2 -5 5v98h-355v-98c0 -3 -2 -5 -5 -5h-7zM90 18h251v464h-76c-85 0 -134 -55 -134 -130
v-224c0 -51 -13 -89 -41 -110z" />
    <glyph glyph-name="uni0435" unicode="&#x435;" horiz-adv-x="389" 
d="M194 -7c-92 0 -136 66 -136 150v213c0 87 55 151 140 151c82 0 140 -66 140 -147s-52 -141 -161 -141h-100v-76c0 -74 37 -132 117 -132c81 0 119 55 121 124c0 3 2 5 5 5h9c3 0 5 -2 5 -4c-2 -79 -48 -143 -140 -143zM77 237h100c100 0 142 52 142 123s-49 129 -121 129
c-75 0 -121 -56 -121 -133v-119z" />
    <glyph glyph-name="uni0451" unicode="&#x451;" horiz-adv-x="389" 
d="M144 585c-13 0 -22 9 -22 22s9 22 22 22s22 -9 22 -22s-9 -22 -22 -22zM240 585c-13 0 -22 9 -22 22s9 22 22 22s22 -9 22 -22s-9 -22 -22 -22zM194 -7c-92 0 -136 66 -136 150v213c0 87 55 151 140 151c82 0 140 -66 140 -147s-52 -141 -161 -141h-100v-76
c0 -74 37 -132 117 -132c81 0 119 55 121 124c0 3 2 5 5 5h9c3 0 5 -2 5 -4c-2 -79 -48 -143 -140 -143zM77 237h100c100 0 142 52 142 123s-49 129 -121 129c-75 0 -121 -56 -121 -133v-119z" />
    <glyph glyph-name="uni0436" unicode="&#x436;" horiz-adv-x="561" 
d="M60 0c-3 0 -5 2 -5 5v126c0 87 51 139 137 139l-143 224c-2 3 -1 6 3 6h12c2 0 5 -1 6 -3l143 -226h58v224c0 3 2 5 5 5h9c3 0 5 -2 5 -5v-224h58l143 226c1 2 4 3 6 3h12c4 0 5 -3 3 -6l-143 -224c86 0 137 -52 137 -139v-126c0 -3 -2 -5 -5 -5h-9c-3 0 -5 2 -5 5v126
c0 77 -44 122 -118 122h-79v-248c0 -3 -2 -5 -5 -5h-9c-3 0 -5 2 -5 5v248h-79c-74 0 -118 -45 -118 -122v-126c0 -3 -2 -5 -5 -5h-9z" />
    <glyph glyph-name="uni0437" unicode="&#x437;" horiz-adv-x="369" 
d="M178 -7c-78 0 -137 63 -140 142c0 3 2 5 5 5h9c3 0 5 -2 5 -5c2 -69 53 -124 121 -124c72 0 122 52 122 128c0 65 -42 118 -128 118h-59c-3 0 -5 2 -5 5v8c0 3 2 5 5 5h59c79 0 112 58 112 109c0 61 -37 105 -109 105c-71 0 -105 -43 -107 -109c0 -3 -2 -5 -5 -5h-9
c-3 0 -5 2 -5 5c2 75 45 127 126 127s128 -52 128 -124c0 -57 -36 -103 -91 -116c76 -17 107 -67 107 -128c0 -86 -59 -146 -141 -146z" />
    <glyph glyph-name="uni0438" unicode="&#x438;" horiz-adv-x="404" 
d="M208 0c-84 0 -143 66 -143 150v345c0 3 2 5 5 5h9c3 0 5 -2 5 -5v-345c0 -74 50 -132 124 -132h103v477c0 3 2 5 5 5h9c3 0 5 -2 5 -5v-475c0 -13 -7 -20 -20 -20h-102z" />
    <glyph glyph-name="uni0439" unicode="&#x439;" horiz-adv-x="404" 
d="M199 563c-59 0 -99 40 -101 99c0 3 2 5 5 5h9c3 0 5 -2 5 -5c2 -52 32 -82 82 -82s80 30 82 82c0 3 2 5 5 5h9c3 0 5 -2 5 -5c-2 -59 -42 -99 -101 -99zM208 0c-84 0 -143 66 -143 150v345c0 3 2 5 5 5h9c3 0 5 -2 5 -5v-345c0 -74 50 -132 124 -132h103v477c0 3 2 5 5 5
h9c3 0 5 -2 5 -5v-475c0 -13 -7 -20 -20 -20h-102z" />
    <glyph glyph-name="uni045D" unicode="&#x45d;" horiz-adv-x="404" 
d="M133 666h12c2 0 5 -1 6 -3l63 -98c2 -4 1 -6 -3 -6h-7c-2 0 -5 1 -6 3l-68 98c-2 3 -1 6 3 6zM208 0c-84 0 -143 66 -143 150v345c0 3 2 5 5 5h9c3 0 5 -2 5 -5v-345c0 -74 50 -132 124 -132h103v477c0 3 2 5 5 5h9c3 0 5 -2 5 -5v-475c0 -13 -7 -20 -20 -20h-102z" />
    <glyph glyph-name="uni043A" unicode="&#x43a;" horiz-adv-x="392" 
d="M192 270c92 0 147 -52 147 -139v-126c0 -3 -2 -5 -5 -5h-9c-3 0 -5 2 -5 5v126c0 77 -44 122 -118 122h-109v-248c0 -3 -2 -5 -5 -5h-9c-3 0 -5 2 -5 5v491c0 3 2 5 5 5h9c3 0 5 -2 5 -5v-225h78l151 226c1 2 4 3 6 3h12c4 0 5 -3 3 -6z" />
    <glyph glyph-name="uni045C" unicode="&#x45c;" horiz-adv-x="392" 
d="M260 666c4 0 5 -3 3 -6l-68 -98c-1 -2 -4 -3 -6 -3h-7c-4 0 -5 2 -3 6l63 98c1 2 4 3 6 3h12zM192 270c92 0 147 -52 147 -139v-126c0 -3 -2 -5 -5 -5h-9c-3 0 -5 2 -5 5v126c0 77 -44 122 -118 122h-109v-248c0 -3 -2 -5 -5 -5h-9c-3 0 -5 2 -5 5v491c0 3 2 5 5 5h9
c3 0 5 -2 5 -5v-225h78l151 226c1 2 4 3 6 3h12c4 0 5 -3 3 -6z" />
    <glyph glyph-name="uni043B" unicode="&#x43b;" horiz-adv-x="436" 
d="M33 -4c-3 0 -5 2 -5 5v8c0 3 2 5 5 5c56 2 79 42 79 110v228c0 85 58 148 153 148h77c13 0 20 -7 20 -20v-475c0 -3 -2 -5 -5 -5h-9c-3 0 -5 2 -5 5v477h-78c-85 0 -134 -55 -134 -130v-228c0 -78 -30 -126 -98 -128z" />
    <glyph glyph-name="uni043C" unicode="&#x43c;" horiz-adv-x="528" 
d="M79 0c-3 0 -5 2 -5 5v485c0 6 4 10 10 10h4c5 0 9 -2 12 -7l113 -210l51 -93c16 30 34 61 50 91l114 212c3 5 7 7 12 7h4c6 0 10 -4 10 -10v-485c0 -3 -2 -5 -5 -5h-9c-3 0 -5 2 -5 5v351v108h-1c-19 -36 -39 -71 -58 -107l-97 -180c-3 -5 -7 -7 -12 -7h-6
c-5 0 -9 2 -12 7l-97 180l-59 107h-1c1 -36 1 -73 1 -109v-350c0 -3 -2 -5 -5 -5h-9z" />
    <glyph glyph-name="uni043D" unicode="&#x43d;" horiz-adv-x="410" 
d="M317 495c0 3 2 5 5 5h9c3 0 5 -2 5 -5v-490c0 -3 -2 -5 -5 -5h-9c-3 0 -5 2 -5 5v246h-224v-246c0 -3 -2 -5 -4 -5h-9c-4 0 -6 2 -6 5v490c0 3 2 5 5 5h9c3 0 5 -2 5 -5v-226h224v226z" />
    <glyph glyph-name="uni043E" unicode="&#x43e;" horiz-adv-x="400" 
d="M200 -7c-89 0 -142 66 -142 152v210c0 86 53 152 142 152s142 -66 142 -152v-210c0 -86 -53 -152 -142 -152zM200 11c77 0 123 59 123 134v210c0 75 -46 134 -123 134s-123 -59 -123 -134v-210c0 -75 46 -134 123 -134z" />
    <glyph glyph-name="uni043F" unicode="&#x43f;" horiz-adv-x="410" 
d="M316 500c13 0 20 -7 20 -20v-475c0 -3 -2 -5 -5 -5h-9c-3 0 -5 2 -5 5v477h-224v-477c0 -3 -2 -5 -5 -5h-9c-3 0 -5 2 -5 5v475c0 13 7 20 20 20h222z" />
    <glyph glyph-name="uni0440" unicode="&#x440;" horiz-adv-x="407" 
d="M207 507c81 0 142 -67 142 -150v-214c0 -83 -61 -150 -142 -150c-54 0 -102 33 -123 83v-271c0 -3 -2 -5 -5 -5h-9c-3 0 -5 2 -5 5v552c0 83 61 150 142 150zM330 143v214c0 73 -53 132 -123 132s-123 -59 -123 -132v-214c0 -73 53 -132 123 -132s123 59 123 132z" />
    <glyph glyph-name="uni0441" unicode="&#x441;" horiz-adv-x="390" 
d="M201 -7c-86 0 -143 61 -143 152v203c0 95 56 159 140 159c80 0 136 -51 139 -127c0 -3 -2 -5 -5 -5h-9c-3 0 -5 2 -5 5c-3 65 -51 109 -120 109c-73 0 -121 -56 -121 -141v-203c0 -80 50 -134 124 -134c70 0 119 50 122 124c0 3 2 5 5 5h9c3 0 5 -2 5 -5
c-3 -85 -60 -142 -141 -142z" />
    <glyph glyph-name="uni0442" unicode="&#x442;" horiz-adv-x="327" 
d="M159 0c-3 0 -5 2 -5 5v477h-121c-3 0 -5 2 -5 5v8c0 3 2 5 5 5h261c3 0 5 -2 5 -5v-8c0 -3 -2 -5 -5 -5h-121v-477c0 -3 -2 -5 -5 -5h-9z" />
    <glyph glyph-name="uni0443" unicode="&#x443;" horiz-adv-x="411" 
d="M332 500c3 0 5 -2 5 -5v-555c0 -83 -52 -150 -136 -150c-82 0 -134 63 -136 142c0 3 2 5 5 5h9c3 0 5 -2 5 -5c2 -69 45 -124 117 -124c74 0 117 59 117 132v137c-20 -47 -63 -77 -116 -77c-85 0 -137 66 -137 155v340c0 3 2 5 5 5h9c3 0 5 -2 5 -5v-340
c0 -79 44 -137 118 -137c73 0 116 58 116 137v340c0 3 2 5 5 5h9z" />
    <glyph glyph-name="uni045E" unicode="&#x45e;" horiz-adv-x="411" 
d="M205 563c-59 0 -99 40 -101 99c0 3 2 5 5 5h9c3 0 5 -2 5 -5c2 -52 32 -82 82 -82s80 30 82 82c0 3 2 5 5 5h9c3 0 5 -2 5 -5c-2 -59 -42 -99 -101 -99zM332 500c3 0 5 -2 5 -5v-555c0 -83 -52 -150 -136 -150c-82 0 -134 63 -136 142c0 3 2 5 5 5h9c3 0 5 -2 5 -5
c2 -69 45 -124 117 -124c74 0 117 59 117 132v137c-20 -47 -63 -77 -116 -77c-85 0 -137 66 -137 155v340c0 3 2 5 5 5h9c3 0 5 -2 5 -5v-340c0 -79 44 -137 118 -137c73 0 116 58 116 137v340c0 3 2 5 5 5h9z" />
    <glyph glyph-name="uni0444" unicode="&#x444;" horiz-adv-x="593" 
d="M292 -200c-3 0 -5 2 -5 5v195h-86c-84 0 -143 66 -143 150v200c0 84 59 150 143 150h86v195c0 3 2 5 5 5h9c3 0 5 -2 5 -5v-195h86c84 0 143 -66 143 -150v-200c0 -84 -59 -150 -143 -150h-86v-195c0 -3 -2 -5 -5 -5h-9zM201 18h86v464h-86c-74 0 -124 -58 -124 -132
v-200c0 -74 50 -132 124 -132zM306 18h86c74 0 124 58 124 132v200c0 74 -50 132 -124 132h-86v-464z" />
    <glyph glyph-name="uni0445" unicode="&#x445;" horiz-adv-x="390" 
d="M63 0c-3 0 -5 2 -5 5v104c0 70 36 122 93 141c-57 19 -93 71 -93 141v104c0 3 2 5 5 5h10c3 0 5 -2 5 -5v-104c0 -79 56 -132 117 -132c67 0 117 53 117 132v104c0 3 2 5 5 5h10c3 0 5 -2 5 -5v-104c0 -70 -36 -122 -93 -141c57 -19 93 -71 93 -141v-104
c0 -3 -2 -5 -5 -5h-10c-3 0 -5 2 -5 5v104c0 79 -57 132 -117 132c-67 0 -117 -53 -117 -132v-104c0 -3 -2 -5 -5 -5h-10z" />
    <glyph glyph-name="uni0447" unicode="&#x447;" horiz-adv-x="391" 
d="M312 0c-3 0 -5 2 -5 5v188h-114c-89 0 -143 66 -143 155v147c0 3 2 5 5 5h9c3 0 5 -2 5 -5v-147c0 -79 46 -137 124 -137h114v284c0 3 2 5 5 5h9c3 0 5 -2 5 -5v-490c0 -3 -2 -5 -5 -5h-9z" />
    <glyph glyph-name="uni0446" unicode="&#x446;" horiz-adv-x="438" 
d="M381 -103c-3 0 -5 2 -5 5v98h-168c-94 0 -143 66 -143 160v335c0 3 2 5 5 5h9c3 0 5 -2 5 -5v-335c0 -84 40 -142 124 -142h109v477c0 3 2 5 5 5h9c3 0 5 -2 5 -5v-477h37c14 0 22 -7 22 -20v-96c0 -3 -2 -5 -5 -5h-9z" />
    <glyph glyph-name="uni0448" unicode="&#x448;" horiz-adv-x="612" 
d="M208 0c-94 0 -143 66 -143 160v335c0 3 2 5 5 5h9c3 0 5 -2 5 -5v-335c0 -84 40 -142 124 -142h91v477c0 3 2 5 5 5h9c3 0 5 -2 5 -5v-477h210v477c0 3 2 5 5 5h9c3 0 5 -2 5 -5v-475c0 -13 -7 -20 -20 -20h-319z" />
    <glyph glyph-name="uni0449" unicode="&#x449;" horiz-adv-x="623" 
d="M592 -103c-3 0 -5 2 -5 5v98h-379c-94 0 -143 66 -143 160v335c0 3 2 5 5 5h9c3 0 5 -2 5 -5v-335c0 -84 40 -142 124 -142h91v477c0 3 2 5 5 5h9c3 0 5 -2 5 -5v-477h210v477c0 3 2 5 5 5h9c3 0 5 -2 5 -5v-477h37c13 0 20 -7 20 -20v-96c0 -3 -2 -5 -5 -5h-7z" />
    <glyph glyph-name="uni045F" unicode="&#x45f;" horiz-adv-x="419" 
d="M205 -103c-3 0 -5 2 -5 5v98h-106c-13 0 -20 7 -20 20v475c0 3 2 5 5 5h9c3 0 5 -2 5 -5v-477h233v477c0 3 2 5 5 5h9c3 0 5 -2 5 -5v-475c0 -13 -7 -20 -20 -20h-106v-98c0 -3 -2 -5 -5 -5h-9z" />
    <glyph glyph-name="uni044C" unicode="&#x44c;" horiz-adv-x="393" 
d="M94 0c-13 0 -20 7 -20 20v475c0 3 2 5 5 5h9c3 0 5 -2 5 -5v-199h114c83 0 143 -65 143 -148s-59 -148 -143 -148h-113zM93 18h114c74 0 124 57 124 130s-50 130 -124 130h-114v-260z" />
    <glyph glyph-name="uni044A" unicode="&#x44a;" horiz-adv-x="449" 
d="M255 296c83 0 143 -65 143 -148s-59 -148 -143 -148h-113c-13 0 -20 7 -20 20v462h-89c-3 0 -5 2 -5 5v8c0 3 2 5 5 5h88c13 0 20 -7 20 -20v-184h114zM255 18c74 0 124 57 124 130s-50 130 -124 130h-114v-260h114z" />
    <glyph glyph-name="uni044B" unicode="&#x44b;" horiz-adv-x="497" 
d="M94 0c-13 0 -20 7 -20 20v475c0 3 2 5 5 5h9c3 0 5 -2 5 -5v-209h114c83 0 143 -63 143 -143s-59 -143 -143 -143h-113zM409 0c-3 0 -5 2 -5 5v490c0 3 2 5 5 5h9c3 0 5 -2 5 -5v-490c0 -3 -2 -5 -5 -5h-9zM93 18h114c74 0 124 55 124 125s-50 125 -124 125h-114v-250z
" />
    <glyph glyph-name="uni0459" unicode="&#x459;" horiz-adv-x="647" 
d="M461 286c83 0 143 -63 143 -143s-59 -143 -143 -143h-103c-13 0 -20 7 -20 20v462h-73c-85 0 -134 -55 -134 -130v-224c0 -78 -30 -126 -98 -128c-3 0 -5 2 -5 5v8c0 3 2 5 5 5c56 2 79 42 79 110v224c0 85 58 148 153 148h72c13 0 20 -7 20 -20v-194h104zM461 18
c74 0 124 55 124 125s-50 125 -124 125h-104v-250h104z" />
    <glyph glyph-name="uni045A" unicode="&#x45a;" horiz-adv-x="625" 
d="M79 0c-3 0 -5 2 -5 5v490c0 3 2 5 5 5h9c3 0 5 -2 5 -5v-213h223v213c0 3 2 5 5 5h9c3 0 5 -2 5 -5v-213h104c83 0 143 -62 143 -141s-59 -141 -143 -141h-103c-13 0 -20 7 -20 20v244h-223v-259c0 -3 -2 -5 -5 -5h-9zM335 18h104c74 0 124 54 124 123s-50 123 -124 123
h-104v-246z" />
    <glyph glyph-name="uni0455" unicode="&#x455;" horiz-adv-x="380" 
d="M195 -7c-86 0 -142 49 -144 142c0 3 2 5 5 5h9c3 0 5 -2 5 -5c2 -85 49 -124 125 -124c62 0 115 41 115 107c0 152 -258 94 -258 266c0 72 58 123 134 123c79 0 132 -49 134 -127c0 -3 -2 -5 -5 -5h-9c-3 0 -5 2 -5 5c-2 70 -46 109 -115 109c-64 0 -115 -41 -115 -105
c0 -155 258 -97 258 -266c0 -74 -62 -125 -134 -125z" />
    <glyph glyph-name="uni0454" unicode="&#x454;" horiz-adv-x="397" 
d="M201 -7c-79 0 -143 67 -143 152v203c0 97 63 159 140 159c76 0 138 -59 141 -127c0 -3 -2 -5 -5 -5h-9c-3 0 -5 2 -5 5c-3 58 -56 109 -122 109c-67 0 -121 -54 -121 -141v-78h204c3 0 5 -2 5 -5v-8c0 -3 -2 -5 -5 -5h-204v-107c0 -75 55 -134 124 -134
c67 0 121 55 124 124c0 3 2 5 5 5h9c3 0 5 -2 5 -5c-3 -79 -66 -142 -143 -142z" />
    <glyph glyph-name="uni044D" unicode="&#x44d;" horiz-adv-x="397" 
d="M196 -7c-77 0 -140 63 -143 142c0 3 2 5 5 5h9c3 0 5 -2 5 -5c3 -69 57 -124 124 -124c69 0 124 59 124 134v107h-204c-3 0 -5 2 -5 5v8c0 3 2 5 5 5h204v78c0 87 -54 141 -121 141c-66 0 -119 -51 -122 -109c0 -3 -2 -5 -5 -5h-9c-3 0 -5 2 -5 5c3 68 65 127 141 127
c77 0 140 -62 140 -159v-203c0 -85 -64 -152 -143 -152z" />
    <glyph glyph-name="uni0456" unicode="&#x456;" horiz-adv-x="167" 
d="M84 585c-13 0 -22 9 -22 22s9 22 22 22s22 -9 22 -22s-9 -22 -22 -22zM79 0c-3 0 -5 2 -5 5v490c0 3 2 5 5 5h9c3 0 5 -2 5 -5v-490c0 -3 -2 -5 -5 -5h-9z" />
    <glyph glyph-name="uni0457" unicode="&#x457;" horiz-adv-x="156" 
d="M42 585c-13 0 -22 9 -22 22s9 22 22 22s22 -9 22 -22s-9 -22 -22 -22zM114 585c-13 0 -22 9 -22 22s9 22 22 22s22 -9 22 -22s-9 -22 -22 -22zM77 0c-3 0 -5 2 -5 5v490c0 3 2 5 5 5h9c3 0 5 -2 5 -5v-490c0 -3 -2 -5 -5 -5h-9z" />
    <glyph glyph-name="uni0458" unicode="&#x458;" horiz-adv-x="236" 
d="M140 585c-13 0 -22 9 -22 22s9 22 22 22s22 -9 22 -22s-9 -22 -22 -22zM5 -205c-3 0 -5 2 -5 5v8c0 3 2 5 5 5h2c83 3 123 62 123 142v540c0 3 2 5 5 5h9c3 0 5 -2 5 -5v-540c0 -90 -49 -157 -142 -160h-2z" />
    <glyph glyph-name="uni045B" unicode="&#x45b;" horiz-adv-x="440" 
d="M94 0c-3 0 -5 2 -5 5v603h-56c-3 0 -5 2 -5 5v8c0 3 2 5 5 5h56v69c0 3 2 5 5 5h9c3 0 5 -2 5 -5v-69h157c3 0 5 -2 5 -5v-8c0 -3 -2 -5 -5 -5h-157v-174c24 44 68 73 124 73c84 0 143 -66 143 -150v-352c0 -3 -2 -5 -5 -5h-9c-3 0 -5 2 -5 5v352c0 74 -50 132 -124 132
s-124 -58 -124 -132v-352c0 -3 -2 -5 -5 -5h-9z" />
    <glyph glyph-name="uni044E" unicode="&#x44e;" horiz-adv-x="537" 
d="M341 -7c-83 0 -138 64 -138 160v108h-110v-256c0 -3 -2 -5 -5 -5h-9c-3 0 -5 2 -5 5v490c0 3 2 5 5 5h9c3 0 5 -2 5 -5v-216h110v68c0 96 55 160 138 160s138 -64 138 -160v-194c0 -96 -55 -160 -138 -160zM341 11c71 0 119 57 119 142v194c0 85 -48 142 -119 142
s-119 -57 -119 -142v-194c0 -85 48 -142 119 -142z" />
    <glyph glyph-name="uni044F" unicode="&#x44f;" horiz-adv-x="393" 
d="M195 507c88 0 133 -64 133 -146v-356c0 -3 -2 -5 -5 -5h-9c-3 0 -5 2 -5 5v209h-125l-120 -211c-1 -2 -4 -3 -6 -3h-9c-4 0 -6 2 -4 6l120 211c-67 13 -113 72 -113 144c0 82 59 146 143 146zM309 232v129c0 72 -36 128 -114 128c-74 0 -124 -56 -124 -128
s50 -129 124 -129h114z" />
    <glyph glyph-name="uni0452" unicode="&#x452;" horiz-adv-x="431" 
d="M223 507c84 0 143 -66 143 -150v-417c0 -81 -57 -147 -144 -150c-3 0 -5 2 -5 5v8c0 3 2 5 5 5c77 2 125 61 125 132v417c0 74 -50 132 -124 132s-124 -58 -124 -132v-352c0 -3 -2 -5 -5 -5h-9c-3 0 -5 2 -5 5v603h-56c-3 0 -5 2 -5 5v8c0 3 2 5 5 5h56v69c0 3 2 5 5 5h9
c3 0 5 -2 5 -5v-69h157c3 0 5 -2 5 -5v-8c0 -3 -2 -5 -5 -5h-157v-174c24 44 68 73 124 73z" />
    <glyph glyph-name="uni0432.loclBGR" horiz-adv-x="408" 
d="M249 380c70 -13 106 -78 106 -130v-93c0 -98 -58 -164 -145 -164c-88 0 -145 66 -145 164v383c0 100 49 167 134 167c87 0 134 -67 134 -167v-43c0 -43 -23 -101 -84 -117zM84 540v-152h129c66 0 101 65 101 109v43c0 89 -40 149 -115 149c-73 0 -115 -60 -115 -149z
M336 157v93c0 53 -47 119 -123 119h-129v-212c0 -88 49 -146 126 -146c76 0 126 58 126 146z" />
    <glyph glyph-name="uni0433.loclBGR" horiz-adv-x="380" 
d="M185 -7c-72 0 -134 51 -134 125c0 169 259 123 259 266c0 64 -51 105 -115 105c-69 0 -113 -39 -115 -109c0 -3 -2 -5 -5 -5h-9c-3 0 -5 2 -5 5c2 78 55 127 134 127c76 0 134 -51 134 -123c0 -160 -259 -114 -259 -266c0 -66 53 -107 115 -107c76 0 123 39 125 124
c0 3 2 5 5 5h9c3 0 5 -2 5 -5c-2 -93 -58 -142 -144 -142z" />
    <glyph glyph-name="uni0434.loclBGR" horiz-adv-x="407" 
d="M200 507c84 0 142 -67 142 -154v-413c0 -83 -54 -150 -143 -150c-86 0 -139 63 -141 142c0 3 2 5 5 5h9c3 0 5 -2 5 -5c2 -69 46 -124 122 -124c78 0 124 59 124 132v141c-22 -51 -69 -81 -123 -81c-84 0 -142 67 -142 159v194c0 87 58 154 142 154zM200 18
c73 0 123 59 123 141v194c0 77 -50 136 -123 136s-123 -59 -123 -136v-194c0 -82 50 -141 123 -141z" />
    <glyph glyph-name="uni0436.loclBGR" horiz-adv-x="561" 
d="M509 500c4 0 5 -3 3 -6l-143 -217c86 0 137 -52 137 -139v-133c0 -3 -2 -5 -5 -5h-9c-3 0 -5 2 -5 5v133c0 77 -44 122 -118 122h-79v-255c0 -3 -2 -5 -5 -5h-9c-3 0 -5 2 -5 5v255h-79c-74 0 -118 -45 -118 -122v-133c0 -3 -2 -5 -5 -5h-9c-3 0 -5 2 -5 5v133
c0 87 51 139 137 139l-143 217c-2 3 -1 6 3 6h12c2 0 5 -1 6 -3l143 -219h58v417c0 3 2 5 5 5h9c3 0 5 -2 5 -5v-417h58l143 219c1 2 4 3 6 3h12z" />
    <glyph glyph-name="uni0437.loclBGR" horiz-adv-x="385" 
d="M231 184c63 -14 96 -80 96 -133v-84c0 -108 -47 -177 -149 -177c-96 0 -140 86 -145 182c0 3 2 5 5 5h9c3 0 5 -2 5 -5c5 -86 42 -164 126 -164c90 0 130 61 130 159v84c0 54 -42 122 -125 122h-70c-3 0 -5 2 -5 5v9c0 3 2 5 5 5h70c79 0 113 63 113 105v63
c0 70 -46 129 -116 129c-74 0 -114 -57 -117 -109c0 -3 -2 -5 -5 -5h-9c-3 0 -5 2 -5 5c3 63 50 127 136 127c83 0 135 -68 135 -147v-63c0 -42 -23 -98 -84 -113z" />
    <glyph glyph-name="uni0438.loclBGR" horiz-adv-x="411" 
d="M201 -7c-85 0 -136 66 -136 155v347c0 3 2 5 5 5h9c3 0 5 -2 5 -5v-347c0 -79 43 -137 117 -137s117 58 117 137v347c0 3 2 5 5 5h9c3 0 5 -2 5 -5v-490c0 -3 -2 -5 -5 -5h-9c-3 0 -5 2 -5 5v60c-22 -44 -62 -72 -117 -72z" />
    <glyph glyph-name="uni0439.loclBGR" horiz-adv-x="411" 
d="M208 563c-59 0 -99 40 -101 99c0 3 2 5 5 5h9c3 0 5 -2 5 -5c2 -52 32 -82 82 -82s80 30 82 82c0 3 2 5 5 5h9c3 0 5 -2 5 -5c-2 -59 -42 -99 -101 -99zM201 -7c-85 0 -136 66 -136 155v347c0 3 2 5 5 5h9c3 0 5 -2 5 -5v-347c0 -79 43 -137 117 -137s117 58 117 137v347
c0 3 2 5 5 5h9c3 0 5 -2 5 -5v-490c0 -3 -2 -5 -5 -5h-9c-3 0 -5 2 -5 5v60c-22 -44 -62 -72 -117 -72z" />
    <glyph glyph-name="uni045D.loclBGR" horiz-adv-x="402" 
d="M133 666h12c2 0 5 -1 6 -3l63 -98c2 -4 1 -6 -3 -6h-7c-2 0 -5 1 -6 3l-68 98c-2 3 -1 6 3 6zM201 -7c-85 0 -136 66 -136 155v347c0 3 2 5 5 5h9c3 0 5 -2 5 -5v-347c0 -79 43 -137 117 -137s117 58 117 137v347c0 3 2 5 5 5h9c3 0 5 -2 5 -5v-490c0 -3 -2 -5 -5 -5h-9
c-3 0 -5 2 -5 5v60c-22 -44 -62 -72 -117 -72z" />
    <glyph glyph-name="uni043A.loclBGR" horiz-adv-x="392" 
d="M192 277c92 0 147 -52 147 -139v-133c0 -3 -2 -5 -5 -5h-9c-3 0 -5 2 -5 5v133c0 77 -44 122 -118 122h-109v-255c0 -3 -2 -5 -5 -5h-9c-3 0 -5 2 -5 5v690c0 3 2 5 5 5h9c3 0 5 -2 5 -5v-417h78l151 219c1 2 4 3 6 3h12c4 0 5 -3 3 -6z" />
    <glyph glyph-name="uni043B.loclBGR" horiz-adv-x="338" 
d="M300 4l-131 480l-131 -480c0 -2 -2 -4 -5 -4h-9c-3 0 -5 2 -4 6l133 487c2 5 5 9 11 9h10c6 0 10 -4 11 -9l133 -487c1 -4 -1 -6 -4 -6h-9c-3 0 -4 2 -5 4z" />
    <glyph glyph-name="uni043F.loclBGR" horiz-adv-x="402" 
d="M70 0c-3 0 -5 2 -5 5v342c0 94 46 160 136 160s136 -66 136 -160v-342c0 -3 -2 -5 -5 -5h-9c-3 0 -5 2 -5 5v342c0 84 -37 142 -117 142s-117 -58 -117 -142v-342c0 -3 -2 -5 -5 -5h-9z" />
    <glyph glyph-name="uni0442.loclBGR" horiz-adv-x="633" 
d="M437 507c84 0 131 -66 131 -149v-353c0 -3 -2 -5 -5 -5h-9c-3 0 -5 2 -5 5v353c0 73 -38 131 -112 131c-66 0 -111 -58 -111 -129v-355c0 -3 -2 -5 -5 -5h-9c-3 0 -5 2 -5 5v355c0 71 -45 129 -110 129c-75 0 -113 -58 -113 -131v-353c0 -3 -2 -5 -5 -5h-9
c-3 0 -5 2 -5 5v353c0 83 47 149 132 149c58 0 101 -37 120 -90c18 53 62 90 120 90z" />
    <glyph glyph-name="uni0443.loclBGR" horiz-adv-x="411" 
d="M332 500c3 0 5 -2 5 -5v-555c0 -83 -52 -150 -136 -150c-82 0 -134 63 -136 142c0 3 2 5 5 5h9c3 0 5 -2 5 -5c2 -69 45 -124 117 -124c74 0 117 59 117 132v137c-20 -47 -63 -77 -116 -77c-85 0 -137 66 -137 155v340c0 3 2 5 5 5h9c3 0 5 -2 5 -5v-340
c0 -79 44 -137 118 -137c73 0 116 58 116 137v340c0 3 2 5 5 5h9z" />
    <glyph glyph-name="uni0444.loclBGR" horiz-adv-x="641" 
d="M447 507c82 0 136 -64 136 -160v-194c0 -96 -54 -160 -136 -160c-53 0 -97 31 -117 81v-269c0 -3 -2 -5 -5 -5h-9c-3 0 -5 2 -5 5v269c-21 -50 -64 -81 -117 -81c-82 0 -136 64 -136 160v194c0 96 54 160 136 160c53 0 98 -31 117 -81v269c0 3 2 5 5 5h9c3 0 5 -2 5 -5
v-269c18 50 64 81 117 81zM194 11c70 0 117 57 117 142v194c0 85 -47 142 -117 142s-117 -57 -117 -142v-194c0 -85 47 -142 117 -142zM564 153v194c0 85 -47 142 -117 142s-117 -57 -117 -142v-194c0 -85 47 -142 117 -142s117 57 117 142z" />
    <glyph glyph-name="uni0447.loclBGR" horiz-adv-x="410" 
d="M322 0c-3 0 -5 2 -5 5v240c-23 -44 -66 -72 -124 -72c-89 0 -143 66 -143 155v167c0 3 2 5 5 5h9c3 0 5 -2 5 -5v-167c0 -79 46 -137 124 -137s124 58 124 137v167c0 3 2 5 5 5h9c3 0 5 -2 5 -5v-490c0 -3 -2 -5 -5 -5h-9z" />
    <glyph glyph-name="uni0446.loclBGR" horiz-adv-x="424" 
d="M383 -105c-3 0 -5 2 -5 5v102c-28 4 -54 22 -54 75c-20 -61 -72 -84 -123 -84c-79 0 -136 66 -136 150v352c0 3 2 5 5 5h9c3 0 5 -2 5 -5v-352c0 -74 48 -132 117 -132c70 0 117 53 117 132v352c0 3 2 5 5 5h9c3 0 5 -2 5 -5v-387c0 -120 60 -66 60 -108v-100
c0 -3 -2 -5 -5 -5h-9z" />
    <glyph glyph-name="uni0448.loclBGR" horiz-adv-x="648" 
d="M197 -7c-77 0 -132 66 -132 150v352c0 3 2 5 5 5h9c3 0 5 -2 5 -5v-352c0 -74 46 -132 113 -132s113 58 113 132v352c0 3 2 5 5 5h9c3 0 5 -2 5 -5v-352c0 -74 46 -132 113 -132c68 0 113 53 113 132v352c0 3 2 5 5 5h9c3 0 5 -2 5 -5v-490c0 -3 -2 -5 -5 -5h-9
c-3 0 -5 2 -5 5v57c-22 -50 -68 -69 -113 -69c-59 0 -103 38 -122 93c-20 -55 -64 -93 -123 -93z" />
    <glyph glyph-name="uni0449.loclBGR" horiz-adv-x="661" 
d="M620 -105c-3 0 -5 2 -5 5v102c-28 4 -54 22 -54 75c-20 -61 -68 -84 -117 -84c-60 0 -105 38 -124 93c-19 -55 -64 -93 -123 -93c-77 0 -132 66 -132 150v352c0 3 2 5 5 5h9c3 0 5 -2 5 -5v-352c0 -74 46 -132 113 -132s113 58 113 132v352c0 3 2 5 5 5h9c3 0 5 -2 5 -5
v-352c0 -74 47 -132 115 -132c66 0 111 53 111 132v352c0 3 2 5 5 5h9c3 0 5 -2 5 -5v-387c0 -120 60 -66 60 -108v-100c0 -3 -2 -5 -5 -5h-9z" />
    <glyph glyph-name="uni044C.loclBGR" horiz-adv-x="388" 
d="M205 328c78 0 140 -67 140 -150v-35c0 -83 -62 -150 -140 -150s-140 67 -140 150v352c0 3 2 5 5 5h9c3 0 5 -2 5 -5v-250c21 50 70 83 121 83zM326 143v35c0 73 -54 132 -121 132s-121 -59 -121 -132v-35c0 -73 54 -132 121 -132s121 59 121 132z" />
    <glyph glyph-name="uni044A.loclBGR" horiz-adv-x="440" 
d="M257 328c78 0 140 -67 140 -150v-35c0 -83 -62 -150 -140 -150s-140 67 -140 150v339h-89c-3 0 -5 2 -5 5v8c0 3 2 5 5 5h98c6 0 10 -4 10 -10v-245c21 50 70 83 121 83zM378 143v35c0 73 -54 132 -121 132s-121 -59 -121 -132v-35c0 -73 54 -132 121 -132
s121 59 121 132z" />
    <glyph glyph-name="uni044E.loclBGR" horiz-adv-x="533" 
d="M334 -7c-85 0 -141 64 -141 160v108h-100v-256c0 -3 -2 -5 -5 -5h-9c-3 0 -5 2 -5 5v690c0 3 2 5 5 5h9c3 0 5 -2 5 -5v-416h100v68c0 96 56 160 141 160s141 -64 141 -160v-194c0 -96 -56 -160 -141 -160zM334 11c73 0 122 57 122 142v194c0 85 -49 142 -122 142
s-122 -57 -122 -142v-194c0 -85 49 -142 122 -142z" />
    <glyph glyph-name="uni043B.ss01" horiz-adv-x="439" 
d="M246 507c89 0 128 -66 128 -160v-342c0 -3 -2 -5 -5 -5h-9c-3 0 -5 2 -5 5v342c0 84 -30 142 -109 142c-78 0 -109 -58 -109 -142v-211c0 -80 -36 -137 -104 -140c-3 0 -5 2 -5 5v8c0 3 2 5 5 5c58 3 85 52 85 122v211c0 94 40 160 128 160z" />
    <glyph glyph-name="zero" unicode="0" horiz-adv-x="408" 
d="M204 -10c-83 0 -150 67 -150 150v420c0 83 67 150 150 150s150 -67 150 -150v-420c0 -83 -67 -150 -150 -150zM95 69l203 581c-24 25 -57 40 -94 40c-72 0 -130 -58 -130 -130v-420c0 -26 8 -50 21 -71zM204 10c72 0 130 58 130 130v420c0 27 -8 51 -21 72l-204 -581
c24 -25 58 -41 95 -41z" />
    <glyph glyph-name="one" unicode="1" horiz-adv-x="252" 
d="M150 700c13 0 20 -7 20 -20v-675c0 -3 -2 -5 -5 -5h-10c-3 0 -5 2 -5 5v675h-115c-3 0 -5 2 -5 5v10c0 3 2 5 5 5h115z" />
    <glyph glyph-name="two" unicode="2" horiz-adv-x="393" 
d="M344 553c0 -203 -275 -339 -275 -533h270c3 0 5 -2 5 -5v-10c0 -3 -2 -5 -5 -5h-280c-6 0 -10 4 -10 10v10c0 201 275 342 275 533c0 82 -56 137 -130 135c-71 0 -123 -57 -125 -141c0 -3 -2 -5 -5 -5h-10c-3 0 -5 2 -5 5c2 93 64 160 145 160c86 2 150 -63 150 -154z
" />
    <glyph glyph-name="three" unicode="3" horiz-adv-x="390" 
d="M187 -7c-82 0 -144 65 -146 160c0 3 2 5 5 5h10c3 0 5 -2 5 -5c2 -84 55 -140 126 -140c79 0 130 57 130 140v119c0 71 -57 127 -129 127h-43c-2 0 -3 1 -3 3v3c0 3 1 6 3 9l165 267h-256c-3 0 -5 2 -5 5v9c0 3 2 5 5 5h276c3 0 5 -2 5 -5v-4c0 -2 -1 -4 -2 -6l-165 -267
h20c83 0 149 -65 149 -146v-119c0 -94 -60 -160 -150 -160z" />
    <glyph glyph-name="four" unicode="4" horiz-adv-x="400" 
d="M355 250c3 0 5 -2 5 -5v-10c0 -3 -2 -5 -5 -5h-49v-225c0 -3 -2 -5 -5 -5h-10c-3 0 -5 2 -5 5v225h-246c-5 0 -9 3 -9 7v2c0 3 0 6 1 9l159 448c1 2 2 4 5 4h10c3 0 5 -2 4 -6l-157 -444h233v245c0 3 2 5 5 5h10c3 0 5 -2 5 -5v-245h49z" />
    <glyph glyph-name="five" unicode="5" horiz-adv-x="398" 
d="M203 470c87 0 150 -67 150 -160v-160c0 -93 -63 -160 -151 -160c-82 0 -150 64 -152 163c0 3 2 5 5 5h10c3 0 5 -2 5 -5c2 -88 61 -143 132 -143c77 0 131 58 131 140v160c0 82 -54 140 -130 140c-68 0 -125 -56 -128 -116c0 -5 -3 -8 -8 -8h-4c-5 0 -8 3 -8 8v346
c0 13 7 20 20 20h263c3 0 5 -2 5 -5v-10c0 -3 -2 -5 -5 -5h-263v-289c24 47 71 79 128 79z" />
    <glyph glyph-name="six" unicode="6" horiz-adv-x="406" 
d="M204 -7c-83 0 -150 67 -150 150v397c0 101 64 167 149 167c82 0 149 -64 151 -156c0 -3 -2 -5 -5 -5h-10c-3 0 -5 2 -5 5c-2 82 -59 137 -131 137c-74 0 -129 -57 -129 -148v-162c23 49 71 82 130 82c83 0 150 -67 150 -149v-168c0 -83 -67 -150 -150 -150zM204 12
c72 0 130 58 130 131v168c0 72 -58 130 -130 130s-130 -58 -130 -130v-168c0 -73 58 -131 130 -131z" />
    <glyph glyph-name="seven" unicode="7" horiz-adv-x="348" 
d="M30 695c0 3 2 5 5 5h266c3 0 6 -2 6 -6s0 -7 -1 -12l-170 -678c-1 -3 -2 -4 -5 -4h-10c-3 0 -6 2 -5 6l169 675h-250c-3 0 -5 2 -5 5v9z" />
    <glyph glyph-name="eight" unicode="8" horiz-adv-x="402" 
d="M255 360c58 -21 99 -75 99 -139v-78c0 -83 -58 -150 -153 -150s-153 67 -153 150v78c0 64 41 118 99 139c-52 22 -88 77 -88 141v60c0 79 54 146 142 146s142 -67 142 -146v-60c0 -64 -36 -119 -88 -141zM79 501c0 -73 55 -131 122 -131s122 58 122 131v60
c0 69 -45 127 -122 127s-122 -58 -122 -127v-60zM334 143v78c0 72 -60 130 -133 130s-133 -58 -133 -130v-78c0 -73 49 -131 133 -131s133 58 133 131z" />
    <glyph glyph-name="nine" unicode="9" horiz-adv-x="420" 
d="M216 707c83 0 150 -67 150 -150v-397c0 -101 -64 -167 -149 -167c-82 0 -149 64 -151 156c0 3 2 5 5 5h10c3 0 5 -2 5 -5c2 -82 59 -137 131 -137c74 0 129 57 129 148v162c-23 -49 -71 -82 -130 -82c-83 0 -150 67 -150 149v168c0 83 67 150 150 150zM216 688
c-72 0 -130 -58 -130 -131v-168c0 -72 58 -130 130 -130s130 58 130 130v168c0 73 -58 131 -130 131z" />
    <glyph glyph-name="asterisk" unicode="*" horiz-adv-x="308" 
d="M92 511l-8 5c-2 2 -3 5 -1 7l56 77l-90 29c-3 1 -4 4 -3 7l3 8c1 4 3 4 6 3l90 -29v95c0 3 2 5 5 5h9c3 0 5 -2 5 -5v-95l90 29c3 1 5 1 6 -3l3 -8c1 -3 0 -6 -3 -7l-90 -29l56 -77c2 -2 1 -5 -1 -7l-8 -5c-2 -2 -5 -1 -7 1l-56 77l-55 -77c-2 -2 -5 -3 -7 -1z" />
    <glyph glyph-name="backslash" unicode="\" horiz-adv-x="392" 
d="M63 700c2 0 5 -2 6 -4l275 -690c1 -3 -1 -6 -4 -6h-11c-2 0 -5 2 -6 4l-275 690c-1 3 1 6 4 6h11z" />
    <glyph glyph-name="periodcentered" unicode="&#xb7;" horiz-adv-x="150" 
d="M55 229c-13 0 -22 9 -22 22s9 22 22 22s22 -9 22 -22s-9 -22 -22 -22z" />
    <glyph glyph-name="bullet" unicode="&#x2022;" horiz-adv-x="193" 
d="M97 206c-26 0 -44 18 -44 44c0 28 18 46 44 46c28 0 46 -18 46 -46c0 -26 -18 -44 -46 -44z" />
    <glyph glyph-name="colon" unicode=":" horiz-adv-x="150" 
d="M55 344c-13 0 -22 9 -22 22s9 22 22 22s22 -9 22 -22s-9 -22 -22 -22zM55 -7c-13 0 -22 9 -22 22s9 22 22 22s22 -9 22 -22s-9 -22 -22 -22z" />
    <glyph glyph-name="comma" unicode="," horiz-adv-x="77" 
d="M29 43c0 4 2 5 5 5h19c3 0 5 -1 4 -5l-21 -134c0 -3 -3 -5 -6 -5h-5c-3 0 -5 1 -5 5z" />
    <glyph glyph-name="ellipsis" unicode="&#x2026;" horiz-adv-x="430" 
d="M75 -7c-13 0 -22 9 -22 22s9 22 22 22s22 -9 22 -22s-9 -22 -22 -22zM215 -7c-13 0 -22 9 -22 22s9 22 22 22s22 -9 22 -22s-9 -22 -22 -22zM355 -7c-13 0 -22 9 -22 22s9 22 22 22s22 -9 22 -22s-9 -22 -22 -22z" />
    <glyph glyph-name="exclam" unicode="!" horiz-adv-x="208" 
d="M99 112c-3 0 -5 2 -5 5v578c0 3 2 5 5 5h10c3 0 5 -2 5 -5v-578c0 -3 -2 -5 -5 -5h-10zM104 -7c-13 0 -22 9 -22 22s9 22 22 22s22 -9 22 -22s-9 -22 -22 -22z" />
    <glyph glyph-name="exclamdown" unicode="&#xa1;" horiz-adv-x="192" 
d="M96 507c13 0 22 -9 22 -22s-9 -22 -22 -22s-22 9 -22 22s9 22 22 22zM91 388h10c3 0 5 -2 5 -5v-578c0 -3 -2 -5 -5 -5h-10c-3 0 -5 2 -5 5v578c0 3 2 5 5 5z" />
    <glyph glyph-name="numbersign" unicode="#" horiz-adv-x="517" 
d="M94 0c-3 0 -6 2 -5 6l42 183h-95c-3 0 -6 1 -5 5l2 10c1 3 3 4 6 4h96l63 273h-95c-3 0 -6 1 -5 5l2 10c1 3 3 4 6 4h96l45 196c1 3 2 4 5 4h9c3 0 6 -2 5 -6l-45 -194h146l45 196c1 3 2 4 5 4h9c3 0 6 -2 5 -6l-45 -194h95c3 0 6 -1 5 -5l-2 -10c-1 -3 -3 -4 -6 -4h-96
l-63 -273h95c3 0 6 -1 5 -5l-2 -10c-1 -3 -3 -4 -6 -4h-96l-42 -185c-1 -3 -2 -4 -5 -4h-9c-3 0 -6 2 -5 6l42 183h-146l-42 -185c-1 -3 -2 -4 -5 -4h-9zM154 208h146l63 273h-146z" />
    <glyph glyph-name="period" unicode="." horiz-adv-x="84" 
d="M42 -7c-13 0 -22 9 -22 22s9 22 22 22s22 -9 22 -22s-9 -22 -22 -22z" />
    <glyph glyph-name="question" unicode="?" horiz-adv-x="310" 
d="M145 125c-3 0 -5 1 -5 5l-1 62c-2 177 141 206 141 363c0 79 -56 133 -130 133s-128 -57 -130 -141c0 -3 -2 -5 -5 -5h-10c-3 0 -5 2 -5 5c2 93 67 160 150 160c86 0 150 -64 150 -152c0 -159 -142 -193 -141 -363l1 -62c0 -4 -2 -5 -5 -5h-10zM152 -7
c-13 0 -22 9 -22 22s9 22 22 22s22 -9 22 -22s-9 -22 -22 -22z" />
    <glyph glyph-name="questiondown" unicode="&#xbf;" horiz-adv-x="310" 
d="M158 508c13 0 22 -9 22 -22s-9 -22 -22 -22s-22 9 -22 22s9 22 22 22zM165 376c3 0 5 -1 5 -5l1 -62c2 -177 -141 -206 -141 -363c0 -79 56 -133 130 -133s128 57 130 141c0 3 2 5 5 5h10c3 0 5 -2 5 -5c-2 -93 -67 -160 -150 -160c-86 0 -150 64 -150 152
c0 159 142 193 141 363l-1 62c0 4 2 5 5 5h10z" />
    <glyph glyph-name="quotedbl" unicode="&#x22;" horiz-adv-x="167" 
d="M34 695c0 4 2 5 5 5h19c3 0 5 -1 4 -5l-21 -134c0 -3 -3 -5 -6 -5h-5c-3 0 -5 1 -5 5zM114 695c0 4 2 5 5 5h19c3 0 5 -1 4 -5l-21 -134c0 -3 -3 -5 -6 -5h-5c-3 0 -5 1 -5 5z" />
    <glyph glyph-name="quotesingle" unicode="'" horiz-adv-x="117" 
d="M46 695c0 4 2 5 5 5h19c3 0 5 -1 4 -5l-21 -134c0 -3 -3 -5 -6 -5h-5c-3 0 -5 1 -5 5z" />
    <glyph glyph-name="semicolon" unicode=";" horiz-adv-x="150" 
d="M60 343c-13 0 -22 9 -22 22s9 22 22 22s22 -9 22 -22s-9 -22 -22 -22zM49 43c0 4 2 5 5 5h19c3 0 5 -1 4 -5l-21 -134c0 -3 -3 -5 -6 -5h-5c-3 0 -5 1 -5 5z" />
    <glyph glyph-name="slash" unicode="/" horiz-adv-x="400" 
d="M327 696c1 2 4 4 6 4h11c3 0 5 -3 4 -6l-275 -690c-1 -2 -4 -4 -6 -4h-11c-3 0 -5 3 -4 6z" />
    <glyph glyph-name="underscore" unicode="_" horiz-adv-x="390" 
d="M20 -12c0 3 2 5 5 5h340c3 0 5 -2 5 -5v-9c0 -3 -2 -5 -5 -5h-340c-3 0 -5 2 -5 5v9z" />
    <glyph glyph-name="braceleft" unicode="{" horiz-adv-x="269" 
d="M129 484c0 -50 -21 -105 -68 -130c47 -25 68 -80 68 -130v-204c0 -67 45 -118 105 -121c3 0 5 -2 5 -5v-9c0 -3 -2 -5 -5 -5c-72 3 -125 63 -125 140v204c0 46 -19 96 -68 119c-3 2 -4 4 -4 6v10c0 2 1 4 4 6c49 23 68 73 68 119v196c0 77 53 137 125 140c3 0 5 -2 5 -5
v-9c0 -3 -2 -5 -5 -5c-60 -3 -105 -54 -105 -121v-196z" />
    <glyph glyph-name="braceright" unicode="}" horiz-adv-x="279" 
d="M238 365c3 -2 4 -4 4 -6v-10c0 -2 -1 -4 -4 -6c-49 -23 -68 -73 -68 -119v-204c0 -77 -53 -137 -125 -140c-3 0 -5 2 -5 5v9c0 3 2 5 5 5c60 3 105 54 105 121v204c0 50 21 105 68 130c-47 25 -68 80 -68 130v196c0 67 -45 118 -105 121c-3 0 -5 2 -5 5v9c0 3 2 5 5 5
c72 -3 125 -63 125 -140v-196c0 -46 19 -96 68 -119z" />
    <glyph glyph-name="bracketleft" unicode="[" horiz-adv-x="239" 
d="M184 806c0 -3 -2 -5 -5 -5h-85v-902h85c3 0 5 -2 5 -5v-9c0 -3 -2 -5 -5 -5h-95c-6 0 -10 4 -10 10v920c0 6 4 10 10 10h95c3 0 5 -2 5 -5v-9z" />
    <glyph glyph-name="bracketright" unicode="]" horiz-adv-x="235" 
d="M51 806v9c0 3 2 5 5 5h95c6 0 10 -4 10 -10v-920c0 -6 -4 -10 -10 -10h-95c-3 0 -5 2 -5 5v9c0 3 2 5 5 5h85v902h-85c-3 0 -5 2 -5 5z" />
    <glyph glyph-name="parenleft" unicode="(" horiz-adv-x="212" 
d="M177 -120c-65 2 -105 51 -105 127v687c0 76 39 124 105 126c3 0 5 -2 5 -5v-9c0 -3 -2 -5 -5 -5c-54 -2 -85 -41 -85 -107v-687c0 -66 31 -106 85 -108c3 0 5 -2 5 -5v-9c0 -3 -2 -5 -5 -5z" />
    <glyph glyph-name="parenright" unicode=")" horiz-adv-x="211" 
d="M34 -120c-3 0 -5 2 -5 5v9c0 3 2 5 5 5c54 2 85 42 85 108v687c0 66 -31 105 -85 107c-3 0 -5 2 -5 5v9c0 3 2 5 5 5c66 -2 105 -50 105 -126v-687c0 -76 -40 -125 -105 -127z" />
    <glyph glyph-name="emdash" unicode="&#x2014;" horiz-adv-x="510" 
d="M25 260c0 3 2 5 5 5h450c3 0 5 -2 5 -5v-9c0 -3 -2 -5 -5 -5h-450c-3 0 -5 2 -5 5v9z" />
    <glyph glyph-name="endash" unicode="&#x2013;" horiz-adv-x="390" 
d="M30 246c-3 0 -5 2 -5 5v9c0 3 2 5 5 5h330c3 0 5 -2 5 -5v-9c0 -3 -2 -5 -5 -5h-330z" />
    <glyph glyph-name="hyphen" unicode="-" horiz-adv-x="290" 
d="M30 246c-3 0 -5 2 -5 5v9c0 3 2 5 5 5h230c3 0 5 -2 5 -5v-9c0 -3 -2 -5 -5 -5h-230z" />
    <glyph glyph-name="emdash.case" horiz-adv-x="510" 
d="M25 360c0 3 2 5 5 5h450c3 0 5 -2 5 -5v-9c0 -3 -2 -5 -5 -5h-450c-3 0 -5 2 -5 5v9z" />
    <glyph glyph-name="endash.case" horiz-adv-x="390" 
d="M30 346c-3 0 -5 2 -5 5v9c0 3 2 5 5 5h330c3 0 5 -2 5 -5v-9c0 -3 -2 -5 -5 -5h-330z" />
    <glyph glyph-name="hyphen.case" horiz-adv-x="290" 
d="M30 346c-3 0 -5 2 -5 5v9c0 3 2 5 5 5h230c3 0 5 -2 5 -5v-9c0 -3 -2 -5 -5 -5h-230z" />
    <glyph glyph-name="guillemotleft" unicode="&#xab;" horiz-adv-x="372" 
d="M155 83c-2 0 -5 1 -6 3l-123 164c-3 4 -3 10 0 14l123 164c1 2 4 3 6 3h11c4 0 5 -3 3 -6l-126 -168l126 -168c2 -3 1 -6 -3 -6h-11zM325 83c-2 0 -5 1 -6 3l-123 164c-3 4 -3 10 0 14l123 164c1 2 4 3 6 3h11c4 0 5 -3 3 -6l-126 -168l126 -168c2 -3 1 -6 -3 -6h-11z
" />
    <glyph glyph-name="guillemotright" unicode="&#xbb;" horiz-adv-x="372" 
d="M48 83h-11c-4 0 -5 3 -3 6l126 168l-126 168c-2 3 -1 6 3 6h11c2 0 5 -1 6 -3l123 -164c3 -4 3 -10 0 -14l-123 -164c-1 -2 -4 -3 -6 -3zM218 83h-11c-4 0 -5 3 -3 6l126 168l-126 168c-2 3 -1 6 3 6h11c2 0 5 -1 6 -3l123 -164c3 -4 3 -10 0 -14l-123 -164
c-1 -2 -4 -3 -6 -3z" />
    <glyph glyph-name="guilsinglleft" unicode="&#x2039;" horiz-adv-x="203" 
d="M156 83c-2 0 -5 1 -6 3l-123 164c-3 4 -3 10 0 14l123 164c1 2 4 3 6 3h11c4 0 5 -3 3 -6l-126 -168l126 -168c2 -3 1 -6 -3 -6h-11z" />
    <glyph glyph-name="guilsinglright" unicode="&#x203a;" horiz-adv-x="202" 
d="M47 83h-11c-4 0 -5 3 -3 6l126 168l-126 168c-2 3 -1 6 3 6h11c2 0 5 -1 6 -3l123 -164c3 -4 3 -10 0 -14l-123 -164c-1 -2 -4 -3 -6 -3z" />
    <glyph glyph-name="quotedblbase" unicode="&#x201e;" horiz-adv-x="92" 
d="M29 43c0 4 2 5 5 5h19c3 0 5 -1 4 -5l-21 -134c0 -3 -3 -5 -6 -5h-5c-3 0 -5 1 -5 5z" />
    <glyph glyph-name="quotedblleft" unicode="&#x201c;" horiz-adv-x="187" 
d="M72 561c0 -4 -2 -5 -5 -5h-19c-3 0 -5 1 -4 5l21 134c0 3 3 5 6 5h5c3 0 5 -1 5 -5zM152 561c0 -4 -2 -5 -5 -5h-19c-3 0 -5 1 -4 5l21 134c0 3 3 5 6 5h5c3 0 5 -1 5 -5z" />
    <glyph glyph-name="quotedblright" unicode="&#x201d;" horiz-adv-x="187" 
d="M34 695c0 4 2 5 5 5h19c3 0 5 -1 4 -5l-21 -134c0 -3 -3 -5 -6 -5h-5c-3 0 -5 1 -5 5zM114 695c0 4 2 5 5 5h19c3 0 5 -1 4 -5l-21 -134c0 -3 -3 -5 -6 -5h-5c-3 0 -5 1 -5 5z" />
    <glyph glyph-name="quoteleft" unicode="&#x2018;" horiz-adv-x="117" 
d="M65 561c0 -4 -2 -5 -5 -5h-19c-3 0 -5 1 -4 5l21 134c0 3 3 5 6 5h5c3 0 5 -1 5 -5z" />
    <glyph glyph-name="quoteright" unicode="&#x2019;" horiz-adv-x="117" 
d="M48 695c0 4 2 5 5 5h19c3 0 5 -1 4 -5l-21 -134c0 -3 -3 -5 -6 -5h-5c-3 0 -5 1 -5 5z" />
    <glyph glyph-name="quotesinglbase" unicode="&#x201a;" horiz-adv-x="87" 
d="M29 43c0 4 2 5 5 5h19c3 0 5 -1 4 -5l-21 -134c0 -3 -3 -5 -6 -5h-5c-3 0 -5 1 -5 5z" />
    <glyph glyph-name="guillemotleft.case" horiz-adv-x="372" 
d="M155 143c-2 0 -5 1 -6 3l-123 164c-3 4 -3 10 0 14l123 164c1 2 4 3 6 3h11c4 0 5 -3 3 -6l-126 -168l126 -168c2 -3 1 -6 -3 -6h-11zM325 143c-2 0 -5 1 -6 3l-123 164c-3 4 -3 10 0 14l123 164c1 2 4 3 6 3h11c4 0 5 -3 3 -6l-126 -168l126 -168c2 -3 1 -6 -3 -6h-11z
" />
    <glyph glyph-name="guillemotright.case" horiz-adv-x="372" 
d="M47 143h-11c-4 0 -5 3 -3 6l126 168l-126 168c-2 3 -1 6 3 6h11c2 0 5 -1 6 -3l123 -164c3 -4 3 -10 0 -14l-123 -164c-1 -2 -4 -3 -6 -3zM217 143h-11c-4 0 -5 3 -3 6l126 168l-126 168c-2 3 -1 6 3 6h11c2 0 5 -1 6 -3l123 -164c3 -4 3 -10 0 -14l-123 -164
c-1 -2 -4 -3 -6 -3z" />
    <glyph glyph-name="guilsinglleft.case" horiz-adv-x="202" 
d="M155 143c-2 0 -5 1 -6 3l-123 164c-3 4 -3 10 0 14l123 164c1 2 4 3 6 3h11c4 0 5 -3 3 -6l-126 -168l126 -168c2 -3 1 -6 -3 -6h-11z" />
    <glyph glyph-name="guilsinglright.case" horiz-adv-x="202" 
d="M47 143h-11c-4 0 -5 3 -3 6l126 168l-126 168c-2 3 -1 6 3 6h11c2 0 5 -1 6 -3l123 -164c3 -4 3 -10 0 -14l-123 -164c-1 -2 -4 -3 -6 -3z" />
    <glyph glyph-name="space" unicode=" " horiz-adv-x="261" 
 />
    <glyph glyph-name="cent" unicode="&#xa2;" horiz-adv-x="390" 
d="M191 -85c-3 0 -5 2 -5 5v74c-72 8 -128 71 -128 151v203c0 92 57 152 128 158v74c0 3 2 5 5 5h8c3 0 5 -2 5 -5v-73c72 -3 130 -61 133 -127c0 -3 -2 -5 -5 -5h-9c-3 0 -5 2 -5 5c-3 58 -55 109 -120 109c-67 0 -121 -54 -121 -141v-203c0 -75 55 -134 124 -134
c66 0 119 55 122 124c0 3 2 5 5 5h9c3 0 5 -2 5 -5c-3 -78 -63 -140 -138 -142v-73c0 -3 -2 -5 -5 -5h-8z" />
    <glyph glyph-name="currency" unicode="&#xa4;" horiz-adv-x="408" 
d="M204 135c-46 0 -82 17 -106 46l-35 -41c-2 -3 -5 -3 -7 -1l-6 6c-2 2 -3 4 -1 7l37 44c-16 25 -24 57 -24 91v70c0 34 8 65 24 90l-37 45c-2 3 -1 5 1 7l6 6c2 2 5 2 7 -1l35 -41c24 29 60 46 106 46s82 -17 106 -46l35 41c2 3 5 3 7 1l6 -6c2 -2 3 -4 1 -7l-37 -45
c16 -25 24 -56 24 -90v-70c0 -34 -8 -65 -24 -90l37 -45c2 -3 1 -5 -1 -7l-6 -6c-2 -2 -5 -1 -7 1l-34 41c-25 -29 -61 -46 -107 -46zM204 153c77 0 123 59 123 134v70c0 75 -46 134 -123 134s-123 -59 -123 -134v-70c0 -75 46 -134 123 -134z" />
    <glyph glyph-name="dollar" unicode="$" horiz-adv-x="409" 
d="M360 149c0 -84 -56 -151 -145 -156v-73c0 -3 -2 -5 -5 -5h-8c-3 0 -5 2 -5 5v73c-90 4 -148 71 -148 160c0 3 2 5 5 5h10c3 0 5 -2 5 -5c2 -81 53 -141 136 -141c85 0 135 60 135 137c0 195 -286 208 -286 402c0 91 60 152 143 156v73c0 3 2 5 5 5h8c3 0 5 -2 5 -5v-73
c79 -5 140 -66 140 -160c0 -3 -2 -5 -5 -5h-10c-3 0 -5 2 -5 5c-2 89 -56 141 -130 141c-75 0 -131 -52 -131 -137c0 -179 286 -197 286 -402z" />
    <glyph glyph-name="Euro" unicode="&#x20ac;" horiz-adv-x="483" 
d="M431 158c3 0 5 -2 5 -6c-3 -90 -66 -159 -158 -159c-91 0 -158 72 -158 165v121h-68c-3 0 -5 2 -5 5v8c0 3 2 5 5 5h68v105h-68c-3 0 -5 2 -5 5v8c0 3 2 5 5 5h68v122c0 92 67 165 158 165c89 0 151 -71 153 -160c0 -3 -2 -5 -5 -5h-10c-3 0 -5 2 -5 5
c-2 80 -53 141 -133 141c-79 0 -138 -63 -138 -146v-122h218c3 0 5 -2 5 -5v-8c0 -3 -2 -5 -5 -5h-218v-105h218c3 0 5 -2 5 -5v-8c0 -3 -2 -5 -5 -5h-218v-121c0 -84 59 -146 138 -146c83 0 136 60 138 141c0 3 2 5 5 5h10z" />
    <glyph glyph-name="sterling" unicode="&#xa3;" horiz-adv-x="461" 
d="M414 18c3 0 5 -2 5 -5v-8c0 -3 -2 -5 -5 -5h-372c-3 0 -5 2 -5 5v8c0 3 2 5 5 5c38 2 69 42 69 110v219h-69c-3 0 -5 2 -5 5v8c0 3 2 5 5 5h69v177c0 92 63 165 148 165c86 0 146 -71 148 -160c0 -3 -2 -5 -5 -5h-10c-3 0 -5 2 -5 5c-2 80 -51 141 -128 141
c-73 0 -128 -63 -128 -146v-177h216c3 0 5 -2 5 -5v-8c0 -3 -2 -5 -5 -5h-216v-219c0 -51 -13 -89 -41 -110h324z" />
    <glyph glyph-name="yen" unicode="&#xa5;" horiz-adv-x="491" 
d="M424 228h-172v-82h172c3 0 5 -2 5 -5v-9c0 -3 -2 -5 -5 -5h-172v-122c0 -3 -2 -5 -5 -5h-10c-3 0 -5 2 -5 5v122h-165c-3 0 -5 2 -5 5v9c0 3 2 5 5 5h165v82h-165c-3 0 -5 2 -5 5v9c0 3 2 5 5 5h105c-48 27 -80 81 -80 147v301c0 3 2 5 5 5h10c3 0 5 -2 5 -5v-301
c0 -87 59 -146 130 -146c72 0 130 59 130 146v301c0 3 2 5 5 5h10c3 0 5 -2 5 -5v-301c0 -66 -32 -120 -80 -147h112c3 0 5 -2 5 -5v-9c0 -3 -2 -5 -5 -5z" />
    <glyph glyph-name="approxequal" unicode="&#x2248;" horiz-adv-x="401" 
d="M344 450c2 3 5 4 7 1l4 -6c1 -2 2 -4 1 -7c-21 -41 -46 -57 -75 -57c-55 0 -109 58 -157 58c-33 0 -52 -27 -67 -51c-3 -5 -6 -3 -7 -1l-4 8c-1 2 -1 4 0 6c23 39 49 55 78 55c55 0 111 -58 158 -58c33 0 50 30 62 52zM344 330c2 3 5 4 7 1l4 -6c1 -2 2 -4 1 -7
c-21 -41 -46 -57 -75 -57c-55 0 -109 58 -157 58c-33 0 -52 -27 -67 -51c-3 -5 -6 -3 -7 -1l-4 8c-1 2 -1 4 0 6c23 39 49 55 78 55c55 0 111 -58 158 -58c33 0 50 30 62 52z" />
    <glyph glyph-name="asciitilde" unicode="~" horiz-adv-x="400" 
d="M344 390c2 3 5 4 7 1l4 -6c1 -2 2 -4 1 -7c-21 -40 -44 -57 -76 -57c-53 0 -109 58 -155 58c-29 0 -53 -23 -68 -51c-2 -4 -5 -4 -7 -1l-4 8c-1 2 -1 4 0 6c23 39 49 55 79 55c53 0 111 -58 156 -58c30 0 52 27 63 52z" />
    <glyph glyph-name="divide" unicode="&#xf7;" horiz-adv-x="400" 
d="M200 459c-13 0 -25 11 -25 25s12 25 25 25c14 0 25 -11 25 -25s-11 -25 -25 -25zM49 350c-3 0 -5 2 -5 5v8c0 3 2 5 5 5h302c3 0 5 -2 5 -5v-8c0 -3 -2 -5 -5 -5h-302zM200 209c-13 0 -25 11 -25 25s12 25 25 25c14 0 25 -11 25 -25s-11 -25 -25 -25z" />
    <glyph glyph-name="emptyset" unicode="&#x2205;" horiz-adv-x="796" 
d="M635 618c65 -63 103 -156 103 -268c0 -214 -136 -357 -340 -357c-90 0 -167 28 -224 77l-94 -111c-1 -2 -4 -4 -7 -4h-10c-3 0 -7 2 -4 6l102 121c-65 63 -103 156 -103 268c0 214 136 357 340 357c90 0 167 -28 224 -77l94 111c1 2 4 4 7 4h10c3 0 7 -2 4 -6zM77 350
c0 -107 35 -194 96 -254l437 520c-54 47 -127 73 -212 73c-193 0 -321 -135 -321 -339zM398 11c193 0 321 135 321 339c0 107 -35 194 -96 254l-437 -520c54 -47 127 -73 212 -73z" />
    <glyph glyph-name="equal" unicode="=" horiz-adv-x="400" 
d="M49 399c-3 0 -5 2 -5 5v8c0 3 2 5 5 5h302c3 0 5 -2 5 -5v-8c0 -3 -2 -5 -5 -5h-302zM49 299c-3 0 -5 2 -5 5v8c0 3 2 5 5 5h302c3 0 5 -2 5 -5v-8c0 -3 -2 -5 -5 -5h-302z" />
    <glyph glyph-name="greater" unicode="&#x3e;" horiz-adv-x="340" 
d="M288 368c1 -1 2 -3 2 -4v-14c0 -1 -1 -3 -2 -4l-229 -133c-4 -2 -9 0 -9 5v6c0 1 1 3 2 4l220 129l-220 129c-1 1 -2 3 -2 4v7c0 4 5 7 9 5z" />
    <glyph glyph-name="greaterequal" unicode="&#x2265;" horiz-adv-x="340" 
d="M288 400c1 -1 2 -3 2 -4v-14c0 -1 -1 -3 -2 -4l-229 -113c-4 -2 -9 0 -9 5v6c0 1 1 3 2 4l219 109l-219 109c-1 1 -2 3 -2 4v7c0 4 5 7 9 5zM285 179c3 0 5 -2 5 -5v-8c0 -3 -2 -5 -5 -5h-230c-3 0 -5 2 -5 5v8c0 3 2 5 5 5h230z" />
    <glyph glyph-name="infinity" unicode="&#x221e;" horiz-adv-x="632" 
d="M448 387c75 0 126 -62 126 -137c0 -80 -51 -138 -124 -138c-80 0 -109 54 -134 114c-25 -60 -54 -114 -134 -114c-73 0 -124 58 -124 138c0 75 51 137 126 137c79 0 107 -55 132 -114c25 59 53 114 132 114zM182 130c74 0 99 58 124 119c-25 61 -49 120 -122 120
c-66 0 -107 -53 -107 -119c0 -69 41 -120 105 -120zM450 130c64 0 105 51 105 120c0 66 -41 119 -107 119c-73 0 -97 -59 -122 -120c25 -61 50 -119 124 -119z" />
    <glyph glyph-name="integral" unicode="&#x222b;" horiz-adv-x="319" 
d="M294 702c3 0 5 -2 5 -5v-8c0 -3 -2 -5 -5 -5h-2c-83 -3 -123 -62 -123 -142v-587c0 -90 -49 -157 -142 -160h-2c-3 0 -5 2 -5 5v8c0 3 2 5 5 5h2c83 3 123 62 123 142v587c0 90 49 157 142 160h2z" />
    <glyph glyph-name="less" unicode="&#x3c;" horiz-adv-x="340" 
d="M290 490c0 -1 -1 -3 -2 -4l-220 -129l220 -129c1 -1 2 -3 2 -4v-6c0 -5 -5 -7 -9 -5l-229 133c-1 1 -2 3 -2 4v14c0 1 1 3 2 4l229 134c4 2 9 -1 9 -5v-7z" />
    <glyph glyph-name="lessequal" unicode="&#x2264;" horiz-adv-x="340" 
d="M290 502c0 -1 -1 -3 -2 -4l-219 -109l219 -109c1 -1 2 -3 2 -4v-6c0 -5 -5 -7 -9 -5l-229 113c-1 1 -2 3 -2 4v14c0 1 1 3 2 4l229 114c4 2 9 -1 9 -5v-7zM285 179c3 0 5 -2 5 -5v-8c0 -3 -2 -5 -5 -5h-230c-3 0 -5 2 -5 5v8c0 3 2 5 5 5h230z" />
    <glyph glyph-name="logicalnot" unicode="&#xac;" horiz-adv-x="400" 
d="M351 367c3 0 5 -2 5 -5v-90c0 -3 -2 -5 -5 -5h-7c-3 0 -5 2 -5 5v77h-290c-3 0 -5 2 -5 5v8c0 3 2 5 5 5h302z" />
    <glyph glyph-name="minus" unicode="&#x2212;" horiz-adv-x="400" 
d="M49 349c-3 0 -5 2 -5 5v8c0 3 2 5 5 5h302c3 0 5 -2 5 -5v-8c0 -3 -2 -5 -5 -5h-302z" />
    <glyph glyph-name="multiply" unicode="&#xd7;" horiz-adv-x="400" 
d="M57 210l-5 5c-3 2 -3 5 0 7l136 136l-136 136c-3 2 -3 5 0 7l5 5c2 3 5 3 7 0l136 -136l136 136c2 3 5 3 7 0l5 -5c3 -2 3 -5 0 -7l-136 -136l136 -136c3 -2 3 -5 0 -7l-5 -5c-2 -3 -5 -3 -7 0l-136 136l-136 -136c-2 -3 -5 -3 -7 0z" />
    <glyph glyph-name="notequal" unicode="&#x2260;" horiz-adv-x="400" 
d="M351 399h-124l-43 -82h167c3 0 5 -2 5 -5v-8c0 -3 -2 -5 -5 -5h-176l-34 -65c-1 -3 -4 -4 -6 -4h-7c-4 0 -6 2 -4 6l33 63h-108c-3 0 -5 2 -5 5v8c0 3 2 5 5 5h117l43 82h-160c-3 0 -5 2 -5 5v8c0 3 2 5 5 5h169l41 79c1 3 4 4 6 4h7c4 0 6 -2 4 -6l-40 -77h115
c3 0 5 -2 5 -5v-8c0 -3 -2 -5 -5 -5z" />
    <glyph glyph-name="partialdiff" unicode="&#x2202;" horiz-adv-x="415" 
d="M144 707c148 0 206 -65 206 -235v-329c0 -83 -65 -150 -146 -150s-146 67 -146 150v214c0 83 65 150 146 150c54 0 101 -37 127 -81v46c0 159 -51 217 -187 217h-25c-3 0 -5 2 -5 5v8c0 3 2 5 5 5h25zM331 143v214c0 73 -57 132 -127 132s-127 -59 -127 -132v-214
c0 -73 57 -132 127 -132s127 59 127 132z" />
    <glyph glyph-name="percent" unicode="%" horiz-adv-x="606" 
d="M116 398c-47 0 -76 37 -76 83v143c0 46 29 83 76 83c50 0 77 -37 77 -83v-143c0 -46 -27 -83 -77 -83zM46 -2c-3 0 -7 2 -4 6l505 694c1 2 2 4 5 4h9c3 0 7 -2 4 -6l-505 -694c-1 -2 -2 -4 -5 -4h-9zM116 415c40 0 59 30 59 66v143c0 36 -19 66 -59 66
c-38 0 -59 -30 -59 -66v-143c0 -36 21 -66 59 -66zM489 -7c-47 0 -76 37 -76 83v143c0 46 29 83 76 83c50 0 77 -37 77 -83v-143c0 -46 -27 -83 -77 -83zM489 10c40 0 59 30 59 66v143c0 36 -19 66 -59 66c-38 0 -59 -30 -59 -66v-143c0 -36 21 -66 59 -66z" />
    <glyph glyph-name="perthousand" unicode="&#x2030;" horiz-adv-x="836" 
d="M116 398c-47 0 -76 37 -76 83v143c0 46 29 83 76 83c50 0 77 -37 77 -83v-143c0 -46 -27 -83 -77 -83zM46 -2c-3 0 -7 2 -4 6l525 694c1 2 2 4 5 4h9c3 0 7 -2 4 -6l-525 -694c-1 -2 -2 -4 -5 -4h-9zM116 415c40 0 59 30 59 66v143c0 36 -19 66 -59 66
c-38 0 -59 -30 -59 -66v-143c0 -36 21 -66 59 -66zM509 -7c-47 0 -76 37 -76 83v143c0 46 29 83 76 83c50 0 77 -37 77 -83v-143c0 -46 -27 -83 -77 -83zM739 -7c-47 0 -76 37 -76 83v143c0 46 29 83 76 83c50 0 77 -37 77 -83v-143c0 -46 -27 -83 -77 -83zM509 10
c40 0 59 30 59 66v143c0 36 -19 66 -59 66c-38 0 -59 -30 -59 -66v-143c0 -36 21 -66 59 -66zM739 10c40 0 59 30 59 66v143c0 36 -19 66 -59 66c-38 0 -59 -30 -59 -66v-143c0 -36 21 -66 59 -66z" />
    <glyph glyph-name="plus" unicode="+" horiz-adv-x="400" 
d="M351 367c3 0 5 -2 5 -5v-8c0 -3 -2 -5 -5 -5h-142v-143c0 -3 -2 -5 -5 -5h-8c-3 0 -5 2 -5 5v143h-142c-3 0 -5 2 -5 5v8c0 3 2 5 5 5h142v143c0 3 2 5 5 5h8c3 0 5 -2 5 -5v-143h142z" />
    <glyph glyph-name="plusminus" unicode="&#xb1;" horiz-adv-x="400" 
d="M351 385c3 0 5 -2 5 -5v-8c0 -3 -2 -5 -5 -5h-142v-143c0 -3 -2 -5 -5 -5h-8c-3 0 -5 2 -5 5v143h-142c-3 0 -5 2 -5 5v8c0 3 2 5 5 5h142v143c0 3 2 5 5 5h8c3 0 5 -2 5 -5v-143h142zM351 175c3 0 5 -2 5 -5v-8c0 -3 -2 -5 -5 -5h-302c-3 0 -5 2 -5 5v8c0 3 2 5 5 5h302
z" />
    <glyph glyph-name="product" unicode="&#x220f;" horiz-adv-x="474" 
d="M87 -100c-3 0 -5 2 -5 5v775c0 13 7 20 20 20h270c13 0 20 -7 20 -20v-775c0 -3 -2 -5 -5 -5h-10c-3 0 -5 2 -5 5v776h-270v-776c0 -3 -2 -5 -5 -5h-10z" />
    <glyph glyph-name="radical" unicode="&#x221a;" horiz-adv-x="454" 
d="M448 800c3 0 6 -2 5 -6l-195 -787c-1 -6 -5 -9 -11 -9h-12c-6 0 -9 3 -11 9l-121 472h-79c-3 0 -5 2 -5 5v9c0 3 2 5 5 5h85c6 0 9 -3 11 -9l121 -469l192 776c1 3 3 4 6 4h9z" />
    <glyph glyph-name="summation" unicode="&#x2211;" horiz-adv-x="349" 
d="M46 -2c-3 0 -6 2 -6 6s-1 8 1 12l168 334l-168 334c-2 4 -1 8 -1 12s3 6 6 6h266c3 0 5 -2 5 -5v-9c0 -3 -2 -5 -5 -5h-250l162 -320c1 -2 1 -4 1 -6v-14c0 -2 0 -4 -1 -6l-162 -320h250c3 0 5 -2 5 -5v-9c0 -3 -2 -5 -5 -5h-266z" />
    <glyph glyph-name="lozenge" unicode="&#x25ca;" horiz-adv-x="453" 
d="M220 -2c-6 0 -8 3 -11 9l-150 336c-2 4 -2 10 0 14l150 336c3 6 5 9 11 9h12c6 0 8 -3 11 -9l150 -336c2 -4 2 -10 0 -14l-150 -336c-3 -6 -5 -9 -11 -9h-12zM226 17l150 333l-150 333l-150 -333z" />
    <glyph glyph-name="bar" unicode="|" horiz-adv-x="168" 
d="M74 795c0 3 2 5 5 5h10c3 0 5 -2 5 -5v-860c0 -3 -2 -5 -5 -5h-10c-3 0 -5 2 -5 5v860z" />
    <glyph glyph-name="brokenbar" unicode="&#xa6;" horiz-adv-x="148" 
d="M69 513c-3 0 -5 2 -5 5v277c0 3 2 5 5 5h10c3 0 5 -2 5 -5v-277c0 -3 -2 -5 -5 -5h-10zM69 -70c-3 0 -5 2 -5 5v277c0 3 2 5 5 5h10c3 0 5 -2 5 -5v-277c0 -3 -2 -5 -5 -5h-10z" />
    <glyph glyph-name="at" unicode="@" horiz-adv-x="610" 
d="M230 -100c-103 0 -172 73 -172 182v263c0 109 69 182 172 182h82c74 0 124 -60 124 -151v-178c0 -87 -50 -145 -124 -145c-83 0 -139 58 -139 145c0 84 59 140 139 140h105v38c0 80 -42 133 -105 133h-82c-92 0 -153 -66 -153 -164v-263c0 -98 61 -164 153 -164h150
c92 0 153 66 153 164v438c0 97 -61 164 -153 164h-175c-3 0 -5 2 -5 5v8c0 3 2 5 5 5h175c103 0 172 -73 172 -182v-438c0 -109 -69 -182 -172 -182h-150zM312 71c63 0 105 51 105 127v122h-105c-68 0 -120 -49 -120 -122c0 -76 48 -127 120 -127z" />
    <glyph glyph-name="ampersand" unicode="&#x26;" horiz-adv-x="499" 
d="M215 -2c-89 0 -153 67 -153 162v50c0 71 34 134 106 150c-69 18 -101 79 -101 150v37c0 84 62 160 156 160c86 0 153 -71 155 -160c0 -3 -2 -5 -5 -5h-10c-3 0 -5 2 -5 5c-2 79 -60 141 -135 141c-84 0 -137 -67 -137 -141v-37c0 -83 48 -141 135 -141h236c3 0 5 -2 5 -5
v-8c0 -3 -2 -5 -5 -5h-75v-343c0 -6 -4 -10 -10 -10h-157zM215 17h147v334h-141c-91 0 -140 -58 -140 -141v-50c0 -85 55 -143 134 -143z" />
    <glyph glyph-name="paragraph" unicode="&#xb6;" horiz-adv-x="456" 
d="M354 702c13 0 20 -7 20 -20v-775c0 -3 -2 -5 -5 -5h-10c-3 0 -5 2 -5 5v776h-172v-776c0 -3 -2 -5 -5 -5h-10c-3 0 -5 2 -5 5v539c-87 0 -138 47 -138 128s51 128 138 128h192z" />
    <glyph glyph-name="copyright" unicode="&#xa9;" horiz-adv-x="622" 
d="M248 -3c-110 0 -183 76 -183 190v322c0 116 73 194 183 194h127c109 0 182 -78 182 -194v-322c0 -114 -73 -190 -182 -190h-127zM248 11h127c101 0 168 70 168 176v322c0 108 -67 180 -168 180h-127c-101 0 -169 -72 -169 -180v-322c0 -106 68 -176 169 -176zM310 142
c-70 0 -117 50 -117 124v166c0 77 46 129 114 129c65 0 111 -42 114 -104c0 -2 -2 -4 -4 -4h-8c-2 0 -4 2 -4 4c-3 53 -42 88 -98 88c-58 0 -97 -45 -97 -113v-166c0 -65 40 -108 100 -108c57 0 97 40 99 99c0 2 2 4 4 4h8c3 0 5 -2 5 -4c-3 -69 -49 -115 -116 -115z" />
    <glyph glyph-name="registered" unicode="&#xae;" horiz-adv-x="452" 
d="M165 264c-57 0 -105 49 -105 104v226c0 60 48 109 105 109h123c56 0 104 -49 104 -109v-226c0 -55 -48 -104 -104 -104h-123zM165 276h123c51 0 92 42 92 92v226c0 57 -41 97 -92 97h-123c-52 0 -93 -40 -93 -97v-226c0 -50 41 -92 93 -92zM165 344c-1 0 -2 1 -2 2v218
c0 39 26 67 64 67c37 0 64 -28 64 -67v-29c0 -39 -27 -68 -57 -70l58 -119c1 -1 0 -2 -1 -2h-9c-1 0 -2 1 -2 2l-59 119h-46v-119c0 -1 -1 -2 -2 -2h-8zM175 476h52c31 0 52 24 52 59v29c0 33 -21 56 -52 56s-52 -23 -52 -56v-88z" />
    <glyph glyph-name="section" unicode="&#xa7;" horiz-adv-x="385" 
d="M252 220c41 -22 75 -55 75 -112c0 -73 -57 -115 -136 -115c-107 0 -139 76 -139 136c0 3 2 5 5 5h9c4 0 5 -3 5 -5c5 -41 17 -118 117 -118c70 0 120 37 120 99c0 143 -259 94 -259 256c0 58 32 99 80 116c-41 23 -70 58 -70 110c0 73 58 115 135 115
c85 0 133 -50 133 -120c0 -2 -2 -4 -5 -5h-9c-2 0 -5 3 -5 5c-4 34 -13 102 -112 102c-72 0 -118 -36 -118 -97c0 -143 258 -99 258 -258c0 -56 -33 -95 -84 -114zM68 368c0 -87 88 -106 159 -137c51 9 90 44 90 100c0 90 -99 110 -165 140c-52 -12 -84 -51 -84 -103z" />
    <glyph glyph-name="trademark" unicode="&#x2122;" horiz-adv-x="442" 
d="M344 702c35 0 56 -28 56 -63v-207c0 -1 -1 -2 -2 -2h-8c-1 0 -2 1 -2 2v204c0 31 -16 54 -44 54c-25 0 -44 -24 -44 -54v-204c0 -1 -1 -2 -2 -2h-8c-1 0 -2 1 -2 2v204c0 30 -18 54 -43 54c-28 0 -45 -23 -45 -54v-204c0 -1 -1 -2 -2 -2h-8c-1 0 -2 1 -2 2v207
c0 35 21 63 57 63c22 0 41 -16 49 -40c9 24 27 40 50 40zM149 700c1 0 2 0 2 -1v-9c0 -1 -1 -2 -2 -2h-50v-255c0 -1 -1 -2 -2 -2h-8c-1 0 -2 1 -2 2v255h-50c-1 0 -1 1 -1 2v9c0 1 0 1 1 1h112z" />
    <glyph glyph-name="degree" unicode="&#xb0;" horiz-adv-x="308" 
d="M38 583c0 74 46 124 116 124s116 -50 116 -124s-46 -124 -116 -124s-116 50 -116 124zM56 583c0 -64 39 -107 98 -107s99 43 99 107s-40 107 -99 107s-98 -43 -98 -107z" />
    <glyph glyph-name="asciicircum" unicode="^" horiz-adv-x="280" 
d="M259 486c2 -4 -1 -6 -4 -6h-9c-2 0 -5 1 -6 4l-100 196l-100 -196c-1 -3 -4 -4 -6 -4h-9c-3 0 -6 2 -4 6l107 210c1 3 4 4 6 4h12c2 0 5 -1 6 -4z" />
    <glyph glyph-name="dagger" unicode="&#x2020;" horiz-adv-x="340" 
d="M305 500c3 0 5 -2 5 -5v-9c0 -3 -2 -5 -5 -5h-125v-576c0 -3 -2 -5 -5 -5h-10c-3 0 -5 2 -5 5v576h-125c-3 0 -5 2 -5 5v9c0 3 2 5 5 5h125v195c0 3 2 5 5 5h10c3 0 5 -2 5 -5v-195h125z" />
    <glyph glyph-name="daggerdbl" unicode="&#x2021;" horiz-adv-x="348" 
d="M309 481h-125v-317h125c3 0 5 -2 5 -5v-9c0 -3 -2 -5 -5 -5h-125v-240c0 -3 -2 -5 -5 -5h-10c-3 0 -5 2 -5 5v240h-125c-3 0 -5 2 -5 5v9c0 3 2 5 5 5h125v317h-125c-3 0 -5 2 -5 5v9c0 3 2 5 5 5h125v195c0 3 2 5 5 5h10c3 0 5 -2 5 -5v-195h125c3 0 5 -2 5 -5v-9
c0 -3 -2 -5 -5 -5z" />
    <glyph glyph-name="uni0308" unicode="&#x308;" 
d="M-118 585c-13 0 -22 9 -22 22s9 22 22 22s22 -9 22 -22s-9 -22 -22 -22zM-22 585c-13 0 -22 9 -22 22s9 22 22 22s22 -9 22 -22s-9 -22 -22 -22z" />
    <glyph glyph-name="uni0307" unicode="&#x307;" 
d="M-22 585c-13 0 -22 9 -22 22s9 22 22 22s22 -9 22 -22s-9 -22 -22 -22z" />
    <glyph glyph-name="gravecomb" unicode="&#x300;" 
d="M-85 666h12c2 0 5 -1 6 -3l63 -98c2 -4 1 -6 -3 -6h-7c-2 0 -5 1 -6 3l-68 98c-2 3 -1 6 3 6z" />
    <glyph glyph-name="acutecomb" unicode="&#x301;" 
d="M-8 666c4 0 5 -3 3 -6l-68 -98c-1 -2 -4 -3 -6 -3h-7c-4 0 -5 2 -3 6l63 98c1 2 4 3 6 3h12z" />
    <glyph glyph-name="uni030B" unicode="&#x30b;" 
d="M-105 666c4 0 5 -3 3 -6l-69 -98c-1 -2 -4 -3 -6 -3h-7c-4 0 -5 2 -3 6l64 98c1 2 4 3 6 3h12zM-7 666c4 0 5 -3 3 -6l-69 -98c-1 -2 -4 -3 -6 -3h-7c-4 0 -5 2 -3 6l64 98c1 2 4 3 6 3h12z" />
    <glyph glyph-name="uni0302" unicode="&#x302;" 
d="M-177 559c-4 0 -5 3 -3 6l74 98c1 2 4 3 6 3h16c2 0 5 -1 6 -3l74 -98c2 -3 1 -6 -3 -6h-8c-2 0 -5 1 -6 3l-71 90l-71 -90c-1 -2 -4 -3 -6 -3h-8z" />
    <glyph glyph-name="uni030C" unicode="&#x30c;" 
d="M-177 666h8c2 0 5 -1 6 -3l71 -90l71 90c1 2 4 3 6 3h8c4 0 5 -3 3 -6l-74 -98c-1 -2 -4 -3 -6 -3h-16c-2 0 -5 1 -6 3l-74 98c-2 3 -1 6 3 6z" />
    <glyph glyph-name="uni0306" unicode="&#x306;" 
d="M-101 563c-59 0 -99 40 -101 99c0 3 2 5 5 5h9c3 0 5 -2 5 -5c2 -52 32 -82 82 -82s80 30 82 82c0 3 2 5 5 5h9c3 0 5 -2 5 -5c-2 -59 -42 -99 -101 -99z" />
    <glyph glyph-name="uni030A" unicode="&#x30a;" 
d="M-126 614c0 36 25 60 63 60s63 -24 63 -60c0 -37 -25 -62 -63 -62s-63 25 -63 62zM-107 613c0 -28 16 -44 44 -44s44 16 44 44s-16 44 -44 44s-44 -16 -44 -44z" />
    <glyph glyph-name="tildecomb" unicode="&#x303;" 
d="M-141 634c-20 0 -34 -17 -35 -47c0 -3 -2 -5 -5 -5h-9c-3 0 -5 2 -5 5c2 39 25 65 55 65c43 0 52 -53 86 -53c20 0 34 17 35 47c0 3 2 5 5 5h9c3 0 5 -2 5 -5c-2 -40 -26 -65 -55 -65c-41 0 -51 53 -86 53z" />
    <glyph glyph-name="uni0304" unicode="&#x304;" 
d="M-150 612c0 3 2 5 5 5h140c3 0 5 -2 5 -5v-8c0 -3 -2 -5 -5 -5h-140c-3 0 -5 2 -5 5v8z" />
    <glyph glyph-name="uni0312" unicode="&#x312;" 
d="M-28 564l-9 134c0 4 2 5 5 5h5c3 0 6 -2 6 -5l21 -134c1 -4 -1 -5 -4 -5h-19c-3 0 -5 1 -5 5z" />
    <glyph glyph-name="uni0326" unicode="&#x326;" 
d="M-40 -71c0 4 2 5 5 5h19c3 0 5 -1 4 -5l-21 -134c0 -3 -3 -5 -6 -5h-5c-3 0 -5 1 -5 5z" />
    <glyph glyph-name="uni0327" unicode="&#x327;" 
d="M-79 -193c-46 0 -77 26 -80 66c0 3 2 5 5 5h8c3 0 5 -2 5 -5c3 -28 27 -47 62 -47s60 18 60 49c0 30 -22 51 -49 51c-12 0 -26 -3 -39 -7c-2 -1 -3 -1 -5 1l-1 1c-2 2 -2 3 -2 5l14 74h17l-11 -61c7 2 18 3 26 3c42 0 69 -28 69 -67c0 -42 -32 -68 -79 -68z" />
    <glyph glyph-name="uni0328" unicode="&#x328;" 
d="M0 -186c0 -3 -1 -4 -4 -5c-8 -1 -18 -2 -25 -2c-47 0 -75 30 -75 68c0 40 33 85 76 125h19c-51 -45 -76 -87 -76 -122c0 -33 24 -52 61 -52c6 0 13 1 19 1c3 1 5 -1 5 -4v-9z" />
    <glyph glyph-name="uni0335" unicode="&#x335;" 
d="M-210 372v19h200v-19h-200z" />
    <glyph glyph-name="uni0336" unicode="&#x336;" 
d="M-330 391h320v-19h-320v19z" />
    <glyph glyph-name="uni0337" unicode="&#x337;" 
d="M-198 -45c-3 0 -5 2 -4 6l161 580c1 2 2 4 5 4h10c3 0 5 -2 4 -6l-161 -580c-1 -2 -2 -4 -5 -4h-10z" />
    <glyph glyph-name="uni0338" unicode="&#x338;" 
d="M-308 -45c-3 0 -5 2 -4 6l217 780c1 2 2 4 5 4h9c3 0 5 -2 4 -6l-217 -780c-1 -2 -2 -4 -5 -4h-9z" />
    <glyph glyph-name="uni0308.case" 
d="M-118 805c-13 0 -22 9 -22 22s9 22 22 22s22 -9 22 -22s-9 -22 -22 -22zM-22 805c-13 0 -22 9 -22 22s9 22 22 22s22 -9 22 -22s-9 -22 -22 -22z" />
    <glyph glyph-name="uni0307.case" 
d="M-22 785c-13 0 -22 9 -22 22s9 22 22 22s22 -9 22 -22s-9 -22 -22 -22z" />
    <glyph glyph-name="gravecomb.case" 
d="M-8 769h-6c-2 0 -5 1 -6 3l-79 90c-3 4 -1 6 3 6h13c2 0 5 -1 6 -3l72 -90c2 -3 1 -6 -3 -6z" />
    <glyph glyph-name="acutecomb.case" 
d="M-85 769c-4 0 -5 3 -3 6l72 90c1 2 4 3 6 3h13c4 0 6 -2 3 -6l-79 -90c-1 -2 -4 -3 -6 -3h-6z" />
    <glyph glyph-name="uni030B.case" 
d="M-192 769c-4 0 -5 3 -3 6l72 90c1 2 4 3 6 3h13c4 0 6 -2 3 -6l-79 -90c-1 -2 -4 -3 -6 -3h-6zM-92 769c-4 0 -5 3 -3 6l72 90c1 2 4 3 6 3h13c4 0 6 -2 3 -6l-79 -90c-1 -2 -4 -3 -6 -3h-6z" />
    <glyph glyph-name="uni0302.case" 
d="M-5 775c2 -3 1 -6 -3 -6h-7c-2 0 -5 1 -6 3l-72 84l-72 -84c-1 -2 -4 -3 -6 -3h-7c-4 0 -5 3 -3 6l73 90c1 2 4 3 6 3h18c2 0 5 -1 6 -3z" />
    <glyph glyph-name="uni030C.case" 
d="M-5 862l-73 -90c-1 -2 -4 -3 -6 -3h-18c-2 0 -5 1 -6 3l-73 90c-2 3 -1 6 3 6h7c2 0 5 -1 6 -3l72 -84l72 84c1 2 4 3 6 3h7c4 0 5 -3 3 -6z" />
    <glyph glyph-name="uni0306.case" 
d="M-101 769c-59 0 -99 38 -101 94c0 3 2 5 5 5h9c3 0 5 -2 5 -5c2 -49 32 -77 82 -77s80 28 82 77c0 3 2 5 5 5h9c3 0 5 -2 5 -5c-2 -56 -42 -94 -101 -94z" />
    <glyph glyph-name="uni030A.case" 
d="M-126 821c0 36 25 60 63 60s63 -24 63 -60c0 -37 -25 -62 -63 -62s-63 25 -63 62zM-107 820c0 -28 16 -44 44 -44s44 16 44 44s-16 44 -44 44s-44 -16 -44 -44z" />
    <glyph glyph-name="tildecomb.case" 
d="M-141 824c-20 0 -34 -17 -35 -47c0 -3 -2 -5 -5 -5h-9c-3 0 -5 2 -5 5c2 39 25 65 55 65c43 0 52 -53 86 -53c20 0 34 17 35 47c0 3 2 5 5 5h9c3 0 5 -2 5 -5c-2 -40 -26 -65 -55 -65c-41 0 -51 53 -86 53z" />
    <glyph glyph-name="uni0304.case" 
d="M-150 814c0 3 2 5 5 5h140c3 0 5 -2 5 -5v-8c0 -3 -2 -5 -5 -5h-140c-3 0 -5 2 -5 5v8z" />
    <glyph glyph-name="uni0312.case" 
d="M-28 764l-9 134c0 4 2 5 5 5h5c3 0 6 -2 6 -5l21 -134c1 -4 -1 -5 -4 -5h-19c-3 0 -5 1 -5 5z" />
    <glyph glyph-name="uni0326.case" 
d="M-40 -71c0 4 2 5 5 5h19c3 0 5 -1 4 -5l-21 -134c0 -3 -3 -5 -6 -5h-5c-3 0 -5 1 -5 5z" />
    <glyph glyph-name="uni0327.case" 
d="M-79 -193c-46 0 -77 26 -80 66c0 3 2 5 5 5h8c3 0 5 -2 5 -5c3 -28 27 -47 62 -47s60 18 60 49c0 30 -22 51 -49 51c-12 0 -26 -3 -39 -7c-2 -1 -3 -1 -5 1l-1 1c-2 2 -2 3 -2 5l14 74h17l-11 -61c7 2 18 3 26 3c42 0 69 -28 69 -67c0 -42 -32 -68 -79 -68z" />
    <glyph glyph-name="uni0328.case" 
d="M0 -186c0 -3 -1 -4 -4 -5c-8 -1 -18 -2 -25 -2c-47 0 -75 30 -75 68c0 40 33 85 76 125h19c-51 -45 -76 -87 -76 -122c0 -33 24 -52 61 -52c6 0 13 1 19 1c3 1 5 -1 5 -4v-9z" />
    <glyph glyph-name="uni0337.case" 
d="M-176 -45c-3 0 -5 2 -4 6l161 580c1 2 2 4 5 4h10c3 0 5 -2 4 -6l-161 -580c-1 -2 -2 -4 -5 -4h-10z" />
    <glyph glyph-name="uni0338.case" 
d="M-308 -45c-3 0 -5 2 -4 6l217 780c1 2 2 4 5 4h9c3 0 5 -2 4 -6l-217 -780c-1 -2 -2 -4 -5 -4h-9z" />
    <glyph glyph-name="brevecombcy" 
d="M-101 563c-59 0 -99 40 -101 99c0 3 2 5 5 5h9c3 0 5 -2 5 -5c2 -52 32 -82 82 -82s80 30 82 82c0 3 2 5 5 5h9c3 0 5 -2 5 -5c-2 -59 -42 -99 -101 -99z" />
    <glyph glyph-name="brevecombcy.case" 
d="M-101 769c-59 0 -99 38 -101 94c0 3 2 5 5 5h9c3 0 5 -2 5 -5c2 -49 32 -77 82 -77s80 28 82 77c0 3 2 5 5 5h9c3 0 5 -2 5 -5c-2 -56 -42 -94 -101 -94z" />
    </font>
</defs>
</svg>
